<?xml version="1.0" encoding="utf-8"?>
<!-- Generator: Adobe Illustrator 15.1.0, SVG Export Plug-In . SVG Version: 6.00 Build 0)  -->
<!DOCTYPE svg PUBLIC "-//W3C//DTD SVG 1.1//EN" "http://www.w3.org/Graphics/SVG/1.1/DTD/svg11.dtd">
<svg version="1.1" id="Layer_1" xmlns="http://www.w3.org/2000/svg" xmlns:xlink="http://www.w3.org/1999/xlink" x="0px" y="0px"
	 width="34.016px" height="34.021px" viewBox="0 0 34.016 34.021" enable-background="new 0 0 34.016 34.021" xml:space="preserve">
<rect x="1" y="1.146" fill="#FEC141" width="34.016" height="34.016"/>
<g>
	<path fill-rule="evenodd" clip-rule="evenodd" fill="#FFFFFF" d="M24.038,23.414c-0.084-0.001-0.172,0.02-0.252,0.058
		c-0.092,0.036-0.186,0.078-0.273,0.115l-0.129,0.054l-0.168,0.067v0.002c-1.824,0.74-3.742,1.174-5.515,1.213
		c-0.065,0.002-0.131,0.002-0.194,0.002c-2.79,0.001-5.065-1.293-7.362-2.568c-0.08-0.042-0.162-0.063-0.242-0.063
		c-0.104,0-0.209,0.038-0.286,0.11c-0.077,0.073-0.123,0.179-0.122,0.285c-0.001,0.14,0.074,0.267,0.179,0.35
		c2.155,1.872,4.518,3.61,7.694,3.612c0.062,0,0.125-0.002,0.188-0.003c2.021-0.046,4.306-0.728,6.08-1.843l0.012-0.007
		c0.232-0.139,0.465-0.297,0.684-0.472c0.135-0.102,0.229-0.259,0.229-0.423C24.551,23.611,24.305,23.414,24.038,23.414z"/>
	<path fill="none" d="M26.499,22.381L26.499,22.381c-0.008-0.179-0.045-0.313-0.119-0.426l-0.008-0.011l-0.008-0.011
		c-0.076-0.082-0.148-0.113-0.227-0.147c-0.232-0.09-0.57-0.138-0.979-0.139c-0.293,0-0.617,0.027-0.941,0.099l-0.002-0.021
		l-0.326,0.109l-0.006,0.002l-0.186,0.061v0.008c-0.217,0.09-0.414,0.203-0.598,0.335c-0.113,0.086-0.207,0.198-0.213,0.371
		c-0.002,0.094,0.045,0.202,0.125,0.267c0.078,0.064,0.17,0.086,0.252,0.086c0.02,0,0.037-0.001,0.053-0.004l0.016-0.001
		l0.012-0.003c0.16-0.033,0.395-0.056,0.666-0.095c0.234-0.025,0.482-0.045,0.697-0.045c0.152-0.001,0.289,0.01,0.383,0.03
		c0.047,0.01,0.082,0.022,0.102,0.032c0.008,0.002,0.012,0.005,0.016,0.007c0.004,0.014,0.01,0.047,0.008,0.094
		c0.002,0.181-0.074,0.515-0.178,0.84c-0.104,0.326-0.227,0.653-0.309,0.87c-0.02,0.051-0.033,0.105-0.033,0.165
		c-0.002,0.088,0.035,0.193,0.109,0.264s0.17,0.099,0.25,0.099h0.004c0.121-0.002,0.223-0.049,0.311-0.118
		c0.83-0.747,1.119-1.938,1.131-2.609L26.499,22.381z"/>
	<path fill-rule="evenodd" clip-rule="evenodd" fill="#FFFFFF" d="M18.907,14.378c-0.488,0.036-1.051,0.073-1.615,0.147
		c-0.863,0.114-1.726,0.264-2.438,0.602c-1.389,0.563-2.327,1.765-2.327,3.528c0,2.216,1.426,3.341,3.229,3.341
		c0.6,0,1.088-0.075,1.537-0.188c0.715-0.226,1.314-0.638,2.027-1.39c0.414,0.563,0.527,0.827,1.238,1.427
		c0.189,0.075,0.377,0.075,0.525-0.037c0.451-0.376,1.24-1.052,1.652-1.426c0.188-0.15,0.15-0.376,0.037-0.563
		c-0.412-0.526-0.826-0.978-0.826-1.991v-3.378c0-1.427,0.113-2.74-0.938-3.715c-0.863-0.788-2.215-1.089-3.265-1.089h-0.451
		c-1.913,0.11-3.939,0.938-4.391,3.303c-0.075,0.301,0.15,0.412,0.301,0.449l2.102,0.264c0.226-0.037,0.338-0.227,0.375-0.412
		c0.188-0.826,0.863-1.239,1.613-1.314h0.151c0.45,0,0.938,0.188,1.2,0.563c0.301,0.45,0.264,1.051,0.264,1.577V14.378z
		 M18.495,18.843c-0.264,0.525-0.714,0.863-1.203,0.978c-0.074,0-0.187,0.037-0.3,0.037c-0.825,0-1.313-0.639-1.313-1.577
		c0-1.201,0.713-1.764,1.613-2.027c0.488-0.112,1.052-0.15,1.615-0.15v0.451C18.907,17.417,18.944,18.092,18.495,18.843z"/>
</g>
</svg>
