<?xml version="1.0" encoding="utf-8"?>
<!-- Generator: Adobe Illustrator 15.1.0, SVG Export Plug-In . SVG Version: 6.00 Build 0)  -->
<!DOCTYPE svg PUBLIC "-//W3C//DTD SVG 1.1//EN" "http://www.w3.org/Graphics/SVG/1.1/DTD/svg11.dtd">
<svg version="1.1" id="Layer_1" xmlns="http://www.w3.org/2000/svg" xmlns:xlink="http://www.w3.org/1999/xlink" x="0px" y="0px"
	 width="34.016px" height="34.021px" viewBox="0 0 34.016 34.021" enable-background="new 0 0 34.016 34.021" xml:space="preserve">
<rect y="1.106" fill="#1FC4F3" width="34.016" height="34.021"/>
<path fill="#FFFFFF" d="M16.313,12.85c0.32,0.447,0.481,0.981,0.481,1.604c0,0.641-0.161,1.157-0.485,1.548
	c-0.183,0.218-0.449,0.418-0.803,0.598c0.536,0.196,0.94,0.506,1.215,0.929c0.272,0.422,0.409,0.937,0.409,1.54
	c0,0.623-0.155,1.183-0.469,1.676c-0.198,0.328-0.446,0.604-0.744,0.827c-0.335,0.258-0.729,0.433-1.187,0.528
	s-0.951,0.142-1.485,0.142H8.51V11.729h5.079C14.871,11.748,15.778,12.121,16.313,12.85z M10.605,13.555v2.319h2.556
	c0.455,0,0.826-0.087,1.112-0.261c0.283-0.174,0.427-0.482,0.427-0.923c0-0.491-0.188-0.813-0.564-0.972
	c-0.325-0.109-0.739-0.164-1.242-0.164H10.605z M10.605,17.613v2.803h2.552c0.456,0,0.812-0.062,1.064-0.185
	c0.462-0.229,0.691-0.666,0.691-1.312c0-0.548-0.222-0.924-0.669-1.129c-0.25-0.113-0.601-0.174-1.051-0.178H10.605z M23.485,14.626
	c0.543,0.242,0.99,0.626,1.342,1.15c0.322,0.461,0.527,0.997,0.621,1.606c0.055,0.356,0.078,0.872,0.068,1.543h-5.662
	c0.033,0.78,0.301,1.327,0.813,1.64c0.311,0.195,0.684,0.293,1.121,0.293c0.461,0,0.838-0.119,1.127-0.356
	c0.16-0.128,0.299-0.307,0.42-0.535h2.074c-0.055,0.461-0.307,0.93-0.752,1.406c-0.697,0.755-1.672,1.133-2.924,1.133
	c-1.035,0-1.949-0.317-2.738-0.956c-0.793-0.638-1.186-1.676-1.186-3.111c0-1.348,0.356-2.38,1.069-3.1
	c0.715-0.718,1.641-1.078,2.779-1.078C22.334,14.261,22.944,14.383,23.485,14.626z M20.446,16.382
	c-0.287,0.296-0.469,0.697-0.543,1.203h3.504c-0.037-0.54-0.219-0.948-0.541-1.229c-0.326-0.279-0.729-0.419-1.207-0.419
	C21.137,15.938,20.733,16.086,20.446,16.382z M23.881,12.219h-4.504v1.309h4.504V12.219z"/>
</svg>
