<?xml version="1.0" encoding="utf-8"?>
<!-- Generator: Adobe Illustrator 15.1.0, SVG Export Plug-In . SVG Version: 6.00 Build 0)  -->
<!DOCTYPE svg PUBLIC "-//W3C//DTD SVG 1.1//EN" "http://www.w3.org/Graphics/SVG/1.1/DTD/svg11.dtd">
<svg version="1.1" id="Layer_1" xmlns="http://www.w3.org/2000/svg" xmlns:xlink="http://www.w3.org/1999/xlink" x="0px" y="0px"
	 width="34.016px" height="34.021px" viewBox="0 0 34.016 34.021" enable-background="new 0 0 34.016 34.021" xml:space="preserve">
<rect fill="#FAC46B" width="34.016" height="34.016"/>
<path fill-rule="evenodd" clip-rule="evenodd" fill="#FFFFFF" d="M25.415,15.562l-0.141-0.294l-0.238-0.188
	c-0.314-0.246-1.893,0.017-2.322-0.37c-0.299-0.279-0.344-0.778-0.436-1.454c-0.17-1.314-0.277-1.382-0.482-1.825
	c-0.746-1.579-2.762-2.769-4.148-2.932H13.89c-2.953,0-5.369,2.42-5.369,5.377v6.27c0,2.948,2.416,5.364,5.369,5.364h6.173
	c2.953,0,5.352-2.416,5.369-5.364l0.035-4.345L25.415,15.562z M13.958,12.891h2.977c0.569,0,1.03,0.461,1.03,1.024
	c0,0.562-0.461,1.028-1.03,1.028h-2.977c-0.569,0-1.028-0.467-1.028-1.028C12.93,13.352,13.39,12.891,13.958,12.891z M20.01,21.088
	h-6.052c-0.569,0-1.028-0.467-1.028-1.024c0-0.563,0.459-1.021,1.028-1.021h6.052c0.564,0,1.023,0.459,1.023,1.021
	C21.034,20.621,20.575,21.088,20.01,21.088z"/>
</svg>
