<?xml version="1.0" encoding="utf-8"?>
<!-- Generator: Adobe Illustrator 15.1.0, SVG Export Plug-In . SVG Version: 6.00 Build 0)  -->
<!DOCTYPE svg PUBLIC "-//W3C//DTD SVG 1.1//EN" "http://www.w3.org/Graphics/SVG/1.1/DTD/svg11.dtd">
<svg version="1.1" id="Layer_1" xmlns="http://www.w3.org/2000/svg" xmlns:xlink="http://www.w3.org/1999/xlink" x="0px" y="0px"
	 width="34.016px" height="34.021px" viewBox="0 0 34.016 34.021" enable-background="new 0 0 34.016 34.021" xml:space="preserve">
<rect x="-0.334" y="1.187" fill="#1F2325" width="34.016" height="34.016"/>
<g>
	<path fill="#FFFFFF" d="M10.715,13.338v2.254H8.157v5.159h4.221v-7.413H10.715z M10.715,19.364H9.849V17.02h0.867V19.364z"/>
	<path fill="#FFFFFF" d="M15.844,15.612v5.159h2.56v0.807h-2.589v1.448h3.518h0.734v-7.414H15.844z M18.404,19.345h-0.868v-2.346
		h0.868V19.345z"/>
	<path fill="#FFFFFF" d="M20.944,15.612v5.159h2.558v0.807h-2.589v1.448h3.519h0.733v-7.414H20.944z M23.501,19.345h-0.865v-2.346
		h0.865V19.345z"/>
	<rect x="13.235" y="15.581" fill="#FFFFFF" width="1.722" height="5.19"/>
	<rect x="13.235" y="13.429" fill="#FFFFFF" width="1.722" height="1.408"/>
</g>
</svg>
