<?xml version="1.0" encoding="utf-8"?>
<!-- Generator: Adobe Illustrator 15.1.0, SVG Export Plug-In . SVG Version: 6.00 Build 0)  -->
<!DOCTYPE svg PUBLIC "-//W3C//DTD SVG 1.1//EN" "http://www.w3.org/Graphics/SVG/1.1/DTD/svg11.dtd">
<svg version="1.1" id="Layer_1" xmlns="http://www.w3.org/2000/svg" xmlns:xlink="http://www.w3.org/1999/xlink" x="0px" y="0px"
	 width="34.016px" height="34.021px" viewBox="0 0 34.016 34.021" enable-background="new 0 0 34.016 34.021" xml:space="preserve">
<rect x="0.712" y="0.187" fill="#EF4845" width="34.016" height="34.016"/>
<g>
	<path fill-rule="evenodd" clip-rule="evenodd" fill="#FFFFFF" d="M18.475,16.203c-0.227-0.155-0.516-0.242-0.921-0.242
		c-0.597,0-0.998,0.155-1.348,0.615h-0.025v-2.853h-1.646v2.371c0.024,0.01,0.048,0.02,0.07,0.03c0.634,0.246,0.996,0.6,1.189,1.028
		c0.191,0.422,0.214,0.905,0.173,1.426h-0.001c-0.008,0.099-0.088,0.178-0.187,0.178h-1.245v0.001v0.158h1.193v0.001h0.01
		c0.103,0.005,0.183,0.096,0.178,0.202c-0.015,0.313-0.137,0.589-0.36,0.826c-0.205,0.219-0.496,0.406-0.868,0.561
		c-0.047,0.042-0.062,0.05-0.113,0.051l-0.039,0.017v0.914h1.568v-0.593h0.027c0.297,0.522,0.75,0.709,1.398,0.709
		c1.284,0,1.569-0.984,1.642-1.935l-0.021-0.004l0,0h-0.004c-0.575-0.121-0.938-0.458-1.139-0.909l0,0
		c-0.038-0.088-0.07-0.179-0.097-0.27c-0.062-0.223-0.091-0.467-0.091-0.722l0,0v-0.004c0-0.378,0.061-0.695,0.178-0.957
		C18.108,16.552,18.269,16.354,18.475,16.203L18.475,16.203z M17.554,18.72c0,1.372-0.094,1.941-0.699,1.941
		c-0.571,0-0.674-0.569-0.674-1.941c0-1.067,0-1.824,0.674-1.824C17.58,16.896,17.554,17.652,17.554,18.72L17.554,18.72z"/>
	<path fill-rule="evenodd" clip-rule="evenodd" fill="#FFFFFF" d="M15.728,19.109h-1.193h-0.879h-0.026h-0.972
		c0,0.413-0.222,0.873-1.297,0.873c-1.33,0-1.355-0.85-1.355-1.419h4.529h1.245c0.076-0.981-0.077-1.809-1.245-2.26
		c-0.256-0.117-0.555-0.188-0.905-0.25c-0.57-0.116-1.322-0.187-2.269-0.187c-3.975,0-4.401,1.122-4.401,2.424
		c0,1.505,0.504,2.557,4.401,2.557c0.896,0,1.673-0.094,2.295-0.203c0.324-0.07,0.623-0.163,0.879-0.28c0.025,0,0.025,0,0.05-0.023
		C15.311,20.046,15.703,19.64,15.728,19.109L15.728,19.109z M11.361,16.693c1.45,0,1.398,0.662,1.398,1.114h-2.754
		C10.005,17.418,9.989,16.693,11.361,16.693L11.361,16.693z"/>
	<path fill-rule="evenodd" clip-rule="evenodd" fill="#FFFFFF" d="M18.628,16.327c-0.4,0.272-0.622,0.732-0.622,1.434
		c0,0.826,0.323,1.536,1.176,1.715c0.12,0.024,0.248,0.024,0.401,0.024c0.726,0,1.194-0.273,1.544-0.818h0.026l0.076,0.724h1.553
		c-0.026-0.342-0.076-0.686-0.076-1.027v-1.036l-0.164-0.307l0,0l-1.654-3.062l-0.063-0.116c-0.161-0.014-0.332-0.024-0.517-0.024
		c-0.631,0-1.178,0.094-1.553,0.365c-0.4,0.235-0.623,0.663-0.623,1.326h1.646c0-0.429,0.026-0.843,0.623-0.843
		c0.605,0,0.674,0.344,0.674,0.796v0.437C20.13,15.891,19.208,15.914,18.628,16.327L18.628,16.327z M20.258,18.563
		c-0.555,0-0.632-0.482-0.632-0.864c0-0.959,0.632-0.896,1.45-0.944C21.077,17.355,21.23,18.563,20.258,18.563L20.258,18.563z"/>
	<polygon fill-rule="evenodd" clip-rule="evenodd" fill="#FFFFFF" points="26.254,13.155 24.583,16.412 23.03,13.155 20.659,13.155 
		21.051,13.88 22.707,16.942 23.38,18.197 23.38,20.87 25.555,20.87 25.555,18.197 28.456,13.155 26.254,13.155 	"/>
</g>
</svg>
