<?xml version="1.0" encoding="utf-8"?>
<!-- Generator: Adobe Illustrator 15.1.0, SVG Export Plug-In . SVG Version: 6.00 Build 0)  -->
<!DOCTYPE svg PUBLIC "-//W3C//DTD SVG 1.1//EN" "http://www.w3.org/Graphics/SVG/1.1/DTD/svg11.dtd">
<svg version="1.1" id="Layer_1" xmlns="http://www.w3.org/2000/svg" xmlns:xlink="http://www.w3.org/1999/xlink" x="0px" y="0px"
	 width="34.016px" height="34.021px" viewBox="0 0 34.016 34.021" enable-background="new 0 0 34.016 34.021" xml:space="preserve">
<rect x="0" fill="#F7941E" width="34.016" height="34.021"/>
<path id="RSS_1_" fill="#FFFFFF" d="M12.366,21.655c0.412,0.411,0.663,0.97,0.665,1.591c-0.002,0.621-0.253,1.18-0.663,1.589
	l-0.002,0.001c-0.41,0.409-0.973,0.66-1.597,0.66c-0.625,0-1.185-0.252-1.596-0.661c-0.409-0.409-0.662-0.967-0.662-1.589
	c0-0.621,0.253-1.181,0.662-1.592v0.001c0.411-0.409,0.971-0.662,1.596-0.662C11.393,20.993,11.956,21.246,12.366,21.655z
	 M12.366,21.654L12.366,21.654L12.366,21.654L12.366,21.654z M9.173,24.836L9.173,24.836C9.172,24.835,9.172,24.835,9.173,24.836
	L9.173,24.836z M8.513,14.29v3.247c2.119,0.002,4.126,0.835,5.625,2.338c1.502,1.499,2.33,3.508,2.334,5.636l0,0v0.006h3.263
	c-0.003-3.095-1.261-5.897-3.294-7.932C14.409,15.551,11.606,14.291,8.513,14.29z M8.518,8.505v3.247
	c7.579,0.005,13.739,6.177,13.746,13.765h3.255c-0.002-4.689-1.908-8.938-4.987-12.021C17.452,10.414,13.206,8.507,8.518,8.505z"/>
</svg>
