<?xml version="1.0" encoding="utf-8"?>
<!-- Generator: Adobe Illustrator 15.1.0, SVG Export Plug-In . SVG Version: 6.00 Build 0)  -->
<!DOCTYPE svg PUBLIC "-//W3C//DTD SVG 1.1//EN" "http://www.w3.org/Graphics/SVG/1.1/DTD/svg11.dtd">
<svg version="1.1" id="Layer_1" xmlns="http://www.w3.org/2000/svg" xmlns:xlink="http://www.w3.org/1999/xlink" x="0px" y="0px"
	 width="34.016px" height="34.021px" viewBox="0 0 34.016 34.021" enable-background="new 0 0 34.016 34.021" xml:space="preserve">
<rect fill="#D57CA4" width="34.016" height="34.016"/>
<path fill-rule="evenodd" clip-rule="evenodd" fill="#FFFFFF" d="M25.325,15.292c-0.111-0.547-0.279-1.085-0.496-1.599
	c-0.213-0.505-0.477-0.99-0.783-1.445c-0.305-0.45-0.654-0.873-1.037-1.258c-0.385-0.385-0.809-0.734-1.26-1.038
	c-0.453-0.308-0.939-0.571-1.443-0.785c-0.514-0.216-1.052-0.385-1.598-0.495c-0.561-0.115-1.137-0.174-1.713-0.174
	s-1.152,0.059-1.713,0.174c-0.546,0.11-1.084,0.279-1.598,0.495c-0.504,0.214-0.99,0.478-1.445,0.785
	c-0.45,0.304-0.874,0.653-1.258,1.038c-0.384,0.385-0.733,0.808-1.037,1.258c-0.307,0.455-0.571,0.94-0.784,1.445
	c-0.217,0.514-0.384,1.052-0.496,1.599c-0.115,0.559-0.173,1.136-0.173,1.712c0,0.577,0.058,1.154,0.173,1.714
	c0.112,0.546,0.279,1.084,0.496,1.598c0.213,0.504,0.477,0.991,0.784,1.445c0.304,0.45,0.653,0.873,1.037,1.258
	c0.385,0.385,0.808,0.733,1.258,1.038c0.455,0.307,0.941,0.571,1.445,0.784c0.514,0.218,1.052,0.384,1.598,0.495
	c0.561,0.116,1.137,0.174,1.713,0.174s1.152-0.058,1.713-0.174c0.546-0.111,1.084-0.277,1.598-0.495
	c0.504-0.213,0.99-0.478,1.443-0.784c0.451-0.305,0.875-0.653,1.26-1.038c0.383-0.385,0.732-0.808,1.037-1.258
	c0.307-0.454,0.57-0.941,0.783-1.445c0.217-0.514,0.385-1.052,0.496-1.598c0.115-0.56,0.174-1.137,0.174-1.714
	C25.499,16.428,25.44,15.851,25.325,15.292z M24.254,16.932c-0.105-0.023-2.563-0.552-5.058-0.238
	c-0.052-0.124-0.103-0.249-0.157-0.374c-0.15-0.355-0.313-0.708-0.482-1.054c2.867-1.172,4.031-2.855,4.045-2.876
	C23.622,13.628,24.237,15.208,24.254,16.932z M21.792,11.553c-0.018,0.028-1.053,1.604-3.794,2.63
	c-1.241-2.281-2.605-4.093-2.714-4.237c0.549-0.133,1.122-0.205,1.711-0.205C18.833,9.74,20.512,10.426,21.792,11.553z
	 M15.255,9.951c0,0.001-0.001,0.002-0.001,0.002s-0.008,0.002-0.022,0.005C15.24,9.955,15.248,9.954,15.255,9.951z M13.896,10.435
	c0.097,0.13,1.44,1.95,2.696,4.186c-3.486,0.927-6.513,0.891-6.705,0.887C10.359,13.257,11.871,11.392,13.896,10.435z M9.732,17.004
	c0-0.078,0.003-0.153,0.006-0.229c0.128,0.003,3.717,0.084,7.456-1.035c0.209,0.407,0.408,0.821,0.59,1.234
	c-0.097,0.027-0.191,0.056-0.286,0.087c-3.919,1.268-5.907,4.794-5.907,4.794s0.002,0.003,0.002,0.004
	C10.437,20.571,9.732,18.87,9.732,17.004z M16.995,24.269c-1.758,0-3.37-0.626-4.626-1.665c0.096,0.077,0.163,0.127,0.163,0.127
	s1.392-3.037,5.7-4.537c0.016-0.006,0.031-0.011,0.048-0.016c1.022,2.655,1.444,4.88,1.552,5.515
	C18.959,24.063,18,24.269,16.995,24.269z M21.053,23.028c-0.074-0.438-0.461-2.57-1.414-5.188c2.344-0.375,4.375,0.269,4.525,0.318
	C23.842,20.182,22.684,21.928,21.053,23.028z"/>
</svg>
