<?xml version="1.0" encoding="utf-8"?>
<!-- Generator: Adobe Illustrator 15.1.0, SVG Export Plug-In . SVG Version: 6.00 Build 0)  -->
<!DOCTYPE svg PUBLIC "-//W3C//DTD SVG 1.1//EN" "http://www.w3.org/Graphics/SVG/1.1/DTD/svg11.dtd">
<svg version="1.1" id="Layer_1" xmlns="http://www.w3.org/2000/svg" xmlns:xlink="http://www.w3.org/1999/xlink" x="0px" y="0px"
	 width="144px" height="144px" viewBox="0 0 144 144" enable-background="new 0 0 144 144" xml:space="preserve">
<rect x="0.353" fill="#5F6364" width="143.647" height="144"/>
<path fill="#FFFFFF" d="M94.161,35.979H50.101c-7.654,0-13.881,6.242-13.881,13.916v14.701v29.48
	c0,7.673,6.227,13.916,13.881,13.916h44.061c7.654,0,13.882-6.243,13.882-13.916v-29.48V49.895
	C108.043,42.222,101.815,35.979,94.161,35.979z M98.146,44.281l1.587-0.008v1.587V56.48l-12.137,0.037l-0.041-12.204L98.146,44.281z
	 M61.883,64.596c2.297-3.196,6.029-5.288,10.248-5.288s7.951,2.092,10.248,5.288c1.501,2.083,2.396,4.63,2.396,7.388
	c0,6.991-5.675,12.676-12.645,12.676s-12.64-5.685-12.64-12.676C59.491,69.226,60.386,66.679,61.883,64.596z M101.044,94.076
	c0,3.804-3.084,6.9-6.883,6.9H50.101c-3.798,0-6.883-3.097-6.883-6.9v-29.48H53.94c-0.928,2.282-1.448,4.775-1.448,7.388
	c0,10.856,8.809,19.695,19.639,19.695c10.83,0,19.639-8.839,19.639-19.695c0-2.613-0.523-5.105-1.447-7.388h10.722V94.076z"/>
</svg>
