<?xml version="1.0" encoding="utf-8"?>
<!-- Generator: Adobe Illustrator 15.1.0, SVG Export Plug-In . SVG Version: 6.00 Build 0)  -->
<!DOCTYPE svg PUBLIC "-//W3C//DTD SVG 1.1//EN" "http://www.w3.org/Graphics/SVG/1.1/DTD/svg11.dtd">
<svg version="1.1" id="Layer_1" xmlns="http://www.w3.org/2000/svg" xmlns:xlink="http://www.w3.org/1999/xlink" x="0px" y="0px"
	 width="34.016px" height="34.021px" viewBox="0 0 34.016 34.021" enable-background="new 0 0 34.016 34.021" xml:space="preserve">
<rect x="-0.217" y="1" fill="#5F6364" width="34.016" height="34.016"/>
<path fill="#FFFFFF" d="M21.997,9.499H11.563c-1.813,0-3.287,1.475-3.287,3.287v3.473v6.964c0,1.813,1.475,3.287,3.287,3.287h10.434
	c1.813,0,3.287-1.475,3.287-3.287v-6.964v-3.473C25.284,10.974,23.809,9.499,21.997,9.499z M22.94,11.46l0.376-0.002v0.375v2.509
	l-2.874,0.009l-0.01-2.883L22.94,11.46z M14.353,16.259c0.544-0.755,1.428-1.249,2.427-1.249s1.883,0.494,2.427,1.249
	c0.355,0.492,0.567,1.094,0.567,1.745c0,1.651-1.344,2.994-2.994,2.994s-2.993-1.343-2.993-2.994
	C13.787,17.353,13.999,16.751,14.353,16.259z M23.626,23.223c0,0.898-0.73,1.63-1.63,1.63H11.563c-0.899,0-1.63-0.731-1.63-1.63
	v-6.964h2.539c-0.22,0.539-0.343,1.128-0.343,1.745c0,2.564,2.086,4.652,4.65,4.652s4.65-2.088,4.65-4.652
	c0-0.617-0.124-1.206-0.343-1.745h2.539V23.223z"/>
</svg>
