<?xml version="1.0" encoding="utf-8"?>
<!-- Generator: Adobe Illustrator 15.1.0, SVG Export Plug-In . SVG Version: 6.00 Build 0)  -->
<!DOCTYPE svg PUBLIC "-//W3C//DTD SVG 1.1//EN" "http://www.w3.org/Graphics/SVG/1.1/DTD/svg11.dtd">
<svg version="1.1" id="Layer_1" xmlns="http://www.w3.org/2000/svg" xmlns:xlink="http://www.w3.org/1999/xlink" x="0px" y="0px"
	 width="34.016px" height="34.021px" viewBox="0 0 34.016 34.021" enable-background="new 0 0 34.016 34.021" xml:space="preserve">
<rect x="0" fill="#1187C9" width="34.016" height="34.016"/>
<path fill="#FFFFFF" d="M12.234,24.119H8.918V13.508h3.315V24.119z M10.491,12.18h-0.024c-1.2,0-1.978-0.811-1.978-1.838
	c0-1.049,0.801-1.843,2.025-1.843c1.223,0,1.975,0.792,1.999,1.84C12.514,11.366,11.737,12.18,10.491,12.18z M25.498,24.119h-3.76
	v-5.491c0-1.438-0.587-2.418-1.881-2.418c-0.988,0-1.538,0.661-1.795,1.3c-0.096,0.229-0.08,0.547-0.08,0.867v5.742h-3.725
	c0,0,0.048-9.728,0-10.611h3.725v1.665c0.22-0.729,1.409-1.768,3.309-1.768c2.355,0,4.207,1.526,4.207,4.813V24.119z"/>
</svg>
