<?xml version="1.0" encoding="utf-8"?>
<!-- Generator: Adobe Illustrator 15.1.0, SVG Export Plug-In . SVG Version: 6.00 Build 0)  -->
<!DOCTYPE svg PUBLIC "-//W3C//DTD SVG 1.1//EN" "http://www.w3.org/Graphics/SVG/1.1/DTD/svg11.dtd">
<svg version="1.1" id="Layer_1" xmlns="http://www.w3.org/2000/svg" xmlns:xlink="http://www.w3.org/1999/xlink" x="0px" y="0px"
	 width="34.016px" height="34.021px" viewBox="0 0 34.016 34.021" enable-background="new 0 0 34.016 34.021" xml:space="preserve">
<rect x="0" fill="#747979" width="34.016" height="34.021"/>
<path fill-rule="evenodd" clip-rule="evenodd" fill="#FFFFFF" d="M24.321,20.986c-0.398,0.885-0.591,1.279-1.104,2.063
	c-0.717,1.093-1.729,2.454-2.982,2.465c-1.113,0.011-1.399-0.726-2.911-0.717c-1.511,0.009-1.826,0.729-2.94,0.72
	c-1.253-0.012-2.211-1.24-2.929-2.333c-2.006-3.055-2.217-6.641-0.979-8.547c0.88-1.354,2.268-2.146,3.572-2.146
	c1.327,0,2.162,0.728,3.261,0.728c1.065,0,1.715-0.729,3.25-0.729c1.162,0,2.393,0.633,3.269,1.725
	C20.954,15.788,21.419,19.889,24.321,20.986L24.321,20.986z M19.393,11.268c0.558-0.716,0.981-1.729,0.828-2.762
	c-0.912,0.063-1.979,0.644-2.601,1.399c-0.566,0.686-1.032,1.704-0.851,2.694C17.767,12.63,18.796,12.035,19.393,11.268
	L19.393,11.268z"/>
</svg>
