<?xml version="1.0" encoding="utf-8"?>
<!-- Generator: Adobe Illustrator 15.1.0, SVG Export Plug-In . SVG Version: 6.00 Build 0)  -->
<!DOCTYPE svg PUBLIC "-//W3C//DTD SVG 1.1//EN" "http://www.w3.org/Graphics/SVG/1.1/DTD/svg11.dtd">
<svg version="1.1" id="Layer_1" xmlns="http://www.w3.org/2000/svg" xmlns:xlink="http://www.w3.org/1999/xlink" x="0px" y="0px"
	 width="34.016px" height="34.021px" viewBox="0 0 34.016 34.021" enable-background="new 0 0 34.016 34.021" xml:space="preserve">
<path fill="#FFFFFF" d="M25.542,12.555c-0.627,0.278-1.301,0.466-2.008,0.551c0.723-0.433,1.276-1.118,1.537-1.934
	c-0.676,0.4-1.424,0.69-2.221,0.847c-0.637-0.679-1.545-1.104-2.551-1.104c-1.93,0-3.495,1.566-3.495,3.496
	c0,0.274,0.03,0.54,0.09,0.796c-2.905-0.146-5.479-1.536-7.205-3.653c-0.301,0.519-0.473,1.119-0.473,1.76
	c0,1.211,0.617,2.282,1.555,2.909c-0.573-0.018-1.112-0.176-1.584-0.437v0.043c0,1.694,1.205,3.107,2.805,3.428
	c-0.293,0.082-0.602,0.123-0.921,0.123c-0.225,0-0.445-0.021-0.657-0.062c0.444,1.388,1.735,2.399,3.265,2.427
	c-1.196,0.938-2.704,1.496-4.341,1.496c-0.282,0-0.561-0.016-0.834-0.048c1.547,0.991,3.384,1.57,5.358,1.57
	c6.43,0,9.945-5.326,9.945-9.947c0-0.151-0.004-0.303-0.01-0.452C24.481,13.871,25.074,13.256,25.542,12.555"/>
<rect x="0" fill="#F1605C" width="34.016" height="34.021"/>
<path fill="#FFFFFF" d="M17.013,8.461c-4.697,0-8.505,3.808-8.505,8.505c0,3.482,2.094,6.475,5.091,7.79
	c-0.024-0.593-0.004-1.307,0.147-1.953c0.164-0.689,1.094-4.634,1.094-4.634s-0.271-0.544-0.271-1.346
	c0-1.261,0.731-2.202,1.64-2.202c0.773,0,1.147,0.581,1.147,1.277c0,0.777-0.496,1.94-0.751,3.018
	c-0.213,0.902,0.452,1.638,1.342,1.638c1.611,0,2.696-2.068,2.696-4.521c0-1.863-1.256-3.259-3.538-3.259
	c-2.58,0-4.187,1.924-4.187,4.072c0,0.741,0.218,1.265,0.56,1.669c0.158,0.187,0.179,0.261,0.123,0.475
	c-0.041,0.155-0.134,0.533-0.173,0.682c-0.057,0.216-0.231,0.293-0.425,0.213c-1.188-0.485-1.742-1.786-1.742-3.249
	c0-2.416,2.037-5.313,6.078-5.313c3.246,0,5.383,2.351,5.383,4.872c0,3.337-1.854,5.829-4.588,5.829
	c-0.918,0-1.782-0.496-2.077-1.06c0,0-0.494,1.959-0.599,2.338c-0.18,0.655-0.533,1.311-0.856,1.821
	c0.765,0.227,1.573,0.35,2.411,0.35c4.695,0,8.503-3.809,8.503-8.506S21.708,8.461,17.013,8.461"/>
</svg>
