<?xml version="1.0" encoding="utf-8"?>
<!-- Generator: Adobe Illustrator 15.1.0, SVG Export Plug-In . SVG Version: 6.00 Build 0)  -->
<!DOCTYPE svg PUBLIC "-//W3C//DTD SVG 1.1//EN" "http://www.w3.org/Graphics/SVG/1.1/DTD/svg11.dtd">
<svg version="1.1" id="Layer_1" xmlns="http://www.w3.org/2000/svg" xmlns:xlink="http://www.w3.org/1999/xlink" x="0px" y="0px"
	 width="34.016px" height="34.021px" viewBox="0 0 34.016 34.021" enable-background="new 0 0 34.016 34.021" xml:space="preserve">
<rect x="0" y="0.106" fill="#434648" width="34.016" height="34.021"/>
<path fill="#FFFFFF" d="M14.201,24.736c-2.023,0-3.483-1.279-3.483-2.817c0-1.507,1.812-2.762,3.833-2.739
	c0.472,0.005,0.911,0.081,1.311,0.21c1.097,0.764,1.884,1.194,2.106,2.064c0.042,0.177,0.064,0.357,0.064,0.543
	C18.033,23.535,17.042,24.736,14.201,24.736 M14.732,15.72c-1.357-0.041-2.647-1.519-2.881-3.301
	c-0.234-1.782,0.676-3.146,2.033-3.106c1.356,0.041,2.647,1.471,2.881,3.253S16.088,15.761,14.732,15.72 M17.544,18.359
	c-0.476-0.338-1.385-1.157-1.385-1.639c0-0.565,0.16-0.843,1.01-1.508c0.871-0.681,1.488-1.638,1.488-2.751
	c0-1.325-0.59-2.616-1.697-3.043h1.67l1.178-0.852h-5.268c-2.36,0-4.583,1.789-4.583,3.861c0,2.118,1.61,3.828,4.013,3.828
	c0.167,0,0.328-0.004,0.488-0.015c-0.156,0.298-0.269,0.635-0.269,0.982c0,0.589,0.317,1.067,0.718,1.457
	c-0.303,0-0.596,0.009-0.913,0.009c-2.925,0-5.177,1.862-5.177,3.795c0,1.902,2.468,3.093,5.393,3.093
	c3.334,0,5.177-1.893,5.177-3.795C19.387,20.257,18.937,19.343,17.544,18.359 M25.208,15.875h-2.051v-2.051h-1.65v2.051h-2.05v1.65
	h2.05v2.051h1.65v-2.051h2.051V15.875z"/>
</svg>
