<?xml version="1.0" encoding="utf-8"?>
<!-- Generator: Adobe Illustrator 15.1.0, SVG Export Plug-In . SVG Version: 6.00 Build 0)  -->
<!DOCTYPE svg PUBLIC "-//W3C//DTD SVG 1.1//EN" "http://www.w3.org/Graphics/SVG/1.1/DTD/svg11.dtd">
<svg version="1.1" id="Layer_1" xmlns="http://www.w3.org/2000/svg" xmlns:xlink="http://www.w3.org/1999/xlink" x="0px" y="0px"
	 width="34.016px" height="34.021px" viewBox="0 0 34.016 34.021" enable-background="new 0 0 34.016 34.021" xml:space="preserve">
<rect y="0.006" fill="#1597D3" width="34.016" height="34.016"/>
<path fill="#FFFFFF" d="M25.01,18.842c0.123-0.562,0.188-1.144,0.188-1.741c0-4.48-3.631-8.113-8.111-8.113
	c-0.473,0-0.936,0.041-1.388,0.119c-0.725-0.457-1.583-0.723-2.502-0.723c-2.599,0-4.705,2.106-4.705,4.706
	c0,0.868,0.236,1.681,0.646,2.38c-0.108,0.526-0.164,1.072-0.164,1.631c0,4.481,3.631,8.113,8.112,8.113
	c0.508,0,1.004-0.047,1.484-0.136c0.664,0.356,1.42,0.559,2.225,0.559c2.598,0,4.703-2.106,4.703-4.705
	C25.499,20.181,25.323,19.472,25.01,18.842z M21.247,20.979c-0.375,0.531-0.93,0.951-1.648,1.25
	c-0.711,0.296-1.563,0.446-2.534,0.446c-1.166,0-2.142-0.205-2.905-0.609c-0.545-0.294-0.994-0.692-1.336-1.187
	c-0.344-0.496-0.519-0.989-0.519-1.466c0-0.296,0.114-0.554,0.338-0.765c0.222-0.21,0.507-0.315,0.847-0.315
	c0.279,0,0.52,0.083,0.715,0.248c0.187,0.159,0.346,0.394,0.476,0.695c0.144,0.33,0.3,0.607,0.465,0.825
	c0.16,0.212,0.389,0.389,0.681,0.527c0.294,0.139,0.691,0.21,1.178,0.21c0.67,0,1.221-0.144,1.634-0.426
	c0.404-0.275,0.601-0.607,0.601-1.013c0-0.319-0.104-0.571-0.313-0.77c-0.222-0.206-0.513-0.366-0.866-0.478
	c-0.368-0.114-0.869-0.239-1.488-0.369c-0.842-0.18-1.557-0.394-2.126-0.636c-0.582-0.247-1.051-0.591-1.394-1.02
	c-0.348-0.437-0.525-0.983-0.525-1.627c0-0.612,0.185-1.165,0.551-1.641c0.362-0.474,0.893-0.843,1.575-1.094
	c0.673-0.249,1.474-0.375,2.38-0.375c0.724,0,1.36,0.084,1.893,0.249c0.535,0.166,0.985,0.391,1.34,0.668
	c0.356,0.279,0.622,0.576,0.788,0.887c0.168,0.313,0.254,0.624,0.254,0.925c0,0.29-0.111,0.554-0.332,0.783
	c-0.223,0.231-0.504,0.349-0.834,0.349c-0.3,0-0.535-0.074-0.697-0.218c-0.152-0.135-0.311-0.345-0.484-0.646
	c-0.203-0.384-0.447-0.687-0.729-0.9c-0.273-0.208-0.729-0.313-1.355-0.313c-0.581,0-1.054,0.116-1.405,0.348
	c-0.338,0.221-0.503,0.476-0.503,0.777c0,0.185,0.053,0.339,0.163,0.472c0.115,0.142,0.278,0.264,0.483,0.367
	c0.213,0.107,0.434,0.193,0.653,0.254c0.225,0.063,0.604,0.155,1.123,0.275c0.656,0.141,1.26,0.299,1.793,0.47
	c0.541,0.173,1.007,0.385,1.389,0.634c0.387,0.253,0.695,0.577,0.914,0.965c0.219,0.391,0.33,0.871,0.33,1.43
	C21.815,19.836,21.624,20.445,21.247,20.979z"/>
</svg>
