<?xml version="1.0" encoding="utf-8"?>
<!-- Generator: Adobe Illustrator 15.1.0, SVG Export Plug-In . SVG Version: 6.00 Build 0)  -->
<!DOCTYPE svg PUBLIC "-//W3C//DTD SVG 1.1//EN" "http://www.w3.org/Graphics/SVG/1.1/DTD/svg11.dtd">
<svg version="1.1" id="Layer_1" xmlns="http://www.w3.org/2000/svg" xmlns:xlink="http://www.w3.org/1999/xlink" x="0px" y="0px"
	 width="34.016px" height="34.021px" viewBox="0 0 34.016 34.021" enable-background="new 0 0 34.016 34.021" xml:space="preserve">
<rect x="0" y="0.106" fill="#5B8DAA" width="34.016" height="34.021"/>
<path fill="#FFFFFF" d="M17.199,8.612v4.3h4.035v2.67h-4.035v4.361c0,0.987,0.052,1.62,0.156,1.899
	c0.104,0.281,0.298,0.504,0.584,0.672c0.375,0.226,0.805,0.337,1.29,0.337c0.861,0,1.717-0.28,2.569-0.84v2.685
	c-0.728,0.341-1.385,0.581-1.974,0.719c-0.59,0.14-1.227,0.208-1.911,0.208c-0.778,0-1.466-0.099-2.063-0.294
	c-0.597-0.198-1.107-0.477-1.528-0.841c-0.422-0.363-0.716-0.751-0.878-1.16c-0.163-0.409-0.244-1.003-0.244-1.78v-5.966H11.32
	v-2.407c0.67-0.218,1.241-0.529,1.718-0.934c0.476-0.405,0.859-0.892,1.146-1.461c0.288-0.567,0.487-1.291,0.596-2.168H17.199z"/>
</svg>
