<?xml version="1.0" encoding="utf-8"?>
<!-- Generator: Adobe Illustrator 15.1.0, SVG Export Plug-In . SVG Version: 6.00 Build 0)  -->
<!DOCTYPE svg PUBLIC "-//W3C//DTD SVG 1.1//EN" "http://www.w3.org/Graphics/SVG/1.1/DTD/svg11.dtd">
<svg version="1.1" id="Layer_1" xmlns="http://www.w3.org/2000/svg" xmlns:xlink="http://www.w3.org/1999/xlink" x="0px" y="0px"
	 width="34.016px" height="34.021px" viewBox="0 0 34.016 34.021" enable-background="new 0 0 34.016 34.021" xml:space="preserve">
<rect fill="#65CCEF" width="34.016" height="34.021"/>
<path fill="#FFFFFF" d="M25.542,12.555c-0.627,0.278-1.301,0.466-2.008,0.551c0.723-0.433,1.276-1.118,1.537-1.934
	c-0.676,0.4-1.424,0.69-2.221,0.847c-0.637-0.679-1.545-1.104-2.551-1.104c-1.93,0-3.495,1.566-3.495,3.496
	c0,0.274,0.03,0.54,0.09,0.796c-2.905-0.146-5.479-1.536-7.205-3.653c-0.301,0.519-0.473,1.119-0.473,1.76
	c0,1.211,0.617,2.282,1.555,2.909c-0.573-0.018-1.112-0.176-1.584-0.437v0.043c0,1.694,1.205,3.107,2.805,3.428
	c-0.293,0.082-0.602,0.123-0.921,0.123c-0.225,0-0.445-0.021-0.657-0.062c0.444,1.388,1.735,2.399,3.265,2.427
	c-1.196,0.938-2.704,1.496-4.341,1.496c-0.282,0-0.561-0.016-0.834-0.048c1.547,0.991,3.384,1.57,5.358,1.57
	c6.43,0,9.945-5.326,9.945-9.947c0-0.151-0.004-0.303-0.01-0.452C24.481,13.871,25.074,13.256,25.542,12.555"/>
</svg>
