<?xml version="1.0" encoding="utf-8"?>
<!-- Generator: Adobe Illustrator 15.1.0, SVG Export Plug-In . SVG Version: 6.00 Build 0)  -->
<!DOCTYPE svg PUBLIC "-//W3C//DTD SVG 1.1//EN" "http://www.w3.org/Graphics/SVG/1.1/DTD/svg11.dtd">
<svg version="1.1" id="Layer_1" xmlns="http://www.w3.org/2000/svg" xmlns:xlink="http://www.w3.org/1999/xlink" x="0px" y="0px"
	 width="34.016px" height="34.021px" viewBox="0 0 34.016 34.021" enable-background="new 0 0 34.016 34.021" xml:space="preserve">
<rect x="0" fill="#7CCFDB" width="34.016" height="34.021"/>
<path fill="#FFFFFF" d="M25.509,13.459c-0.074,1.654-1.232,3.916-3.466,6.785c-2.313,3.001-4.271,4.5-5.872,4.5
	c-0.99,0-1.829-0.912-2.515-2.743c-0.459-1.679-0.915-3.357-1.373-5.032c-0.51-1.832-1.056-2.746-1.64-2.746
	c-0.127,0-0.57,0.267-1.334,0.801l-0.8-1.03c0.838-0.735,1.664-1.474,2.479-2.209c1.116-0.967,1.955-1.474,2.516-1.526
	c1.319-0.128,2.134,0.774,2.44,2.706c0.327,2.085,0.558,3.382,0.685,3.89c0.382,1.729,0.8,2.591,1.258,2.591
	c0.354,0,0.889-0.558,1.601-1.676c0.712-1.119,1.092-1.97,1.144-2.556c0.102-0.966-0.279-1.446-1.144-1.446
	c-0.406,0-0.826,0.086-1.258,0.267c0.84-2.72,2.44-4.042,4.804-3.965C24.786,10.118,25.612,11.25,25.509,13.459z"/>
</svg>
