<?xml version="1.0" encoding="utf-8"?>
<!-- Generator: Adobe Illustrator 15.1.0, SVG Export Plug-In . SVG Version: 6.00 Build 0)  -->
<!DOCTYPE svg PUBLIC "-//W3C//DTD SVG 1.1//EN" "http://www.w3.org/Graphics/SVG/1.1/DTD/svg11.dtd">
<svg version="1.1" id="Layer_1" xmlns="http://www.w3.org/2000/svg" xmlns:xlink="http://www.w3.org/1999/xlink" x="0px" y="0px"
	 width="34.016px" height="34.021px" viewBox="0 0 34.016 34.021" enable-background="new 0 0 34.016 34.021" xml:space="preserve">
<rect x="0" y="0.187" fill="#4DACDA" width="34.016" height="34.016"/>
<path fill="#FFFFFF" d="M8.492,17.183c0,3.365,1.956,6.276,4.793,7.653L9.229,13.72C8.756,14.778,8.492,15.948,8.492,17.183z
	 M22.738,16.753c0-1.052-0.379-1.78-0.701-2.347c-0.432-0.7-0.835-1.293-0.835-1.995c0-0.781,0.591-1.509,1.429-1.509
	c0.035,0,0.072,0.005,0.109,0.007c-1.514-1.387-3.529-2.233-5.742-2.233c-2.973,0-5.586,1.525-7.106,3.834
	c0.2,0.006,0.387,0.011,0.547,0.011c0.89,0,2.267-0.109,2.267-0.109c0.458-0.025,0.512,0.646,0.053,0.702
	c0,0-0.46,0.054-0.973,0.081l3.098,9.212l1.86-5.582l-1.325-3.63c-0.458-0.027-0.892-0.081-0.892-0.081
	c-0.458-0.027-0.404-0.728,0.055-0.702c0,0,1.403,0.109,2.239,0.109c0.889,0,2.268-0.109,2.268-0.109
	c0.457-0.025,0.511,0.646,0.053,0.702c0,0-0.46,0.054-0.973,0.081l3.073,9.142l0.85-2.833
	C22.521,18.396,22.738,17.481,22.738,16.753z M17.146,17.927l-2.552,7.416c0.761,0.224,1.566,0.346,2.403,0.346
	c0.989,0,1.939-0.172,2.823-0.483c-0.022-0.036-0.044-0.074-0.061-0.116L17.146,17.927z M24.458,13.101
	c0.037,0.271,0.059,0.562,0.059,0.876c0,0.861-0.162,1.832-0.647,3.046l-2.597,7.511C23.8,23.06,25.5,20.32,25.5,17.183
	C25.5,15.703,25.123,14.313,24.458,13.101z"/>
</svg>
