<?xml version="1.0" encoding="utf-8"?>
<!-- Generator: Adobe Illustrator 15.1.0, SVG Export Plug-In . SVG Version: 6.00 Build 0)  -->
<!DOCTYPE svg PUBLIC "-//W3C//DTD SVG 1.1//EN" "http://www.w3.org/Graphics/SVG/1.1/DTD/svg11.dtd">
<svg version="1.1" id="Layer_1" xmlns="http://www.w3.org/2000/svg" xmlns:xlink="http://www.w3.org/1999/xlink" x="0px" y="0px"
	 width="34.016px" height="34.021px" viewBox="0 0 34.016 34.021" enable-background="new 0 0 34.016 34.021" xml:space="preserve">
<rect x="0" y="0.006" fill="#865EA7" width="34.016" height="34.016"/>
<g>
	<path fill="#FFFFFF" d="M22.191,14.438c0.096-0.02,0.234-0.051,0.394-0.085h1.227l0.191-0.281c0.003-0.002,0.011-0.003,0.015-0.003
		l0.475-0.686c-0.006,0-0.018-0.002-0.023-0.002l0.05-0.074h-6.647l0.256,1.046h1.814l-3.053,2.756
		c-0.623-0.86-2.084-2.653-3.102-4.137h2.285v-0.797l0.025-0.175c-0.006-0.002-0.02-0.004-0.025-0.004v-0.071h-7.58v1.047h2.248
		c0.873,0.682,4.209,4.849,4.348,5.265c0.055,0.39,0.105,2.687-0.057,2.86c-0.328,0.347-1.824,0.255-2.186,0.28L12.72,22.09
		c0.659,0.02,2.805-0.054,3.471-0.054c1.314,0,3.616-0.006,3.941,0.019l0.039-0.746c-0.332-0.057-2.143-0.007-2.394-0.063
		c-0.056-0.362-0.116-2.78-0.062-3.03C17.967,17.492,21.775,14.551,22.191,14.438z"/>
	<path fill="#FFFFFF" d="M23.294,20.154l1.02,0.081l1.186-4.583c-0.197-0.007-1.998-0.177-2.232-0.223L23.294,20.154z"/>
	<polygon fill="#FFFFFF" points="23.119,20.889 23.125,22.008 23.64,22.053 24.197,22.095 24.361,20.999 23.773,20.971 	"/>
</g>
</svg>
