<?xml version="1.0" encoding="utf-8"?>
<!-- Generator: Adobe Illustrator 15.1.0, SVG Export Plug-In . SVG Version: 6.00 Build 0)  -->
<!DOCTYPE svg PUBLIC "-//W3C//DTD SVG 1.1//EN" "http://www.w3.org/Graphics/SVG/1.1/DTD/svg11.dtd">
<svg version="1.1" id="Layer_1" xmlns="http://www.w3.org/2000/svg" xmlns:xlink="http://www.w3.org/1999/xlink" x="0px" y="0px"
	 width="34.016px" height="34.021px" viewBox="0 0 34.016 34.021" enable-background="new 0 0 34.016 34.021" xml:space="preserve">
<rect x="0" fill="#ED6C53" width="34.016" height="34.021"/>
<path fill="#FFFFFF" d="M20.494,11.266v3.241c-0.078,0.094-0.171,0.171-0.266,0.231c-0.104,0.061-0.18,0.094-0.248,0.094
	c-0.077,0-0.138-0.025-0.172-0.068c-0.043-0.052-0.061-0.119-0.061-0.223v-3.275h-0.875v3.566c0,0.258,0.053,0.446,0.155,0.575
	s0.258,0.188,0.454,0.188c0.172,0,0.334-0.043,0.514-0.128c0.172-0.095,0.336-0.224,0.498-0.403v0.472h0.875v-4.271H20.494z
	 M17.828,11.472c-0.232-0.214-0.531-0.317-0.891-0.317c-0.396,0-0.713,0.104-0.953,0.301c-0.231,0.196-0.35,0.453-0.35,0.788v2.213
	c0,0.368,0.118,0.65,0.342,0.866c0.23,0.214,0.54,0.325,0.917,0.325c0.394,0,0.712-0.103,0.935-0.317
	c0.231-0.206,0.343-0.489,0.343-0.857V12.27C18.17,11.943,18.05,11.678,17.828,11.472z M17.279,14.541
	c0,0.111-0.034,0.197-0.104,0.266c-0.068,0.069-0.162,0.103-0.282,0.103c-0.111,0-0.205-0.033-0.267-0.103
	c-0.059-0.06-0.094-0.154-0.094-0.266v-2.332c0-0.094,0.035-0.171,0.104-0.223c0.061-0.061,0.154-0.086,0.257-0.086
	c0.111,0,0.206,0.025,0.282,0.086c0.069,0.052,0.104,0.129,0.104,0.223V14.541z M14.57,9.748l-0.608,2.315h-0.069l-0.634-2.315
	h-0.994l1.174,3.498v2.29h0.985v-2.401l1.14-3.387H14.57z M21.385,19.943c0.052,0.068,0.077,0.188,0.077,0.342v0.395h-0.678v-0.395
	c0-0.154,0.018-0.273,0.078-0.342c0.051-0.069,0.137-0.112,0.266-0.112C21.248,19.831,21.333,19.874,21.385,19.943z M18.693,19.926
	c-0.051-0.069-0.137-0.104-0.24-0.104c-0.051,0-0.111,0.009-0.162,0.034c-0.052,0.026-0.111,0.069-0.162,0.121v2.417
	c0.059,0.061,0.128,0.112,0.188,0.138c0.061,0.025,0.12,0.043,0.181,0.043c0.103,0,0.171-0.025,0.214-0.086
	c0.043-0.051,0.068-0.138,0.068-0.266v-2.006C18.779,20.088,18.753,19.994,18.693,19.926z M18.693,19.926
	c-0.051-0.069-0.137-0.104-0.24-0.104c-0.051,0-0.111,0.009-0.162,0.034c-0.052,0.026-0.111,0.069-0.162,0.121v2.417
	c0.059,0.061,0.128,0.112,0.188,0.138c0.061,0.025,0.12,0.043,0.181,0.043c0.103,0,0.171-0.025,0.214-0.086
	c0.043-0.051,0.068-0.138,0.068-0.266v-2.006C18.779,20.088,18.753,19.994,18.693,19.926z M23.091,16.934H10.936
	c-1.33,0-2.426,1.098-2.426,2.435v2.479c0,1.337,1.097,2.427,2.426,2.427h12.155c1.328,0,2.426-1.09,2.426-2.427v-2.479
	C25.517,18.031,24.419,16.934,23.091,16.934z M14.21,18.64h-0.909v4.492h-0.875V18.64h-0.9v-0.763h2.684V18.64z M16.764,23.132
	h-0.78v-0.428c-0.137,0.162-0.291,0.282-0.445,0.359c-0.154,0.086-0.301,0.129-0.446,0.129c-0.179,0-0.316-0.061-0.411-0.181
	c-0.086-0.111-0.129-0.282-0.129-0.514v-3.25h0.771v2.984c0,0.085,0.018,0.154,0.053,0.196c0.025,0.044,0.085,0.061,0.154,0.061
	c0.059,0,0.129-0.025,0.215-0.086c0.094-0.052,0.171-0.12,0.238-0.206v-2.949h0.78V23.132z M19.576,22.326
	c0,0.274-0.06,0.488-0.18,0.635c-0.119,0.146-0.3,0.223-0.53,0.223c-0.155,0-0.284-0.026-0.404-0.085
	c-0.12-0.062-0.23-0.146-0.333-0.267v0.3h-0.781v-5.255h0.781v1.688c0.103-0.111,0.213-0.205,0.333-0.266s0.24-0.094,0.36-0.094
	c0.24,0,0.429,0.085,0.557,0.248c0.13,0.163,0.197,0.402,0.197,0.721V22.326z M22.269,21.289h-1.484v0.729
	c0,0.206,0.018,0.344,0.069,0.421c0.051,0.085,0.146,0.119,0.266,0.119c0.128,0,0.214-0.034,0.266-0.103
	c0.052-0.061,0.077-0.215,0.077-0.438v-0.18h0.807v0.196c0,0.404-0.104,0.703-0.301,0.9c-0.188,0.206-0.48,0.301-0.865,0.301
	c-0.353,0-0.627-0.104-0.824-0.317c-0.196-0.214-0.299-0.506-0.299-0.884v-1.74c0-0.334,0.111-0.608,0.334-0.822
	c0.214-0.207,0.496-0.317,0.848-0.317c0.353,0,0.627,0.103,0.814,0.3c0.189,0.197,0.293,0.472,0.293,0.84V21.289z M18.453,19.822
	c-0.051,0-0.111,0.009-0.162,0.034c-0.052,0.026-0.111,0.069-0.162,0.121v2.417c0.059,0.061,0.128,0.112,0.188,0.138
	c0.061,0.025,0.12,0.043,0.181,0.043c0.103,0,0.171-0.025,0.214-0.086c0.043-0.051,0.068-0.138,0.068-0.266v-2.006
	c0-0.13-0.025-0.224-0.086-0.292C18.642,19.856,18.556,19.822,18.453,19.822z M18.693,19.926c-0.051-0.069-0.137-0.104-0.24-0.104
	c-0.051,0-0.111,0.009-0.162,0.034c-0.052,0.026-0.111,0.069-0.162,0.121v2.417c0.059,0.061,0.128,0.112,0.188,0.138
	c0.061,0.025,0.12,0.043,0.181,0.043c0.103,0,0.171-0.025,0.214-0.086c0.043-0.051,0.068-0.138,0.068-0.266v-2.006
	C18.779,20.088,18.753,19.994,18.693,19.926z M18.693,19.926c-0.051-0.069-0.137-0.104-0.24-0.104c-0.051,0-0.111,0.009-0.162,0.034
	c-0.052,0.026-0.111,0.069-0.162,0.121v2.417c0.059,0.061,0.128,0.112,0.188,0.138c0.061,0.025,0.12,0.043,0.181,0.043
	c0.103,0,0.171-0.025,0.214-0.086c0.043-0.051,0.068-0.138,0.068-0.266v-2.006C18.779,20.088,18.753,19.994,18.693,19.926z"/>
</svg>
