<?xml version="1.0" encoding="UTF-8" standalone="no"?>
<!-- Created with Inkscape (http://www.inkscape.org/) -->
<svg xmlns:rdf="http://www.w3.org/1999/02/22-rdf-syntax-ns#" xmlns="http://www.w3.org/2000/svg" height="55.3" width="40.1" version="1.1" xmlns:cc="http://creativecommons.org/ns#" xmlns:xlink="http://www.w3.org/1999/xlink" xmlns:dc="http://purl.org/dc/elements/1.1/">
<defs></defs>
<metadata>
<rdf:RDF>
<cc:Work rdf:about="">
<dc:format>image/svg+xml</dc:format>
<dc:title/>
<dc:type rdf:resource="http://purl.org/dc/dcmitype/StillImage"/>
</cc:Work>
</rdf:RDF>
</metadata>
<path fill="#1f1f1f" d="M29.9,0.14,10.7,0c-9.25,0.7-10.7,12.1-10.7,12.1l0.166,34.6,3.02-0.105-0.007,5s-0.774,3.13,2.36,3.19c3.13,0.0597,3.36-3.18,3.36-3.18l0.393-4.78,21.5,0.914,0.486,5.39,2.14,2.15c2.14,0.003,2.86-2.14,2.86-2.14l0.779-5.99,2.91-0.27,0.0581-37.2c-0.2-8.29-10.2-9.46-10.2-9.46m-22.1,39c-1.41,0.9-3.34,0.5-4.31-1-0.97-1.4-0.61-3.4,0.8-4.3,1.41-0.939,3.34-0.517,4.31,0.943,0.969,1.46,0.61,3.4-0.803,4.34m28.2,0.319c-1.41,0.939-3.34,0.518-4.31-0.94s-0.61-3.4,0.803-4.34c1.41-0.939,3.34-0.517,4.31,0.943,0.969,1.46,0.609,3.4-0.804,4.34m-1.9-13.9-27.9,0,0.24-13.3,27.7-0.2,0,13.5zm-2.2-20.4c-0.0575,1.7-2.48,1.65-2.48,1.65l-18.5-0.31s-2.31,0.82-2.14-1.43c0.169-2.25,2.31-1.54,2.31-1.54l18.4-0.13c0.00083-0.00054,2.42,0.0584,2.36,1.76"/>
</svg>
