<?xml version="1.0" encoding="UTF-8" standalone="no"?>
<!-- Created with Inkscape (http://www.inkscape.org/) -->
<svg xmlns:rdf="http://www.w3.org/1999/02/22-rdf-syntax-ns#" xmlns="http://www.w3.org/2000/svg" height="1052.4" width="744.09" version="1.1" xmlns:cc="http://creativecommons.org/ns#" xmlns:xlink="http://www.w3.org/1999/xlink" xmlns:dc="http://purl.org/dc/elements/1.1/">
<defs>
<clipPath id="SVGID_4_">
<use overflow="visible" xlink:href="#SVGID_3_"/>
</clipPath>
</defs>
<metadata>
<rdf:RDF>
<cc:Work rdf:about="">
<dc:format>image/svg+xml</dc:format>
<dc:title/>
</cc:Work>
</rdf:RDF>
</metadata>
<path d="m605.06,165.91-15.854-10.702c-8.125-4.558-15.657,4.162-15.657,4.162l-19.026,28.936,2.576,1.585-2.774,4.162s-2.378,2.18,0.198,3.964c2.576,1.783,4.559-0.793,4.559-0.793l2.973-3.765,17.44,12.684-2.576,4.756s-1.189,1.784,0.595,2.973c1.785,1.189,3.567-0.199,3.567-0.199l3.964-4.558,2.576,1.387,20.611-30.917c4.557-7.135-3.172-13.675-3.172-13.675m-39.933,20.216c-1.697,0-3.072-1.42-3.072-3.171,0-1.752,1.375-3.172,3.072-3.172,1.696,0,3.071,1.42,3.071,3.172,0,1.751-1.375,3.171-3.071,3.171m23.286,15.854c-1.697,0-3.072-1.419-3.072-3.17,0-1.752,1.375-3.172,3.072-3.172,1.696,0,3.071,1.42,3.071,3.172,0,1.751-1.375,3.17-3.071,3.17m6.143-12.685-23.188-15.458,7.531-10.9,23.188,15.062-7.531,11.296zm9.513-18.232c-0.991,1.387-2.973,0-2.973,0l-15.261-10.504s-2.378-0.595-0.99-2.378c1.388-1.784,2.774,0,2.774,0l15.459,10.108c0.001,0,1.982,1.387,0.991,2.774" fill="#006838"/>
</svg>
