<?xml version="1.0" encoding="UTF-8" standalone="no"?>
<!-- Created with Inkscape (http://www.inkscape.org/) -->

<svg
   xmlns:dc="http://purl.org/dc/elements/1.1/"
   xmlns:cc="http://creativecommons.org/ns#"
   xmlns:rdf="http://www.w3.org/1999/02/22-rdf-syntax-ns#"
   xmlns:svg="http://www.w3.org/2000/svg"
   xmlns="http://www.w3.org/2000/svg"
   xmlns:xlink="http://www.w3.org/1999/xlink"
   version="1.1"
   width="400"
   height="400"
   id="sun">
  <metadata
     id="metadata28">
    <rdf:RDF>
      <cc:Work
         rdf:about="">
        <dc:format>image/svg+xml</dc:format>
        <dc:type
           rdf:resource="http://purl.org/dc/dcmitype/StillImage" />
        <dc:title></dc:title>
      </cc:Work>
    </rdf:RDF>
  </metadata>
  <defs
     id="defs4628">
    <radialGradient
       cx="0"
       cy="0"
       r="1"
       fx="0"
       fy="0"
       id="radialGradient70"
       gradientUnits="userSpaceOnUse"
       gradientTransform="matrix(7.6315125,0,0,7.6315125,8.69085,946.74925)"
       spreadMethod="pad">
      <stop
         id="stop72"
         style="stop-color:#f1491c;stop-opacity:1"
         offset="0" />
      <stop
         id="stop74"
         style="stop-color:#fbc708;stop-opacity:1"
         offset="1" />
    </radialGradient>
    <radialGradient
       cx="0"
       cy="0"
       r="1"
       fx="0"
       fy="0"
       id="radialGradient54"
       gradientUnits="userSpaceOnUse"
       gradientTransform="matrix(10.996138,0,0,10.99615,8.720725,946.67375)"
       spreadMethod="pad">
      <stop
         id="stop56"
         style="stop-color:#fadf06;stop-opacity:1"
         offset="0" />
      <stop
         id="stop58"
         style="stop-color:#fff430;stop-opacity:1"
         offset="1" />
    </radialGradient>
    <radialGradient
       cx="0"
       cy="0"
       r="1"
       fx="0"
       fy="0"
       id="radialGradient22"
       gradientUnits="userSpaceOnUse"
       gradientTransform="matrix(129.802,0,0,-129.802,136.81,697.644)"
       spreadMethod="pad">
      <stop
         id="stop24"
         style="stop-color:#f9ad0c;stop-opacity:1"
         offset="0" />
      <stop
         id="stop26"
         style="stop-color:#f25d19;stop-opacity:1"
         offset="1" />
    </radialGradient>
    <radialGradient
       cx="0"
       cy="0"
       r="1"
       fx="0"
       fy="0"
       id="radialGradient38"
       gradientUnits="userSpaceOnUse"
       gradientTransform="matrix(13.479,0,0,13.479,8.673975,946.73813)"
       spreadMethod="pad">
      <stop
         id="stop40"
         style="stop-color:#fde003;stop-opacity:1"
         offset="0" />
      <stop
         id="stop42"
         style="stop-color:#fab10b;stop-opacity:1"
         offset="1" />
    </radialGradient>
    <radialGradient
       cx="0"
       cy="0"
       r="1"
       fx="0"
       fy="0"
       id="radialGradient4585"
       xlink:href="#radialGradient22"
       gradientUnits="userSpaceOnUse"
       gradientTransform="matrix(16.22525,0,0,16.22525,8.6911,946.7495)"
       spreadMethod="pad" />
    <radialGradient
       cx="0"
       cy="0"
       r="1"
       fx="0"
       fy="0"
       id="radialGradient4712"
       xlink:href="#radialGradient22"
       gradientUnits="userSpaceOnUse"
       gradientTransform="matrix(16.22525,0,0,16.22525,10.374394,947.21164)"
       spreadMethod="pad" />
    <radialGradient
       cx="0"
       cy="0"
       r="1"
       fx="0"
       fy="0"
       id="radialGradient4714"
       xlink:href="#radialGradient38"
       gradientUnits="userSpaceOnUse"
       gradientTransform="matrix(13.479,0,0,13.479,10.357264,947.20034)"
       spreadMethod="pad" />
    <radialGradient
       cx="0"
       cy="0"
       r="1"
       fx="0"
       fy="0"
       id="radialGradient4716"
       xlink:href="#radialGradient54"
       gradientUnits="userSpaceOnUse"
       gradientTransform="matrix(10.996138,0,0,10.99615,10.404014,947.13594)"
       spreadMethod="pad" />
    <radialGradient
       cx="0"
       cy="0"
       r="1"
       fx="0"
       fy="0"
       id="radialGradient4718"
       xlink:href="#radialGradient70"
       gradientUnits="userSpaceOnUse"
       gradientTransform="matrix(7.6315125,0,0,7.6315125,10.374144,947.21144)"
       spreadMethod="pad" />
  </defs>
  <g
     transform="matrix(1.229994,0,0,1.2353305,-2.0704418,-0.57096095)"
     id="layer1">
    <path
       d="m 148.14314,69.713433 c 0,0 -1.225,-26.60875 4.38875,-45.79375 5.075,-17.3350002 9.65,-23.45750119 9.65,-23.45750119 -3.0975,33.75125119 15.90875,55.21375119 16.845,69.25125119 7.19625,-15.37875 13.28,-13.04 18.715,-35.56125 -1.17,13.8025 4.74125,31.7625 0,44.92 4.85875,-9.765 18.0675,-18.99125 25.915,-27.0775 15.4425,-15.91 21.8125,-30.945 21.8125,-30.945 -0.755,10.825 -2.6275,19.715 -6.37,32.81625 -3.4975,12.2375 -12.1675,29.01125 -17.025,35.50125 9.35875,-10.295 19.65125,-13.1025 26.20375,-15.91 6.55125,-2.8075 10.2925,-5.61625 10.2925,-5.61625 -13.39,16.9075 -13.1,29.01125 -20.5875,36.498747 18.7175,-10.293747 23.12125,-6.911247 40.8875,-12.103747 18.015,-5.265 25.5575,-12.2275 25.5575,-12.2275 -7.77625,10.82375 -7.5425,13.98125 -21.8125,27.199997 -9.2375,8.5575 -30.59375,21.46375 -30.59375,21.46375 9.06875,-2.7475 15.73625,1.46375 24.51,1.9325 8.76125,0.46875 15.675,-2.8075 15.675,-2.8075 -9.7625,8.9525 -27.08375,19.5925 -35.50625,20.5275 22.64,-1.3425 30.12625,1.465 39.95125,3.805 7.34,1.745 30.23625,9.29625 30.23625,9.29625 -14.9125,-0.0563 -22.28125,2.4 -33.51,7.08 -6.57875,2.74125 -30.1275,8.83 -34.8075,7.89375 17.96125,8.4825 21.6475,17.20125 33.63625,19.0125 -13.39,2.40125 -34.57,7.19 -41.12125,2.51125 22.45875,10.29375 26.7875,16.02375 36.02875,25.85125 7.0575,7.5075 15.4425,17.1975 17.78,19.06875 -15.0275,-7.075 -22.1225,-8.17 -33.9775,-10.2325 -16.14375,-2.8075 -33.87,-11.29 -33.87,-11.29 5.795,6.61125 9.42,16.905 11.76,21.11625 2.33875,4.21125 10.88,11.9325 10.88,11.9325 -16.31375,-5.20375 -28.725,-8.25 -38.0825,-18.0775 11.05875,17.375 10.27875,28.6625 14.68625,43.58 3.04,10.2925 8.24375,19.12125 10.115,21.93 -22.86625,-18.305 -33.2225,-26.67125 -40.2425,-36.965 -7.01875,-10.295 -9.82625,-15.4425 -9.82625,-15.4425 3.33875,12.34375 1.12375,17.03375 1.58375,26.38125 0.4675,9.47375 2.57375,15.55875 1.64,14.155 -6.3175,-9.3575 -11.23125,-12.86625 -14.97375,-19.6525 -4.6175,-8.3675 -6.4975,-16.205 -6.4975,-16.205 1.23125,21.7025 -5.68875,30.86375 -8.41875,41.17875 -4.21125,15.91125 -4.21625,27.13625 -4.21625,29.01 -6.37,-15.8475 -10.4675,-22.05 -13.6825,-40.06375 -1.875,-10.50375 -1.29,-30.125 -1.29,-30.125 -1.6925,8.36625 -3.5625,13.6325 -9.93875,22.755 -3.79125,5.42375 -10.9375,13.3375 -10.9375,13.3375 3.92375,-17.71875 -2.52125,-34.68875 -0.18125,-41.7075 -8.36,12.75375 -10.0575,22.29375 -20.87537,33.7525 -10.822256,11.4625 -25.915506,21.46375 -25.915506,21.46375 13.28225,-23.335 10.00688,-30.35375 12.51713,-42.7 2.94812,-14.5 10.878376,-25.6175 10.878376,-25.6175 -5.49463,7.43 -15.670876,8.1325 -22.338876,11.29125 -7.564,3.5825 -11.63913,10.76375 -11.63913,10.76375 2.5215,-7.89375 5.4975,-24.45 17.13275,-37.02875 -9.53075,8.5425 -22.1635,8.8925 -37.25237,12.69625 -15.49175,3.90375 -28.25688,11.6375 -28.25688,11.6375 15.623,-18.18875 18.30763,-23.095 27.32025,-31.29125 12.86675,-11.69875 25.088,-16.90625 25.088,-16.90625 -20.46837,4.33 -31.63775,0.52875 -39.125,0.52875 18.48338,-6.0825 21.52338,-17.0775 33.041,-22.98875 -18.7705,2.4 -36.13625,-0.345 -48.01325,-3.68125 -11.04437,-3.10375 -20.3022198,-7.08 -20.3022198,-7.08 17.0248498,-0.40625 20.4062198,-1.75 37.6142198,-9.76625 13.68463,-6.37625 31.63775,-5.675 31.63775,-5.675 -11.8115,-3.3325 -15.26175,-5.08625 -21.34425,-9.2975 -6.0825,-4.21125 -13.335,-10.2925 -13.335,-10.2925 17.96,3.335 29.064,-6.14625 41.69875,-1.935 -13.74212,-6.54875 -19.88375,-17.77875 -31.11425,-27.604997 -11.229,-9.8275 -24.10062,-16.84625 -24.10062,-16.84625 23.22412,7.37125 45.50937,3.335 69.2515,21.056247 -9.35788,-8.891247 -8.29788,-23.741247 -22.27975,-32.927497 17.84375,5.44375 31.170366,13.27375 36.785626,20.76 -8.243126,-13.275 -13.223126,-24.02625 -17.367626,-38.19125 -4.212,-14.38875 -8.71838,-29.19 -8.71838,-29.19 14.68463,29.54 36.091376,27.08375 49.949376,50.5375 -1.04875,-5.55625 -1.92625,-8.01125 -2.4525,-16.435 -0.61625,-9.87875 1.23,-22.80875 1.23,-22.80875 3.9225,17.37375 18.07125,25.20625 19.005,35.03125"
       id="path28"
       style="fill:url(#radialGradient4712);fill-opacity:1;fill-rule:nonzero;stroke:none" />
    <path
       d="m 150.95189,85.825933 c 0,0 -0.75875,-38.16125 7.665,-58.515 0,26.67125 16.4925,35.44375 17.84625,58.515 5.945,-12.7025 13.03375,-15.7 17.5975,-29.3875 0.70125,9.12375 1.77875,26.25 -2.1375,37.11875 6.34875,-13.25375 21.56875,-22.785 28.4575,-29.04625 11.58125,-10.52875 15.44125,-18.6 15.44125,-18.6 -7.02,24.56625 -13.335,39.65625 -23.79875,56.151247 7.73,-8.504997 15.93125,-12.422497 21.3425,-14.741247 5.41,-2.31875 9.82625,-4.5625 9.82625,-4.5625 -11.06,13.9675 -11.84125,25.486247 -18.02625,31.672497 12.41,-7.8075 19.54875,-6.93125 34.52125,-10.03 13.57,-2.8075 22.10875,-6.551247 22.10875,-6.551247 -5.26375,6.083747 -8.53875,9.827497 -18.95125,20.002497 -7.4375,7.2725 -26.0825,16.67875 -26.0825,16.67875 8.6525,-1.5875 14.4825,1.11875 19.88375,1.455 7.48625,0.4675 13.335,-0.7025 13.335,-0.7025 -8.065,7.3975 -22.39625,14.71125 -29.35375,15.4825 18.7025,-1.1075 25.44875,0.36625 33.56625,2.29875 6.0625,1.4425 24.565,7.25125 24.565,7.25125 -12.31875,-0.0462 -18.5575,3.255 -27.83375,7.12125 -5.435,2.26625 -24.8875,7.295 -28.7525,6.52125 14.83625,7.0075 17.205,15.27625 27.10625,16.7725 -11.06125,1.985 -27.8775,4.8725 -33.29125,1.0075 18.555,8.50375 22.13125,13.23625 29.76375,21.355 5.83125,6.20125 12.7575,14.20625 14.68875,15.7525 -12.41375,-5.84375 -18.2775,-6.74875 -28.0675,-8.4525 -13.3375,-2.32 -27.98,-9.32625 -27.98,-9.32625 4.7875,5.46125 7.62625,14.555 9.56,18.03375 1.93375,3.4775 7.25125,9.82625 7.25125,9.82625 -13.475,-4.29875 -21.83625,-7.37625 -29.56875,-15.49375 9.9175,16.19625 10.38625,29.29625 12.49125,38.89 1.90125,8.65875 5.23875,14.29125 6.785,16.61125 -18.88875,-15.1225 -26.23375,-23.41625 -32.03,-31.92125 -5.8,-8.505 -8.1175,-12.755 -8.1175,-12.755 2.48,8.88 1.31,15.665 1.07625,22.215 -0.21625,6.035 0.23375,7.72125 0.4675,11.9325 -4.49,-6.81 -7.26125,-11.105 -10.285,-15.54375 -4.44625,-6.52375 -6.33375,-14.74 -6.33375,-14.74 1.0175,17.92875 -5.87375,28.705 -7.71375,34.73 -2.5725,8.4225 -4.67875,22.785 -4.67875,24.33125 -5.26125,-13.09125 -7.25375,-19.6525 -8.89,-30.64875 -1.29875,-8.7175 -1.52375,-28.4125 -1.52375,-28.4125 -1.39875,6.9125 -1.985,11.33375 -5.9625,18.35125 -2.69375,4.75625 -9.8275,13.56875 -9.8275,13.56875 3.24375,-14.63625 -3.5375,-30.76 -1.605,-36.5575 -12.9,14.56625 -10.0925,17.375 -17.2425,27.88125 -7.32913,10.7675 -19.051876,19.205 -19.051876,19.205 9.123126,-20.5875 5.909746,-26.55 7.980996,-36.7475 2.4365,-11.9775 8.98825,-21.16125 8.98825,-21.16125 -4.5395,6.13625 -13.3335,6.17 -18.843246,8.78 -6.248,2.96 -10.76125,6.54875 -10.76125,6.54875 2.0835,-6.51875 6.07625,-17.30875 15.688496,-27.6975 -7.871496,7.055 -19.602496,6.07375 -32.065866,9.215 -12.79788,3.22625 -22.92825,8.65625 -22.92825,8.65625 12.90525,-15.02375 16.0015,-16.85 23.44775,-23.62 10.6285,-9.66375 20.72312,-13.96625 20.72312,-13.96625 -16.90862,3.5775 -26.28712,1.3225 -32.47312,1.3225 14.59475,-5.6525 19.48,-15.96 27.44875,-19.87625 -16.45163,0.92625 -28.38425,0.4575 -39.37988,-1.65 -9.30612,-1.78125 -17.54687,-5.145 -17.54687,-5.145 14.063,-0.33625 14.45312,-3.3 29.01125,-9.125 9.35637,-3.74375 28.689,-5.725 28.689,-5.725 -9.75788,-2.7525 -12.40625,-3.845 -17.69388,-6.9075 -4.44437,-2.575 -12.40037,-8.4225 -12.40037,-8.4225 14.83837,2.75625 25.4565,-5.93125 35.892,-2.45125 -11.352,-5.41 -18.98625,-16.4625 -27.23575,-25.625 -5.27588,-5.86125 -16.14263,-13.334997 -16.14263,-13.334997 15.67575,3.7425 35.35988,4.995 54.973626,19.633747 -7.730496,-7.34625 -5.607376,-17.996247 -14.265126,-28.526247 16.845746,5.61625 21.608876,12.2925 26.248996,18.474997 -6.81,-10.966247 -10.07475,-17.893747 -14.55175,-29.234997 -3.508246,-8.89125 -7.952616,-24.8 -7.952616,-24.8 12.128866,24.40125 30.768996,20.74625 42.216496,40.12 -0.86625,-4.5875 -1.775,-7.66125 -2.20875,-14.6175 -0.51,-8.16125 0.2325,-17.7825 0.2325,-17.7825 3.24,14.35375 15.895,20.805 16.6675,28.92"
       id="path44"
       style="fill:url(#radialGradient4714);fill-opacity:1;fill-rule:nonzero;stroke:none" />
    <path
       d="m 153.22314,98.865933 c 0,0 0.39375,-12.98375 1.5325,-26.635 0.7025,-8.4225 3.86125,-20.705 3.86125,-20.705 3.04,19.88625 14.97375,30.18 15.7725,47.34 5.75125,-12.0125 10.37125,-10.6675 15.46,-23.6525 0,11.23 0.61625,21.0475 -2.63375,30.066247 8.97875,-16.674997 16.92625,-18.642497 22.8725,-23.573747 9.59125,-7.955 9.3575,-7.48625 12.63375,-12.63125 -2.10625,8.1875 -4.44625,15.205 -6.785,20.82 -3.35375,8.0525 -10.765,20.516247 -12.0475,22.439997 6.415,-7.055 12.47125,-8.8175 16.96125,-10.74125 4.4875,-1.924997 7.6025,-3.567497 7.6025,-3.567497 -9.1775,11.586247 -8.5275,19.437497 -13.66,24.569997 12.82875,-7.05625 17.045,-6.875 29.6875,-7.90125 8.65625,-0.70125 17.78,-4.445 17.78,-4.445 -7.72125,7.2525 -11.46375,11.465 -17.07875,15.675 -6.90375,5.17875 -20.76625,13.34875 -20.76625,13.34875 8.335,-1.925 12.4825,0.0875 16.79875,1.32375 5.1375,1.47125 11.22,0.3025 11.22,0.3025 -6.69,6.13625 -19.04125,11.2025 -24.8125,11.8425 15.515,-0.92125 21.58875,-0.11 28.32125,1.4925 5.03125,1.19625 18.48375,5.3825 18.48375,5.3825 -11.69875,0.935 -15.2325,4.5125 -22.92875,7.7175 -4.50875,1.88125 -19.38875,5.29 -22.595,4.6475 12.31,5.815 14.495,13.415 22.71125,14.65625 -9.17875,1.64625 -23.35,3.3025 -27.84125,0.095 15.395,7.05375 18.36,10.9825 24.69,17.7175 4.84,5.14625 10.585,11.785 12.18875,13.06875 -10.29875,-4.84875 -15.165,-5.6 -23.2875,-7.01375 -11.065,-1.92375 -23.2125,-7.7375 -23.2125,-7.7375 3.9725,4.53125 6.465,9.01875 8.05875,14.4725 0.9275,3.17 5.18875,10.28 5.18875,10.28 -11.18,-3.56625 -17.41625,-7.75625 -23.83125,-14.4925 7.5775,11.9075 5.605,23.39875 8.62625,33.62125 2.08375,7.05375 3.63,10.475 4.9125,12.39875 -18.01375,-14.505 -20.82375,-21.29125 -25.50125,-29.245 -4.33,-7.36125 -5.35375,-7.79375 -5.35375,-7.79375 1.84375,5.68875 0.6725,12.70625 0.44125,17.15125 -0.27125,5.145 0,7.2525 0.23125,10.99625 -3.725,-5.65 -7.485,-10.5275 -9.825,-16.3775 -2.4325,-6.08125 -3.35375,-8.56375 -3.35375,-8.56375 0.545,13.47625 -4.505,21.22625 -7.64125,29.38625 -3.51,9.125 -3.97875,15.7975 -3.97875,17.08 -3.275,-8.88875 -4.815,-14.18875 -6.08375,-25.97 -0.7825,-7.27 -1.2175,-20.49625 -1.2175,-20.49625 -1.16,5.73375 -0.7125,6.92625 -5.15875,15.115 -2.16125,3.98625 -7.37,10.1775 -7.37,10.1775 2.69125,-12.14375 -3.505,-24.33 -1.90125,-29.14 -5.72875,8.74 -11.02375,14.51625 -15.93625,19.19625 -9.23287,8.79125 -12.86762,18.25 -12.86762,18.25 1.63862,-14.97375 0.70162,-13.1025 3.50925,-24.3325 3.36087,-13.4375 9.26087,-22.09375 9.26087,-22.09375 -3.765,5.0925 -11.47525,5.4225 -16.046,7.58875 -5.18312,2.45625 -8.832996,5.615 -8.832996,5.615 1.727996,-5.41 5.358876,-14.845 13.333496,-23.465 -6.53125,5.85375 -15.450746,6.16125 -26.023876,7.55375 -8.89025,1.17125 -18.71687,5.85 -18.71687,5.85 10.70612,-12.4625 12.39062,-12.55625 18.56837,-18.17125 8.81788,-8.0175 17.192876,-11.59 17.192876,-11.59 -14.027376,2.97125 -21.856876,0.69125 -26.990246,0.69125 12.10887,-4.68875 16.21187,-12.83375 22.81987,-16.08125 -12.86237,1.645 -24.0205,-0.1225 -32.293,-1.875 -7.72075,-1.63625 -12.63287,-3.5075 -12.63287,-3.5075 7.48587,0 13.56837,-4.4475 23.88675,-8.6875 9.56987,-3.9325 21.682616,-3.88875 21.682616,-3.88875 -8.095246,-2.28375 -9.114246,-2.78875 -13.283616,-5.675 -3.55713,-2.46125 -5.84775,-5.14625 -10.52788,-7.485 13.56838,1.16875 19.96388,-4.48 28.621626,-1.5925 -9.416996,-4.4875 -15.558626,-14.3875 -22.072246,-22.27125 -4.44388,-5.38125 -12.399,-10.76375 -12.399,-10.76375 15.9175,5.05125 27.81837,4.8575 44.092246,17.0025 -6.4145,-6.09625 -6.95112,-14.95375 -13.50338,-24.312497 11.93263,4.912497 18.30913,10.352497 23.44538,15.973747 -2.56375,-8.89625 -7.78625,-15.149997 -12.62462,-25.741247 -3.74163,-8.1875 -6.31588,-18.015 -6.31588,-18.015 12.633,19.6525 25.503,18.0125 35.293,32.211247 -0.71625,-3.806247 -1.57375,-6.314997 -1.8375,-12.092497 -0.23375,-5.1475 -0.76,-14.095 -0.76,-14.095 2.6875,11.90875 14.145,16.5675 14.78625,23.30125"
       id="path60"
       style="fill:url(#radialGradient4716);fill-opacity:1;fill-rule:nonzero;stroke:none" />
    <path
       d="m 240.59939,162.35968 c 0,42.15 -34.16375,76.315 -76.3125,76.315 -42.1475,0 -76.317496,-34.165 -76.317496,-76.315 0,-42.1475 34.169996,-76.313747 76.317496,-76.314997 42.14875,0 76.3125,34.167497 76.3125,76.314997"
       id="path76"
       style="fill:url(#radialGradient4718);fill-opacity:1;fill-rule:nonzero;stroke:none" />
  </g>
</svg>
