<?xml version="1.0" encoding="utf-8"?>
<!-- Generator: Adobe Illustrator 15.1.0, SVG Export Plug-In . SVG Version: 6.00 Build 0)  -->
<!DOCTYPE svg PUBLIC "-//W3C//DTD SVG 1.1//EN" "http://www.w3.org/Graphics/SVG/1.1/DTD/svg11.dtd">
<svg version="1.1" id="Layer_1" xmlns="http://www.w3.org/2000/svg" xmlns:xlink="http://www.w3.org/1999/xlink" x="0px" y="0px"
	 width="25.615px" height="64.614px" viewBox="0 0 25.615 64.614" enable-background="new 0 0 25.615 64.614" xml:space="preserve">
<path fill="#393E98" d="M21.397,55.258c0.135-1.58,0.867-2.854-0.111-4.691c-0.428-0.96-1.501-1.438-2.318-2.042
	c-0.828-0.621-1.378-1.188-1.133-2.366c0.369-1.707,1.905-2.262,3.639-2.861c1.688-0.584,3.571-1.207,4.039-3.291
	c0.065-0.301,0.102-0.627,0.104-0.982c-0.083-3.26-3.383-5.238-6.518-6.169c1.521-1.25,3.191-3.693,4.682-8.308
	c0,0,4.041-17.366-4.67-23.525C15.588-1.47,8.104,1.379,8.104,1.379S-4.817,9.458,1.972,25.308c0,0,3.188,6.916,12.313,8.284
	c0,0,1.835,1.195,4.169-0.272c3.171,0.828,6.527,2.812,6.531,5.706c-0.002,0.313-0.032,0.594-0.088,0.846
	c-0.362,1.686-1.897,2.234-3.631,2.832c-1.688,0.584-3.574,1.221-4.045,3.32c-0.34,1.477,0.496,2.396,1.377,3.01
	c0.895,0.629,1.854,1.135,2.118,1.805c0.854,1.59,0.229,2.586,0.054,4.363c-0.278,3.211,1.193,5.584,0.549,8.418
	c-0.057,0.258-0.131,0.521-0.223,0.791l0.594,0.203c0.1-0.293,0.181-0.576,0.242-0.859C22.604,60.62,21.103,58.211,21.397,55.258
	 M7.081,13.794c-1.128-0.249-1.66-2.188-1.187-4.332s1.771-3.68,2.898-3.432c1.128,0.249,1.66,2.189,1.187,4.333
	C9.507,12.507,8.209,14.043,7.081,13.794"/>
</svg>
