<?xml version="1.0" encoding="utf-8"?>
<!-- Generator: Adobe Illustrator 15.1.0, SVG Export Plug-In . SVG Version: 6.00 Build 0)  -->
<!DOCTYPE svg PUBLIC "-//W3C//DTD SVG 1.1//EN" "http://www.w3.org/Graphics/SVG/1.1/DTD/svg11.dtd">
<svg version="1.1" id="Layer_1" xmlns="http://www.w3.org/2000/svg" xmlns:xlink="http://www.w3.org/1999/xlink" x="0px" y="0px"
	 width="68.578px" height="68.578px" viewBox="0 0 68.578 68.578" enable-background="new 0 0 68.578 68.578" xml:space="preserve">
<path fill="#393E98" d="M34.289,0C15.352,0,0,15.352,0,34.289c0,18.423,14.531,33.449,32.756,34.25l1.532,0.039
	c18.937,0,34.288-15.352,34.288-34.29C68.578,15.352,53.225,0,34.289,0 M34.509,1.883c-7.718,6.91-9.168,29.332-9.168,29.332
	c-4.478-1.365-8.619,4.521-8.619,4.521C9.554,33.153,3.699,20.969,3.699,20.969C13.67,0.204,34.509,1.883,34.509,1.883
	 M34.289,41.146c0,4.953-4.016,8.969-8.968,8.969c-4.952,0-8.968-4.016-8.968-8.969c0-4.952,4.016-8.968,8.968-8.968
	C30.273,32.178,34.289,36.194,34.289,41.146 M3.86,47.726c4.359,0.872,12.208-2.615,12.208-2.615
	c1.961,6.104,9.632,6.563,9.632,6.563c2.657,14.41,7.58,15.953,7.58,15.953C10.4,66.474,3.86,47.726,3.86,47.726 M34.219,46.203
	c3.109-4.576,0.596-9.377,0.596-9.377c9.374-0.654,28.597-16.333,28.597-16.333c8.682,14.153-0.031,29.951-0.031,29.951
	C52.269,55.777,34.219,46.203,34.219,46.203"/>
</svg>
