<?xml version="1.0" encoding="utf-8"?>
<!-- Generator: Adobe Illustrator 15.1.0, SVG Export Plug-In . SVG Version: 6.00 Build 0)  -->
<!DOCTYPE svg PUBLIC "-//W3C//DTD SVG 1.1//EN" "http://www.w3.org/Graphics/SVG/1.1/DTD/svg11.dtd">
<svg version="1.1" id="Layer_1" xmlns="http://www.w3.org/2000/svg" xmlns:xlink="http://www.w3.org/1999/xlink" x="0px" y="0px"
	 width="67.836px" height="72.191px" viewBox="0 0 67.836 72.191" enable-background="new 0 0 67.836 72.191" xml:space="preserve">
<path fill="#393E98" d="M43.359,15.386c2.289-0.159,3.908-0.988,6.645-0.7c5.616,11.521,13.432,20.836,17.833,33.571
	c-1.599,2.597-4.262,4.522-7.345,6.29c-2.745,1.576-6.994,4.28-9.787,3.848c-3.135-0.482-5.479-6.347-6.995-9.093
	c-2.187-3.95-3.881-7.104-5.595-10.488c-1.346,1.104-3.367,1.529-4.546,2.797c0.442,3.995,2.408,7.007,4.546,10.488
	c1.63,2.66,5.507,6.802,4.896,10.144c-0.5,2.715-5.709,5.26-8.043,6.642c-3.465,2.056-6.796,3.865-10.841,3.148
	c-6.784-10.001-12.113-21.453-18.532-31.82c1.292-0.646,0.682-1.021,0.698-2.798c0.758-1.339,2.355-1.84,3.499-2.797
	C9.375,27.341,0.986,28.038,0,21.331c4.459-3.469,9.821-6.034,15.036-8.742c4.639,3.246,0.468,13.753,6.294,15.035
	c4.372,0.963,7.016-4.473,10.841-5.593c1.201-5.858-11.027-8.108-10.142-12.94c0.325-1.765,11.936-8.046,13.987-8.393
	c0.051-0.011,0.748-0.69,0.701-0.699c1.021,0.146,2.557,2.274,2.797,3.147C41.04,8.681,38.145,12.271,43.359,15.386 M34.968,31.47
	c-0.718-3.542-9.623-0.855-7.344,4.198C30.84,36.658,35.566,34.43,34.968,31.47"/>
</svg>
