<?xml version="1.0" encoding="utf-8"?>
<!-- Generator: Adobe Illustrator 15.1.0, SVG Export Plug-In . SVG Version: 6.00 Build 0)  -->
<!DOCTYPE svg PUBLIC "-//W3C//DTD SVG 1.1//EN" "http://www.w3.org/Graphics/SVG/1.1/DTD/svg11.dtd">
<svg version="1.1" id="Layer_1" xmlns="http://www.w3.org/2000/svg" xmlns:xlink="http://www.w3.org/1999/xlink" x="0px" y="0px"
	 width="43.879px" height="64.537px" viewBox="0 0 43.879 64.537" enable-background="new 0 0 43.879 64.537" xml:space="preserve">
<path fill="#393E98" d="M43.616,63.531c-6.97,0.477-14.242,0.681-21.447,0.81c-7.203,0.127-14.455,0.518-21.42-0.361
	c-0.688-20.674-1.03-41.542-0.465-62.92c13.084-0.845,27.753-0.734,40.68-1.057c3.685-0.093,2.317,3.641,2.353,7.435
	C43.475,25.271,44.29,46.002,43.616,63.531 M8.335,9.194c0.047,3.587-0.327,7.412,0.268,10.687
	c8.786-0.095,17.745,0.115,26.131-0.684c-0.541-3.384,0.49-7.655-0.539-10.764C25.57,8.683,16.63,8.365,8.335,9.194 M31.398,27.997
	c0.135,1.744-0.883,2.723,0.105,3.861c0.943-0.099,2.055,0.098,2.965-0.059c0.316-1.486,0.481-2.886-0.105-3.862
	C33.417,28.029,32.465,28.11,31.398,27.997 M19.544,28.234c0.344,1.623,0.037,2.203,0.104,3.86c1.598,0.247,2.92,0.003,4.013-0.65
	c-0.005-0.814,0.606-2.813-0.804-3.466C21.863,28.256,20.619,28.095,19.544,28.234 M8.659,28.152
	c-0.012,1.824-0.459,2.481,0.104,3.862c1.535,0.81,2.183,0.05,3.239,0.017C13.348,28.584,11.529,27.741,8.659,28.152 M31.363,39.78
	c-0.164,1.244,0.146,2.223-0.092,3.51c1.562,0.295,2.332,0.623,3.588-0.18c-0.16-0.988-0.293-1.988,0.017-3.238
	C33.583,39.625,32.486,39.724,31.363,39.78 M20.129,39.894c-0.27,1.307-0.013,2.313-0.092,3.512c1.113,0.34,2.227,0.678,3.085,0.564
	C25.104,41.283,23.016,38.837,20.129,39.894 M8.896,40.01c-0.331,1.339-0.21,2.425-0.093,3.511c1.326,0.969,2.517,0.396,3.587-0.181
	c-0.036-1.056-0.29-1.989,0.018-3.237C11.005,39.66,10.076,40.058,8.896,40.01 M31.678,51.362c-0.586,1.561,0.01,2.453-0.17,3.785
	c1.1,0.041,2.307,0.275,3.237,0.017c0.079-1.351,0.222-2.737-0.104-3.86C33.751,51.498,32.756,51.506,31.678,51.362 M20.017,51.949
	c0.448,0.976-0.323,2.642,0.53,3.39c1.064-0.154,2.38,0.128,3.314-0.257c-0.396-1.082,0.306-2.785-0.452-3.662
	C22.431,51.868,20.765,51.097,20.017,51.949 M8.859,51.791c-0.165,1.245,0.146,2.224-0.093,3.513
	c1.25,0.172,2.347,0.071,3.511,0.092c0.182-1.408,0.323-2.795-0.104-3.86C11.114,51.702,9.87,51.54,8.859,51.791"/>
</svg>
