<?xml version="1.0" encoding="utf-8"?>
<!-- Generator: Adobe Illustrator 15.1.0, SVG Export Plug-In . SVG Version: 6.00 Build 0)  -->
<!DOCTYPE svg PUBLIC "-//W3C//DTD SVG 1.1//EN" "http://www.w3.org/Graphics/SVG/1.1/DTD/svg11.dtd">
<svg version="1.1" id="Layer_1" xmlns="http://www.w3.org/2000/svg" xmlns:xlink="http://www.w3.org/1999/xlink" x="0px" y="0px"
	 width="69.764px" height="51.09px" viewBox="0 0 69.764 51.09" enable-background="new 0 0 69.764 51.09" xml:space="preserve">
<path fill="#393E98" d="M53.749,27.07c-1.033-2.311-2.303-4.387-4.047-5.988c-2.938-0.134-5.349,0.263-8.095,0.323
	c-1.923,2.175,0.17,6.705-1.943,8.58c-1.687,1.498-5.288,0.404-7.607,0c0.24-1.484,2.505-0.947,3.397-1.78
	c-0.199-1.3-0.028-4.256-0.322-5.99c-1.225,0.671-1.043,2.333-1.619,3.399c-0.984,1.821-2.525,2.739-5.99,2.43
	c0.438-1.41,2.627-2.437,2.104-5.344c-0.825-0.336-1.951,0.421-3.236,0.163c-0.078,3.674-3.929,7.801-8.419,5.504
	c0.49-2.719,5.877-2,3.886-6.152c-2.164-0.965-4.136-2.206-5.99-3.563c-1.832-1.339-3.885-2.373-5.504-3.885
	C7.69,12.272,6.275,8.681,3.237,6.511C2.056,6.462,1.258,6.797,0,6.673c0.535-3.814,5.055-3.282,6.961-2.429
	c3.716,1.663,7.422,9.112,12.628,9.228c2.27,0.05,4.757-1.721,6.801-3.076C32.191,6.548,36.509,0.58,45.654,0.035
	c7.541-0.449,12.886,3.572,16.514,7.124c4.612,4.515,8.399,10.053,7.447,19.103c-0.723,6.856-5.123,10.965-10.848,12.79
	c-10.855,3.466-25.938-2.478-36.75,1.296c-2.121,0.739-5.218,1.904-5.344,3.399c-0.226,2.681,5.027,3.543,7.286,4.209
	c3.143,0.928,5.855,1.839,8.257,3.076c-5.343,0.333-12.766-0.808-16.352-2.753c-2.47-1.34-4.55-4.801-2.105-7.934
	c8.107-10.381,34.869-0.21,45.979-6.961c5.721-3.476,2.424-11.956-3.724-12.789c-0.139,0.029-0.153-0.064-0.162-0.163
	c1.501,2.329,4.854,8.941-0.972,9.713c-1.188,0.158-3.389,0.086-3.562-0.81C51.034,27.854,53.436,28.332,53.749,27.07"/>
</svg>
