<?xml version="1.0" encoding="utf-8"?>
<!-- Generator: Adobe Illustrator 15.1.0, SVG Export Plug-In . SVG Version: 6.00 Build 0)  -->
<!DOCTYPE svg PUBLIC "-//W3C//DTD SVG 1.1//EN" "http://www.w3.org/Graphics/SVG/1.1/DTD/svg11.dtd">
<svg version="1.1" id="Layer_1" xmlns="http://www.w3.org/2000/svg" xmlns:xlink="http://www.w3.org/1999/xlink" x="0px" y="0px"
	 width="53.947px" height="71.136px" viewBox="0 0 53.947 71.136" enable-background="new 0 0 53.947 71.136" xml:space="preserve">
<path fill="#393E98" d="M18.712,0.501c1.047-0.004,2.254,0.148,2.763-0.395c3.083-0.714,3.514,2.26,5.521,5.522
	c3.561,5.783,8.962,12.363,12.622,16.961c5.949,7.475,15.549,16.509,14.2,28.797c-1.29,11.789-16.323,20.254-30.768,19.726
	c-7.771-0.288-16.286-4.677-19.723-9.075c-2.813-3.604-3.756-8.341-3.155-14.201C2.029,29.724,15.691,17.137,18.712,0.501
	 M40.802,46.653c-1.08,7.601-9.834,7.522-11.439,14.597c9.966,1.521,16.069-4.158,16.566-13.414
	C43.852,47.811,43.034,46.524,40.802,46.653"/>
</svg>
