<?xml version="1.0" encoding="utf-8"?>
<!-- Generator: Adobe Illustrator 15.1.0, SVG Export Plug-In . SVG Version: 6.00 Build 0)  -->
<!DOCTYPE svg PUBLIC "-//W3C//DTD SVG 1.1//EN" "http://www.w3.org/Graphics/SVG/1.1/DTD/svg11.dtd">
<svg version="1.1" id="Layer_1" xmlns="http://www.w3.org/2000/svg" xmlns:xlink="http://www.w3.org/1999/xlink" x="0px" y="0px"
	 width="60.354px" height="39.371px" viewBox="0 0 60.354 39.371" enable-background="new 0 0 60.354 39.371" xml:space="preserve">
<path fill="#393E98" d="M57.037,0.003L2.972,0c0,0-2.53-0.076-2.972,2.091L0.091,36.52c0,0,0.119,2.852,5.671,2.852l51.063-0.372
	c0,0,3.391,1.017,3.352-3.636l0.001-32.585C60.177,2.777,61.475,0.093,57.037,0.003 M41.354,18.994l11.73,11.895l-2.201,1.918
	L38.642,21.514l-8.634,6.979l-7.314-6.53L9.212,33.482l-1.314-1.688l12.795-11.691L7.804,7.742l2.499-2.389l19.88,18.359
	l21.9-18.373l1.401,2.074L41.354,18.994z"/>
</svg>
