<?xml version="1.0" encoding="utf-8"?>
<!-- Generator: Adobe Illustrator 15.1.0, SVG Export Plug-In . SVG Version: 6.00 Build 0)  -->
<!DOCTYPE svg PUBLIC "-//W3C//DTD SVG 1.1//EN" "http://www.w3.org/Graphics/SVG/1.1/DTD/svg11.dtd">
<svg version="1.1" id="Layer_1" xmlns="http://www.w3.org/2000/svg" xmlns:xlink="http://www.w3.org/1999/xlink" x="0px" y="0px"
	 width="71.368px" height="71.365px" viewBox="0 0 71.368 71.365" enable-background="new 0 0 71.368 71.365" xml:space="preserve">
<path fill="#393E98" d="M35.685,0C15.976,0,0,15.976,0,35.683c0,19.708,15.976,35.683,35.685,35.683
	c19.706,0,35.683-15.975,35.683-35.683C71.368,15.976,55.391,0,35.685,0 M36.749,44.576c-5.433,0-9.836-4.404-9.836-9.837
	c0-5.431,4.404-9.833,9.836-9.833c5.432,0,9.836,4.403,9.836,9.833C46.583,40.172,42.179,44.576,36.749,44.576 M25.192,10.978
	l4.144,9.324c-3.169,1.629-5.722,4.27-7.253,7.496l-10.294-4.289C14.682,17.942,19.415,13.494,25.192,10.978 M11.858,48.919
	l12.336-3.879c0.916,1.116,1.989,2.102,3.169,2.938l-6.559,10.932C17.056,56.378,13.979,52.94,11.858,48.919 M36.143,63.588
	c-0.95,0-1.887-0.047-2.811-0.144l3.609,0.104C36.674,63.558,36.413,63.588,36.143,63.588 M49.157,60.312l-5.072-11.095
	c3.268-1.659,5.892-4.387,7.422-7.727l9.127,6.995C58.101,53.504,54.095,57.646,49.157,60.312 M51.829,28.733
	c-1.146-2.875-3.092-5.336-5.557-7.129l4.157-8.87c4.641,2.84,8.366,7.007,10.649,11.989L51.829,28.733z"/>
</svg>
