<?xml version="1.0" encoding="utf-8"?>
<!-- Generator: Adobe Illustrator 15.1.0, SVG Export Plug-In . SVG Version: 6.00 Build 0)  -->
<!DOCTYPE svg PUBLIC "-//W3C//DTD SVG 1.1//EN" "http://www.w3.org/Graphics/SVG/1.1/DTD/svg11.dtd">
<svg version="1.1" id="Layer_1" xmlns="http://www.w3.org/2000/svg" xmlns:xlink="http://www.w3.org/1999/xlink" x="0px" y="0px"
	 width="52.898px" height="55.756px" viewBox="0 0 52.898 55.756" enable-background="new 0 0 52.898 55.756" xml:space="preserve">
<path fill="#393E98" stroke="#E4B920" stroke-width="0.25" stroke-miterlimit="10" d="M37.762,10.38
	c-0.705,1.73-1.829,3.036-2.574,4.721c-3.496-1.127-6.922-2.977-9.441-3.862c0.388-1.614,1.229-2.775,1.289-4.721
	c-1.336,0.813-1.66,2.632-2.147,4.292c-3.883-0.987-5.654-2.113-9.009-3.003c0.491-1.051,1.428-3.075,0.427-4.292
	c-0.792,0.781-0.558,2.589-1.286,3.433C9.743,5.167,7.547,4.299,2.576,3.085C21.153-2.91,54.44-1.836,51.494,21.538
	c-2.164,0.305-2.949-0.771-4.29-1.288c0.24-1.898,1.391-2.901,1.284-5.149c-0.921,1.366-1.187,3.389-2.144,4.721
	c-3.538-1.183-6.146-3.295-9.871-4.293C36.264,13.174,37.861,12.626,37.762,10.38"/>
<path fill="#393E98" stroke="#E4B920" stroke-width="0.25" stroke-miterlimit="10" d="M33.041,36.985
	c1.987-0.441,2.251-2.612,4.291-3.004c1.244,1.187,2.691,2.172,3.862,3.435c-2.479,3.478-6.151,6.12-12.014,5.578
	C12.736,41.478,4.859,18.538,1.286,3.514C5.2,5.468,9.207,7.323,12.015,10.38c-1.675,1.904-3.677,3.475-6.866,3.863
	c2.571,0.848,5.991-1.153,7.727-2.574c2.219,1.498,3.833,3.604,6.006,5.149c-0.635,2.083-2.537,2.9-3.863,4.291
	c1.51,0.496,3.526-2.187,5.579-2.573c1.76,2.101,3.655,4.067,6.009,5.577c-0.271,2.306-2.576,2.572-3.435,4.292
	c2.197-0.236,2.576-2.287,4.72-2.575c3.122,1.885,5.042,4.97,8.153,6.864C35.848,34.929,33.849,35.362,33.041,36.985"/>
<path fill="#393E98" stroke="#E4B920" stroke-width="0.25" stroke-miterlimit="10" d="M45.916,32.586
	c3.505,6.36,5.161,14.575,6.437,23.17c-2.345-2.955-1.979-7.348-3.005-11.153c-1.005-3.734-2.544-7.349-3.432-10.73
	c-3.447,5.383-6.36,10.523-13.732,11.159C11.949,46.771,3.924,18.7,0,3.406c18.605-5.818,50.744-4.644,52.777,13.729
	C53.648,24.958,49.657,28.5,45.916,32.586 M36.475,16.706c3.725,0.998,6.332,3.109,9.868,4.292c0.958-1.332,1.224-3.354,2.146-4.72
	c0.104,2.248-1.042,3.25-1.285,5.149c1.342,0.517,2.126,1.592,4.29,1.285C54.441-0.659,21.154-1.733,2.575,4.263
	C7.547,5.477,9.742,6.345,15.02,8.125c0.729-0.844,0.493-2.653,1.287-3.434c1.001,1.218,0.063,3.241-0.428,4.292
	c3.354,0.89,5.126,2.016,9.009,3.003c0.486-1.661,0.813-3.479,2.147-4.292c-0.059,1.947-0.901,3.107-1.287,4.721
	c2.519,0.885,5.945,2.736,9.44,3.862c0.745-1.686,1.869-2.991,2.575-4.721C37.862,13.804,36.263,14.352,36.475,16.706
	 M36.045,33.872c-3.111-1.896-5.03-4.98-8.153-6.865c-2.146,0.287-2.522,2.338-4.722,2.573c0.857-1.719,3.164-1.985,3.435-4.29
	c-2.353-1.51-4.247-3.476-6.009-5.577c-2.052,0.387-4.068,3.069-5.577,2.574c1.326-1.393,3.228-2.208,3.862-4.292
	c-2.173-1.545-3.787-3.652-6.008-5.149c-1.732,1.421-5.153,3.422-7.724,2.575c3.188-0.389,5.188-1.961,6.865-3.864
	C9.208,8.501,5.201,6.645,1.287,4.691C4.86,19.715,12.737,42.653,29.182,44.17c5.86,0.542,9.535-2.101,12.014-5.578
	c-1.171-1.263-2.618-2.248-3.861-3.434c-2.042,0.392-2.303,2.563-4.29,3.004C33.85,36.54,35.848,36.104,36.045,33.872"/>
</svg>
