<?xml version="1.0" encoding="utf-8"?>
<!-- Generator: Adobe Illustrator 15.1.0, SVG Export Plug-In . SVG Version: 6.00 Build 0)  -->
<!DOCTYPE svg PUBLIC "-//W3C//DTD SVG 1.1//EN" "http://www.w3.org/Graphics/SVG/1.1/DTD/svg11.dtd">
<svg version="1.1" id="Layer_1" xmlns="http://www.w3.org/2000/svg" xmlns:xlink="http://www.w3.org/1999/xlink" x="0px" y="0px"
	 width="72px" height="72px" viewBox="0 0 72 72" enable-background="new 0 0 72 72" xml:space="preserve">
<path fill="#393E98" d="M66.425,61.771c0.046-14.395,0.298-28.169,0.341-42.084c0.017-4.933,0.793-13.409-0.562-17.04
	C51.79,2.526,35.298,2.342,20.016,2.293C17.374,2.285,7.115,1.367,5.028,3.271c-1.254,1.145-0.634,5.387-0.643,8.004
	C4.322,31.301,3.535,51.241,3.99,70.602c15.29,0.121,30.775,0.512,46.391,0.561c2.396,0.008,13.643,1.077,15.607-1.182
	C67.037,68.771,66.416,64.361,66.425,61.771 M61.318,53.336c0.156,1.438,0.289,2.876,0.19,4.313
	c-3.868,1.313-5.767,0.004-4.297-4.324C58.582,53.5,59.95,53.505,61.318,53.336 M60.934,45.535c1.463,1.15-0.121,2.872,0.603,4.313
	c-1.507,0.775-3.011-0.041-4.517,0.396c0.021-1.276-1.117-3.736-0.396-4.518C56.732,45.607,60.425,45.133,60.934,45.535
	 M61.162,38.352c0.507,1.506,0.501,3.013-0.014,4.516c-1.438-0.049-2.873-0.441-4.313,0.191c-0.036-1.574-0.425-3.149,0.222-4.722
	C58.425,38.516,59.794,38.52,61.162,38.352 M61.188,30.549c0.776,1.507-0.039,3.012,0.396,4.517
	c-1.417-0.452-3.876,0.972-4.721,0.191c-0.864-0.798,0.115-3.216,0.22-4.722C58.45,30.713,59.818,30.716,61.188,30.549
	 M61.211,23.57c0.633,1.439,0.239,2.876,0.189,4.312c-1.438,0.682-2.875,0.176-4.312,0.193c-0.507-1.509-0.502-3.014,0.015-4.518
	C58.473,23.733,59.841,23.737,61.211,23.57 M61.836,20.493c-1.507,0.776-3.011-0.041-4.518,0.396
	c-0.635-1.439-0.241-2.874-0.192-4.312C60.495,15.08,62.65,17.101,61.836,20.493 M61.463,8.995c0.018,1.389,1.087,3.769,0.395,4.517
	c-0.928,1.006-3.157-0.603-4.721,0.191c-0.037-1.575-0.426-3.149,0.221-4.721C58.725,9.158,60.093,9.164,61.463,8.995 M25.542,7.443
	c9.279,0.029,19.662-0.07,28.125-0.115c0.642,9.103,0.149,18.203,0.117,27.303c-12.319,0.747-24.634-0.115-36.952,0.292
	c-0.654-6.58-0.162-13.452-0.14-20.733c0.003-0.957-0.669-6.249-0.183-6.777C17.197,6.67,23.602,7.437,25.542,7.443 M9.526,8.623
	c1.368,0.177,2.737,0.181,4.105,0.014c0.634,1.438,0.241,2.874,0.191,4.311C9.955,14.26,8.056,12.952,9.526,8.623 M9.488,20.53
	c0.02-1.285-1.112-3.744-0.396-4.518c0.119-0.129,3.829-0.572,4.311-0.19c1.496,1.177-0.038,3.003,0.396,4.517
	C12.361,20.648,10.926,20.22,9.488,20.53 M9.464,27.918c-0.506-1.506-0.501-3.012,0.015-4.516c1.368,0.176,2.736,0.182,4.105,0.013
	C14.786,27.267,13.78,28.955,9.464,27.918 M9.646,35.104c-0.633-1.439-0.24-2.874-0.191-4.311c3.368-1.497,5.524,0.525,4.709,3.916
	C12.656,35.485,11.152,34.669,9.646,35.104 M9.416,43.111c-0.038-1.574-0.425-3.15,0.221-4.723c1.368,0.178,2.735,0.182,4.105,0.014
	c0.775,1.51-0.042,3.012,0.396,4.518C12.562,43.229,10.99,42.803,9.416,43.111 M9.391,50.501c-0.038-1.573-0.424-3.149,0.221-4.722
	c1.368,0.178,2.736,0.182,4.106,0.014c0.018,1.389,1.086,3.77,0.395,4.518C13.186,51.316,10.954,49.707,9.391,50.501 M9.573,57.688
	c-0.505-1.508-0.502-3.014,0.015-4.518c1.369,0.178,2.739,0.182,4.107,0.014c0.865,1.439-0.408,2.873,0.19,4.313
	C12.447,57.805,11.012,57.378,9.573,57.688 M9.754,65.281c-1.08-1.576-0.148-3.146-0.6-4.723c1.508-0.775,3.009,0.041,4.518-0.396
	c0.505,1.508,0.501,3.012-0.014,4.517C12.357,64.6,11.055,65.128,9.754,65.281 M53.479,66.039
	c-8.859-0.102-18.147-0.266-27.713-0.294c-1.806-0.006-8.492,0.862-9.238,0.174c-0.668-0.614,0.02-5.87,0.023-6.979
	c0.021-7.008-0.235-14.215,0.066-20.938c12.322-1.324,24.633,0.387,36.952-0.291c0.757,9.309-0.094,18.609,0.32,27.918
	L53.479,66.039z M56.971,65.023c-0.506-1.508-0.5-3.012,0.016-4.516c1.367,0.176,2.736,0.18,4.104,0.012
	c0.167,1.506,0.162,3.014-0.014,4.517C59.705,65.831,58.34,64.842,56.971,65.023"/>
</svg>
