<?xml version="1.0" encoding="utf-8"?>
<!-- Generator: Adobe Illustrator 15.1.0, SVG Export Plug-In . SVG Version: 6.00 Build 0)  -->
<!DOCTYPE svg PUBLIC "-//W3C//DTD SVG 1.1//EN" "http://www.w3.org/Graphics/SVG/1.1/DTD/svg11.dtd">
<svg version="1.1" id="Layer_1" xmlns="http://www.w3.org/2000/svg" xmlns:xlink="http://www.w3.org/1999/xlink" x="0px" y="0px"
	 width="69.195px" height="52.441px" viewBox="0 0 69.195 52.441" enable-background="new 0 0 69.195 52.441" xml:space="preserve">
<g id="Layer_3">
	<path fill="#393E98" stroke="#DBD626" stroke-width="0.25" stroke-miterlimit="10" d="M54.2,26.149
		c-1.325,0.246-2.56,0.066-3.872,0.271c-0.675-2.564-0.882-5.372-1.324-7.247c1.135-0.395,2.167-0.332,3.373-1.053
		c-1.013-0.496-2.246,0.012-3.445,0.363c-0.908-2.747-0.915-4.263-1.678-6.652c0.83-0.108,2.429-0.326,2.778-1.407
		c-0.783-0.181-1.793,0.665-2.588,0.552c-0.97-3.903-1.295-5.578-2.494-9.075c10.878,8.975,23.172,29.645,7.802,36.943
		c-1.027-1.198-0.677-2.096-0.888-3.11c1.252-0.592,2.307-0.282,3.636-1.219c-1.189-0.031-2.522,0.594-3.704,0.53
		c-0.659-2.612-0.388-5.021-1.23-7.676C51.916,26.323,52.872,27.084,54.2,26.149"/>
	<path fill="#393E98" stroke="#DBD626" stroke-width="0.25" stroke-miterlimit="10" d="M36.174,33.625
		c1.044,1.039,2.466,0.352,3.498,1.441c-0.238,1.217-0.273,2.483-0.586,3.686c-3.08-0.153-6.118-1.362-8.066-5.139
		c-5.476-10.596,5.42-24.313,13.173-32.328c0.335,3.142,0.761,6.3-0.006,9.198c-1.809-0.28-3.544-0.886-5.021-2.676
		c0.486,1.894,3.033,3.197,4.571,3.699c-0.05,1.934-0.701,3.732-0.794,5.657c-1.521,0.423-2.752-0.416-4.114-0.677
		c0.285,1.106,2.699,1.292,3.736,2.39c-0.596,1.891-1.057,3.808-1.06,5.825c-1.509,0.733-2.566-0.567-3.944-0.418
		c0.994,1.245,2.394,0.678,3.398,1.87c0.067,2.634-1.063,5-1.004,7.632C38.52,34.533,37.476,33.485,36.174,33.625"/>
	<path fill="#393E98" stroke="#DBD626" stroke-width="0.25" stroke-miterlimit="10" d="M44.578,39.289
		c-2.512,4.605-6.865,8.812-11.599,12.93c0.887-2.575,3.702-4.061,5.622-6.168c1.877-2.063,3.479-4.405,5.19-6.26
		c-4.617-0.006-8.877,0.222-12.129-4.018C22.734,24.137,36.693,8.339,44.474,0c10.776,9.063,22.56,29.073,12.171,37.457
		C52.224,41.027,48.516,39.977,44.578,39.289 M50.564,27.368c0.844,2.656,0.57,5.063,1.23,7.676c1.182,0.063,2.515-0.562,3.704-0.53
		c-1.329,0.937-2.382,0.628-3.636,1.219c0.211,1.015-0.141,1.912,0.888,3.11c15.37-7.299,3.076-27.969-7.802-36.942
		c1.199,3.497,1.523,5.172,2.494,9.075c0.795,0.113,1.805-0.731,2.588-0.553c-0.351,1.082-1.948,1.299-2.778,1.408
		c0.763,2.39,0.77,3.905,1.678,6.652c1.199-0.352,2.434-0.859,3.445-0.362c-1.206,0.72-2.238,0.658-3.373,1.052
		c0.442,1.875,0.649,4.682,1.324,7.247c1.313-0.204,2.547-0.024,3.872-0.271C52.872,27.084,51.916,26.323,50.564,27.368
		 M39.955,33.784c-0.059-2.631,1.071-4.998,1.004-7.632c-1.006-1.191-2.404-0.625-3.399-1.871c1.379-0.148,2.438,1.152,3.945,0.419
		c0.004-2.017,0.464-3.935,1.06-5.825c-1.037-1.098-3.451-1.282-3.736-2.39c1.362,0.261,2.595,1.101,4.114,0.677
		c0.093-1.924,0.744-3.724,0.794-5.657c-1.538-0.502-4.085-1.807-4.571-3.699c1.479,1.79,3.215,2.396,5.021,2.676
		c0.767-2.898,0.341-6.057,0.006-9.198C36.439,9.3,25.545,23.015,31.019,33.611c1.948,3.776,4.986,4.985,8.066,5.139
		c0.313-1.201,0.348-2.469,0.586-3.686c-1.032-1.09-2.454-0.403-3.498-1.441C37.476,33.485,38.52,34.533,39.955,33.784"/>
</g>
<g id="Layer_1_1_">
	<path fill="#393E98" stroke="#DBD626" stroke-width="0.25" stroke-miterlimit="10" d="M21.288,29.666
		c-0.21,1.008-0.694,1.827-0.93,2.814c-2.008-0.267-4.049-0.933-5.503-1.162c0.05-0.915,0.393-1.627,0.232-2.688
		c-0.644,0.572-0.642,1.591-0.74,2.539c-2.204-0.152-3.276-0.586-5.185-0.739c0.162-0.618,0.473-1.81-0.189-2.37
		c-0.354,0.5-0.049,1.461-0.359,1.988c-3.039-0.445-4.315-0.699-7.132-0.866c9.485-5.086,27.647-7.789,28.354,5.182
		c-1.144,0.378-1.675-0.129-2.454-0.275c-0.055-1.055,0.469-1.709,0.189-2.92c-0.365,0.832-0.31,1.956-0.697,2.771
		c-2.036-0.291-3.658-1.18-5.777-1.353C20.749,31.329,21.564,30.875,21.288,29.666"/>
	<path fill="#393E98" stroke="#DBD626" stroke-width="0.25" stroke-miterlimit="10" d="M21.352,44.563
		c1.035-0.438,0.961-1.641,2.03-2.055c0.791,0.521,1.676,0.912,2.435,1.48c-1.001,2.131-2.734,3.927-5.965,4.213
		c-9.069,0.8-15.606-10.866-19.026-18.663c2.315,0.673,4.672,1.286,6.496,2.666c-0.721,1.196-1.65,2.248-3.342,2.773
		c1.478,0.205,3.135-1.218,3.936-2.159c1.353,0.594,2.435,1.577,3.768,2.2c-0.141,1.194-1.092,1.822-1.67,2.71
		c0.865,0.119,1.694-1.533,2.77-1.948c1.163,0.967,2.384,1.848,3.81,2.434c0.081,1.277-1.144,1.649-1.438,2.666
		c1.169-0.343,1.172-1.493,2.307-1.859c1.879,0.713,3.226,2.196,5.102,2.918C22.672,43.17,21.631,43.604,21.352,44.563"/>
	<path fill="#393E98" stroke="#DBD626" stroke-width="0.25" stroke-miterlimit="10" d="M27.786,40.267
		c2.528,3.105,4.237,7.396,5.777,11.935c-1.564-1.372-1.797-3.791-2.731-5.756c-0.915-1.925-2.104-3.734-2.919-5.48
		c-1.34,3.262-2.413,6.335-6.348,7.405C10.76,51.312,3.638,36.879,0,28.968c9.521-4.99,27.068-7.522,29.982,2.243
		C31.226,35.368,29.411,37.684,27.786,40.267 M21.097,32.587c2.119,0.173,3.741,1.062,5.777,1.353
		c0.387-0.816,0.332-1.939,0.697-2.771c0.278,1.21-0.246,1.864-0.189,2.92c0.778,0.146,1.311,0.655,2.454,0.275
		c-0.707-12.97-18.869-10.268-28.355-5.182c2.816,0.167,4.094,0.421,7.132,0.866c0.312-0.527,0.007-1.487,0.36-1.988
		c0.662,0.561,0.353,1.752,0.189,2.37c1.909,0.153,2.981,0.588,5.185,0.74c0.101-0.948,0.098-1.967,0.742-2.539
		c0.16,1.062-0.184,1.773-0.233,2.688c1.455,0.229,3.496,0.895,5.502,1.162c0.237-0.988,0.721-1.807,0.931-2.814
		C21.564,30.875,20.75,31.33,21.097,32.587 M22.559,41.938c-1.876-0.722-3.223-2.205-5.102-2.918
		c-1.134,0.365-1.137,1.518-2.307,1.859c0.296-1.017,1.52-1.389,1.438-2.666c-1.425-0.586-2.646-1.466-3.81-2.433
		c-1.075,0.415-1.903,2.067-2.77,1.948c0.579-0.888,1.53-1.516,1.671-2.71c-1.333-0.623-2.415-1.605-3.768-2.2
		c-0.8,0.94-2.457,2.363-3.936,2.159c1.69-0.525,2.622-1.577,3.342-2.773c-1.824-1.38-4.181-1.994-6.496-2.666
		c3.42,7.797,9.957,19.463,19.026,18.663c3.232-0.285,4.964-2.082,5.965-4.213c-0.759-0.568-1.645-0.959-2.435-1.48
		c-1.069,0.414-0.994,1.617-2.03,2.055C21.631,43.604,22.672,43.17,22.559,41.938"/>
	<path fill="#393E98" stroke="#DBD626" stroke-width="0.25" stroke-miterlimit="10" d="M61.861,41.957
		c-1.174-0.444-2.069-1.184-3.213-1.656c0.704-2.367,1.895-4.7,2.45-6.406c1.093,0.234,1.885,0.785,3.192,0.793
		c-0.565-0.884-1.793-1.077-2.918-1.378c0.605-2.625,1.333-3.833,1.882-6.104c0.713,0.314,2.089,0.914,2.892,0.225
		c-0.536-0.522-1.749-0.338-2.326-0.813c1.115-3.575,1.667-5.065,2.404-8.427c4.314,12.399,4.104,34.792-11.653,33.169
		c-0.238-1.45,0.475-1.995,0.797-2.904c1.283,0.135,1.973,0.892,3.483,0.787c-0.935-0.601-2.297-0.747-3.205-1.369
		c0.737-2.396,2.12-4.182,2.73-6.703C59.96,40.991,60.352,42.06,61.861,41.957"/>
	<path fill="#393E98" stroke="#DBD626" stroke-width="0.25" stroke-miterlimit="10" d="M43.902,39.191
		c0.329,1.33,1.792,1.47,2.087,2.838c-0.779,0.853-1.419,1.843-2.248,2.649c-2.377-1.612-4.209-4.044-3.936-7.99
		c0.768-11.078,16.066-16.726,26.111-19.355c-1.253,2.662-2.439,5.381-4.452,7.316c-1.302-1.098-2.392-2.418-2.701-4.558
		c-0.527,1.742,0.867,4.012,1.85,5.154c-0.974,1.514-2.363,2.631-3.367,4.117c-1.413-0.397-1.988-1.662-2.946-2.528
		c-0.309,1.021,1.522,2.333,1.817,3.708c-1.386,1.216-2.68,2.521-3.659,4.123c-1.555-0.146-1.768-1.691-2.937-2.24
		c0.188,1.473,1.577,1.696,1.802,3.132c-1.22,2.129-3.263,3.465-4.489,5.587C45.33,41.047,45.006,39.709,43.902,39.191"/>
	<path fill="#393E98" stroke="#DBD626" stroke-width="0.25" stroke-miterlimit="10" d="M47.852,47.76
		c-4.227,2.45-9.723,3.692-15.48,4.682c1.952-1.621,4.909-1.441,7.455-2.189c2.493-0.734,4.9-1.822,7.158-2.471
		c-3.671-2.236-7.171-4.116-7.709-9.063c-1.48-13.574,17.264-19.397,27.488-22.271c4.193,12.422,3.896,34.041-8.425,35.688
		C53.095,52.84,50.652,50.212,47.852,47.76 M58.378,41.169c-0.61,2.521-1.993,4.307-2.73,6.703c0.908,0.622,2.271,0.77,3.205,1.369
		c-1.512,0.104-2.2-0.651-3.483-0.787c-0.322,0.909-1.035,1.454-0.797,2.904C70.33,52.981,70.54,30.59,66.225,18.19
		c-0.737,3.36-1.289,4.852-2.404,8.426c0.577,0.476,1.79,0.291,2.326,0.813c-0.802,0.69-2.179,0.091-2.892-0.224
		c-0.549,2.271-1.275,3.479-1.882,6.104c1.125,0.301,2.353,0.494,2.918,1.378c-1.309-0.009-2.101-0.56-3.192-0.794
		c-0.557,1.707-1.746,4.039-2.45,6.406c1.144,0.474,2.039,1.211,3.213,1.656C60.352,42.06,59.96,40.991,58.378,41.169
		 M46.834,41.146c1.228-2.122,3.271-3.458,4.489-5.587c-0.225-1.436-1.612-1.66-1.802-3.133c1.169,0.55,1.382,2.096,2.937,2.241
		c0.979-1.603,2.273-2.907,3.659-4.123c-0.295-1.375-2.126-2.688-1.817-3.708c0.958,0.867,1.533,2.131,2.946,2.528
		c1.004-1.486,2.394-2.604,3.367-4.117c-0.981-1.143-2.377-3.413-1.85-5.154c0.311,2.14,1.399,3.461,2.701,4.558
		c2.013-1.936,3.199-4.654,4.452-7.316c-10.045,2.631-25.345,8.278-26.111,19.355c-0.274,3.947,1.559,6.378,3.936,7.99
		c0.829-0.808,1.469-1.798,2.248-2.649c-0.295-1.368-1.758-1.508-2.087-2.838C45.006,39.709,45.33,41.047,46.834,41.146"/>
</g>
<g id="Layer_2">
	<path fill="#393E98" stroke="#DBD626" stroke-width="0.25" stroke-miterlimit="10" d="M32.354,23.56
		c-0.712,0.902-1.605,1.48-2.333,2.351c-1.875-1.268-3.586-2.953-4.924-3.908c0.507-0.891,1.206-1.432,1.573-2.572
		c-0.929,0.251-1.435,1.271-2.009,2.171c-2.126-1.253-2.981-2.223-4.813-3.328c0.471-0.537,1.375-1.574,0.991-2.465
		c-0.604,0.323-0.776,1.436-1.352,1.809c-2.817-1.96-3.967-2.853-6.703-4.424c12.028-0.354,31.541,6.004,25.777,19.33
		c-1.335-0.191-1.613-0.965-2.319-1.497c0.472-1.084,1.323-1.479,1.648-2.827c-0.782,0.65-1.286,1.801-2.08,2.423
		c-1.893-1.306-3.07-3.005-5.105-4.234C30.985,24.954,32.027,24.906,32.354,23.56"/>
	<path fill="#393E98" stroke="#DBD626" stroke-width="0.25" stroke-miterlimit="10" d="M24.984,38.493
		c1.254,0.078,1.779-1.162,3.056-1.042c0.531,0.916,1.22,1.749,1.696,2.694c-2.064,1.633-4.694,2.564-8.069,1.236
		c-9.471-3.725-10.187-18.654-9.717-28.158c1.981,1.828,4.031,3.616,5.167,5.907c-1.318,0.836-2.773,1.425-4.728,1.106
		c1.376,0.941,3.744,0.347,5.015-0.195c1.054,1.269,1.647,2.791,2.67,4.078c-0.737,1.125-2,1.279-3.022,1.878
		c0.806,0.55,2.46-0.688,3.742-0.565c0.682,1.546,1.463,3.036,2.596,4.334c-0.558,1.317-1.968,1.079-2.769,1.948
		c1.338,0.241,1.917-0.909,3.233-0.71c1.523,1.652,2.13,3.808,3.646,5.463C27,37.757,25.742,37.671,24.984,38.493"/>
	<path fill="#393E98" stroke="#DBD626" stroke-width="0.25" stroke-miterlimit="10" d="M33.564,37.404
		c0.977,4.367,0.546,9.514-0.178,14.82c-0.88-2.153,0.093-4.688,0.142-7.12c0.045-2.381-0.242-4.785-0.187-6.938
		c-2.966,2.592-5.573,5.132-10.045,4.239C11.023,39.956,11.104,21.968,11.41,12.24C23.423,12,42.236,18.222,40.28,29.444
		C39.449,34.222,36.479,35.632,33.564,37.404 M30.705,26.385c2.035,1.23,3.213,2.93,5.105,4.235c0.794-0.622,1.298-1.772,2.08-2.423
		c-0.325,1.349-1.177,1.743-1.648,2.827c0.706,0.532,0.984,1.306,2.319,1.497c5.764-13.326-13.75-19.684-25.777-19.33
		c2.735,1.571,3.885,2.464,6.702,4.424c0.575-0.374,0.748-1.485,1.351-1.809c0.384,0.891-0.521,1.928-0.991,2.465
		c1.831,1.104,2.688,2.074,4.813,3.328c0.575-0.9,1.08-1.919,2.01-2.17c-0.369,1.141-1.067,1.682-1.575,2.571
		c1.339,0.956,3.05,2.641,4.925,3.908c0.729-0.87,1.621-1.448,2.333-2.351C32.027,24.906,30.985,24.954,30.705,26.385
		 M27.502,36.468c-1.517-1.655-2.122-3.811-3.646-5.463c-1.316-0.199-1.896,0.951-3.234,0.71c0.802-0.869,2.212-0.63,2.77-1.947
		c-1.132-1.299-1.915-2.788-2.596-4.334c-1.282-0.122-2.937,1.116-3.741,0.565c1.021-0.599,2.284-0.753,3.021-1.878
		c-1.021-1.288-1.616-2.81-2.67-4.078c-1.27,0.542-3.639,1.138-5.015,0.195c1.955,0.318,3.409-0.271,4.728-1.106
		c-1.137-2.291-3.186-4.078-5.167-5.907c-0.47,9.504,0.247,24.435,9.717,28.158c3.375,1.328,6.004,0.396,8.069-1.236
		c-0.476-0.945-1.165-1.778-1.696-2.694c-1.276-0.12-1.802,1.12-3.056,1.042C25.742,37.671,27,37.757,27.502,36.468"/>
</g>
</svg>
