<?xml version="1.0" encoding="utf-8"?>
<!-- Generator: Adobe Illustrator 15.1.0, SVG Export Plug-In . SVG Version: 6.00 Build 0)  -->
<!DOCTYPE svg PUBLIC "-//W3C//DTD SVG 1.1//EN" "http://www.w3.org/Graphics/SVG/1.1/DTD/svg11.dtd">
<svg version="1.1" id="Layer_1" xmlns="http://www.w3.org/2000/svg" xmlns:xlink="http://www.w3.org/1999/xlink" x="0px" y="0px"
	 width="51.546px" height="44.111px" viewBox="0 0 51.546 44.111" enable-background="new 0 0 51.546 44.111" xml:space="preserve">
<path fill="#393E98" d="M11.831,9.297l0.181-1.614l25.536-0.03l0.316,1.67c0,0-2.412,10.295,8.066,8.829
	c10.479-1.467,3.074-10.6,3.074-10.6s-3.348-6.035-10.83-6.622c0,0-15.967-2.295-26.323,0.317c0,0-5.439,0.271-8.729,4.934
	c0,0-8.817,10.205,3.176,13.186C6.299,19.369,17.439,18.731,11.831,9.297"/>
<path fill="#393E98" d="M48.474,30.26L33.44,16.249l0.196-2.871c0,0-0.012-2.14-2.014-2.237c-2.002-0.1-2.955,1.681-2.955,1.681
	l-0.403,3.603l-5.894-0.157l-0.355-3.563c0,0-0.564-1.699-2.193-1.755c-1.629-0.057-2.279,1.254-2.279,1.254l-0.404,3.603
	L2.479,29.883L2.418,36.04c-0.1,3.134,1.239,3.535,1.239,3.535l3.12,0.225l0.175,4.046l4.638,0.143
	c-0.382-4.445,2.075-3.919,2.075-3.919l23.411-0.143c3.893,0.06,2.551,4.186,2.551,4.186l4.293-0.147l0.197-4.003l1.725,0.319
	c2.265,0.002,2.474-1.861,2.474-1.861L48.474,30.26z M24.503,36.787c-4.734-0.53-8.141-4.798-7.61-9.532
	c0.531-4.733,4.798-8.142,9.532-7.61c4.734,0.53,8.142,4.8,7.609,9.532C33.505,33.911,29.237,37.318,24.503,36.787 M25.944,23.93
	c-2.367-0.267-4.501,1.438-4.767,3.805c-0.265,2.367,1.439,4.501,3.806,4.767c2.367,0.266,4.501-1.438,4.767-3.806
	C30.015,26.329,28.312,24.195,25.944,23.93"/>
</svg>
