<?xml version="1.0" encoding="utf-8"?>
<!-- Generator: Adobe Illustrator 15.1.0, SVG Export Plug-In . SVG Version: 6.00 Build 0)  -->
<!DOCTYPE svg PUBLIC "-//W3C//DTD SVG 1.1//EN" "http://www.w3.org/Graphics/SVG/1.1/DTD/svg11.dtd">
<svg version="1.1" id="Layer_1" xmlns="http://www.w3.org/2000/svg" xmlns:xlink="http://www.w3.org/1999/xlink" x="0px" y="0px"
	 width="37.814px" height="38.921px" viewBox="0 0 37.814 38.921" enable-background="new 0 0 37.814 38.921" xml:space="preserve">
<path fill="#393E98" d="M24.45,22.468l-0.976-6.298c0,0,0.729-2.921-1.941-3.063c-2.673-0.143-1.936,3.593-1.936,3.593l-0.312,5.967
	c-4.772-1.887-15.36-0.1-15.36-0.1c-8.25,3.217-0.936,15.023-0.936,15.023l34.824,1.33l-2.278-14.188L24.45,22.468z M8.43,32.814
	c-0.599,0.409-1.636-0.066-2.318-1.064c-0.682-0.998-0.749-2.139-0.15-2.547c0.598-0.408,1.636,0.066,2.317,1.064
	C8.961,31.265,9.028,32.405,8.43,32.814 M14.707,32.916c-0.599,0.408-1.637-0.067-2.318-1.065s-0.749-2.138-0.151-2.547
	c0.599-0.408,1.637,0.067,2.318,1.065S15.305,32.505,14.707,32.916"/>
<path fill="#393E98" d="M16.883,15.831c0,0,0.214-5.446,4.438-5.911c4.226-0.465,5.178,6.909,5.178,6.909s1.242,2.482,2.521-0.965
	c0,0,0.98-8.09-7.663-8.995c0,0-4.875-1.816-7.569,1.995c0,0-1.595,6.086,0.746,7.515C14.532,16.378,16.383,17.536,16.883,15.831"/>
<path fill="#393E98" d="M10.629,14.655c0,0-2.521,3.843-3.313-1.521c0,0-1.174-8.585,3.165-11.097c0,0,9.521-7.114,22.667,5.25
	c0,0,4.086,5.535,1.527,9.101c0,0-2.255,2.904-3.264-0.343c0,0-0.377-5.647-2.511-7.217c0,0-7.144-6.019-11.639-5.065
	C12.767,4.715,12.016,8.71,10.629,14.655"/>
</svg>
