<?xml version="1.0" encoding="utf-8"?>
<!-- Generator: Adobe Illustrator 15.1.0, SVG Export Plug-In . SVG Version: 6.00 Build 0)  -->
<!DOCTYPE svg PUBLIC "-//W3C//DTD SVG 1.1//EN" "http://www.w3.org/Graphics/SVG/1.1/DTD/svg11.dtd">
<svg version="1.1" id="Layer_1" xmlns="http://www.w3.org/2000/svg" xmlns:xlink="http://www.w3.org/1999/xlink" x="0px" y="0px"
	 width="67.875px" height="68.185px" viewBox="0 0 67.875 68.185" enable-background="new 0 0 67.875 68.185" xml:space="preserve">
<path fill-rule="evenodd" clip-rule="evenodd" fill="#39B54A" d="M34.825,0c6.011,8.581,2.812,18.167,3.962,27.094
	c5.15,3.762,9.83,6.802,14.68,9.721c4.715,2.838,10.609,3.637,14.408,8.803c-2.168,2.293-5.334,1.436-7.764,1.109
	c-7.4-0.986-15.289-2.539-22.695-5.436c0.291,5.754-1.022,14.803,3.885,20.123c1.48,1.605,4.834,3.42,3.611,5.42
	c-1.143,1.867-3.969,1.064-5.791,1.023c-5.666-0.129-11.832,1.381-17.231-1.17c-0.056-3.063,4.043-4.857,5.382-7.096
	c1.508-2.52,2.489-6.555,2.728-9.303c0.278-3.193-0.199-6.406,0.005-9.393c-7.41,2.533-14.956,4.309-22.595,5.322
	C5.025,46.533,2.232,47.146,0,45.824c2.361-4.424,6.899-5.48,10.537-7.23c4.682-2.252,9.744-5.888,14.698-9.367
	c1.641-1.152,4.135-2.563,4.814-3.631c0.869-1.364,0.318-8.604,0.346-10.593c0.051-3.615-0.218-7.706,0.795-10.426
	c0.528-1.415,1.427-2.507,1.935-3.572C33.431,0.362,33.856,0.012,34.825,0"/>
</svg>
