<?xml version="1.0" encoding="utf-8"?>
<!-- Generator: Adobe Illustrator 15.1.0, SVG Export Plug-In . SVG Version: 6.00 Build 0)  -->
<!DOCTYPE svg PUBLIC "-//W3C//DTD SVG 1.1//EN" "http://www.w3.org/Graphics/SVG/1.1/DTD/svg11.dtd">
<svg version="1.1" id="Layer_1" xmlns="http://www.w3.org/2000/svg" xmlns:xlink="http://www.w3.org/1999/xlink" x="0px" y="0px"
	 width="25.615px" height="64.614px" viewBox="0 0 25.615 64.614" enable-background="new 0 0 25.615 64.614" xml:space="preserve">
<path fill="#39B54A" d="M21.397,55.259c0.135-1.581,0.868-2.854-0.111-4.692c-0.428-0.96-1.501-1.438-2.318-2.042
	c-0.829-0.621-1.378-1.188-1.133-2.366c0.369-1.707,1.905-2.262,3.639-2.862c1.687-0.584,3.571-1.206,4.038-3.29
	c0.066-0.301,0.102-0.627,0.104-0.983c-0.083-3.26-3.382-5.239-6.517-6.169c1.521-1.25,3.191-3.693,4.681-8.308
	c0,0,4.042-17.366-4.67-23.525C15.588-1.47,8.104,1.379,8.104,1.379S-4.817,9.458,1.972,25.308c0,0,3.188,6.916,12.313,8.285
	c0,0,1.835,1.194,4.169-0.273c3.171,0.828,6.527,2.811,6.532,5.706c-0.002,0.312-0.033,0.594-0.089,0.845
	c-0.362,1.686-1.897,2.235-3.63,2.833c-1.688,0.584-3.575,1.22-4.046,3.32c-0.339,1.477,0.497,2.396,1.377,3.009
	c0.895,0.63,1.854,1.135,2.119,1.805c0.854,1.59,0.229,2.586,0.053,4.364c-0.278,3.21,1.194,5.583,0.55,8.418
	c-0.057,0.257-0.131,0.52-0.224,0.79l0.594,0.204c0.1-0.293,0.181-0.577,0.243-0.859C22.605,60.619,21.102,58.212,21.397,55.259
	 M7.081,13.794c-1.128-0.249-1.66-2.188-1.187-4.332S7.665,5.782,8.792,6.03c1.128,0.249,1.66,2.189,1.187,4.333
	C9.507,12.507,8.209,14.043,7.081,13.794"/>
</svg>
