<?xml version="1.0" encoding="utf-8"?>
<!-- Generator: Adobe Illustrator 15.1.0, SVG Export Plug-In . SVG Version: 6.00 Build 0)  -->
<!DOCTYPE svg PUBLIC "-//W3C//DTD SVG 1.1//EN" "http://www.w3.org/Graphics/SVG/1.1/DTD/svg11.dtd">
<svg version="1.1" id="Layer_1" xmlns="http://www.w3.org/2000/svg" xmlns:xlink="http://www.w3.org/1999/xlink" x="0px" y="0px"
	 width="68.577px" height="68.577px" viewBox="0 0 68.577 68.577" enable-background="new 0 0 68.577 68.577" xml:space="preserve">
<path fill-rule="evenodd" clip-rule="evenodd" fill="#39B54A" d="M34.289,0C15.352,0,0,15.352,0,34.289
	c0,18.423,14.531,33.449,32.756,34.25l1.532,0.038c18.937,0,34.288-15.351,34.288-34.289C68.577,15.352,53.225,0,34.289,0
	 M34.509,1.883c-7.718,6.91-9.168,29.332-9.168,29.332c-4.478-1.365-8.619,4.521-8.619,4.521
	C9.554,33.153,3.699,20.969,3.699,20.969C13.67,0.204,34.509,1.883,34.509,1.883 M34.289,41.146c0,4.953-4.016,8.968-8.968,8.968
	s-8.968-4.015-8.968-8.968c0-4.952,4.016-8.968,8.968-8.968S34.289,36.194,34.289,41.146 M3.86,47.726
	c4.359,0.872,12.208-2.615,12.208-2.615c1.961,6.104,9.632,6.562,9.632,6.562c2.657,14.41,7.58,15.953,7.58,15.953
	C10.4,66.474,3.86,47.726,3.86,47.726 M34.219,46.202c3.108-4.576,0.596-9.377,0.596-9.377c9.374-0.653,28.596-16.333,28.596-16.333
	c8.682,14.153-0.031,29.951-0.031,29.951C52.269,55.777,34.219,46.202,34.219,46.202"/>
</svg>
