<?xml version="1.0" encoding="utf-8"?>
<!-- Generator: Adobe Illustrator 15.1.0, SVG Export Plug-In . SVG Version: 6.00 Build 0)  -->
<!DOCTYPE svg PUBLIC "-//W3C//DTD SVG 1.1//EN" "http://www.w3.org/Graphics/SVG/1.1/DTD/svg11.dtd">
<svg version="1.1" id="Layer_1" xmlns="http://www.w3.org/2000/svg" xmlns:xlink="http://www.w3.org/1999/xlink" x="0px" y="0px"
	 width="67.836px" height="72.192px" viewBox="0 0 67.836 72.192" enable-background="new 0 0 67.836 72.192" xml:space="preserve">
<path fill-rule="evenodd" clip-rule="evenodd" fill="#3BB54A" d="M43.36,15.386c2.289-0.159,3.908-0.988,6.644-0.7
	c5.616,11.52,13.431,20.836,17.833,33.571c-1.599,2.597-4.262,4.523-7.345,6.29c-2.745,1.576-6.994,4.28-9.787,3.848
	c-3.135-0.483-5.479-6.347-6.995-9.093c-2.186-3.95-3.881-7.104-5.595-10.488c-1.345,1.104-3.367,1.529-4.546,2.797
	c0.442,3.995,2.407,7.006,4.546,10.488c1.63,2.66,5.507,6.802,4.896,10.143c-0.499,2.715-5.708,5.26-8.042,6.642
	c-3.465,2.056-6.796,3.865-10.841,3.148c-6.784-10.001-12.113-21.453-18.532-31.82c1.292-0.646,0.682-1.021,0.698-2.798
	c0.758-1.339,2.355-1.84,3.499-2.797C9.375,27.341,0.986,28.038,0,21.331c4.459-3.468,9.821-6.034,15.036-8.742
	c4.639,3.246,0.468,13.753,6.294,15.035c4.372,0.963,7.016-4.472,10.841-5.593c1.201-5.858-11.027-8.108-10.142-12.94
	c0.325-1.765,11.936-8.046,13.987-8.393c0.051-0.01,0.747-0.69,0.701-0.699c1.021,0.146,2.556,2.275,2.796,3.148
	C41.04,8.681,38.144,12.271,43.36,15.386 M34.968,31.47c-0.718-3.542-9.623-0.856-7.344,4.198
	C30.84,36.658,35.567,34.43,34.968,31.47"/>
</svg>
