<?xml version="1.0" encoding="utf-8"?>
<!-- Generator: Adobe Illustrator 15.1.0, SVG Export Plug-In . SVG Version: 6.00 Build 0)  -->
<!DOCTYPE svg PUBLIC "-//W3C//DTD SVG 1.1//EN" "http://www.w3.org/Graphics/SVG/1.1/DTD/svg11.dtd">
<svg version="1.1" id="Layer_1" xmlns="http://www.w3.org/2000/svg" xmlns:xlink="http://www.w3.org/1999/xlink" x="0px" y="0px"
	 width="72px" height="72px" viewBox="0 0 72 72" enable-background="new 0 0 72 72" xml:space="preserve">
<path fill="#DAE0DB" d="M57.768,12.972c4.478,0.448,9.453-1.271,11.571-1.51c0.231,6.272-7.172,4.907-8.051,10.064
	c2.185,1.34,7.164-0.118,8.051,2.518c-1.641,2.892-5.364,3.69-8.051,5.534c-2.866,14.076-7.752,26.128-21.64,29.184
	c-0.489,1.879,0.338,6.247-1.51,8.055c-2.387,1.328-4.245-0.287-6.038-1.008v-5.031c-1.621-0.393-2.487-1.537-4.529-1.51
	c-0.821,3.203,1.116,14.103-1.006,11.069c0,0-10.116-4.588-7.045-9.562c-2.582,4.184-4.339-5.055-8.049-6.039
	C6.805,48.161,1.034,42.695,0.401,32.094c0.735-0.438,1.595-0.753,1.508-2.012c7.679-1.045,18.609,1.163,22.139-4.027
	C15.967,7.45,42.012-4.705,54.238,6.431C55.756,7.809,57.141,10.516,57.768,12.972 M38.338,14.909
	c3.014-0.24,5.203-3.767,3.521-8.05C33.386-0.083,29.731,15.605,38.338,14.909 M14.183,39.063c7.019,1.643,13.098-0.629,12.58-8.048
	C20.158,31.286,17.551,35.557,14.183,39.063"/>
</svg>
