<?xml version="1.0" encoding="utf-8"?>
<!-- Generator: Adobe Illustrator 15.1.0, SVG Export Plug-In . SVG Version: 6.00 Build 0)  -->
<!DOCTYPE svg PUBLIC "-//W3C//DTD SVG 1.1//EN" "http://www.w3.org/Graphics/SVG/1.1/DTD/svg11.dtd">
<svg version="1.1" id="Layer_1" xmlns="http://www.w3.org/2000/svg" xmlns:xlink="http://www.w3.org/1999/xlink" x="0px" y="0px"
	 width="72px" height="72px" viewBox="0 0 72 72" enable-background="new 0 0 72 72" xml:space="preserve">
<path fill="#DAE0DB" d="M46.098,2.514l-24.07,0.083C10.35,3.603,8.684,18.005,8.684,18.005l0.678,43.567l3.802-0.174l0.058,6.295
	c0,0-0.932,3.949,3.011,3.981c3.942,0.031,4.182-4.051,4.182-4.051l0.428-6.021l27.12,0.856l0.686,6.771
	c0,0,0.023,2.699,2.723,2.674c2.697-0.026,3.57-2.731,3.57-2.731l0.897-7.547l3.662-0.381L59.07,14.498
	C58.766,3.85,46.098,2.514,46.098,2.514 M18.853,51.802c-1.766,1.2-4.201,0.697-5.44-1.125c-1.24-1.823-0.813-4.274,0.952-5.475
	c1.766-1.201,4.201-0.695,5.44,1.127C21.043,48.15,20.617,50.602,18.853,51.802 M54.298,51.818c-1.767,1.201-4.202,0.699-5.44-1.123
	c-1.238-1.823-0.813-4.273,0.953-5.475c1.765-1.199,4.199-0.695,5.438,1.127C56.486,48.171,56.063,50.619,54.298,51.818
	 M51.714,34.277L16.651,34.6l0.124-16.668l34.782-0.736L51.714,34.277z M48.711,8.576c-0.05,2.145-3.093,2.104-3.093,2.104
	l-23.31-0.131c0,0-2.895,1.063-2.713-1.774c0.182-2.838,2.887-1.963,2.887-1.963l23.235-0.421
	C45.718,6.391,48.762,6.432,48.711,8.576"/>
</svg>
