<?xml version="1.0" encoding="utf-8"?>
<!-- Generator: Adobe Illustrator 15.1.0, SVG Export Plug-In . SVG Version: 6.00 Build 0)  -->
<!DOCTYPE svg PUBLIC "-//W3C//DTD SVG 1.1//EN" "http://www.w3.org/Graphics/SVG/1.1/DTD/svg11.dtd">
<svg version="1.1" id="Layer_1" xmlns="http://www.w3.org/2000/svg" xmlns:xlink="http://www.w3.org/1999/xlink" x="0px" y="0px"
	 width="66.254px" height="69.252px" viewBox="0 0 66.254 69.252" enable-background="new 0 0 66.254 69.252" xml:space="preserve">
<path fill-rule="evenodd" clip-rule="evenodd" fill="#3BB54A" d="M64.731,17.945c0.553,1.03,0.923,2.244,1.52,3.231
	c0.082,0.841-1.107,0.412-1.141,1.139c-2.995,16.229-13.354,27.173-18.623,40.861c-0.824,2.138-3.962,3.911-5.703,5.702
	c-1.494-0.196-3.144,1.066-3.99-0.19c2.865-1.509,5.811-2.931,7.791-5.32c0.572-12.123-8.57-16.121-13.303-23.567
	c-4.631,2.655-2.128,12.441-8.932,12.924c3.589-8.534-1.904-19.707-8.743-22.237c5.938-0.045,8.566,4.865,15.205,4.751
	c-0.344-1.26-1.302-1.978-1.71-3.23c-1.693-5.19,2.198-10.072,0.76-15.964C26.337,9.797,20.72,4.168,14.748,3.5
	C7.669,2.709,1.751,7.127,1.444,15.285c-0.219,5.814,2.265,9.408,4.371,13.302c-0.832-0.413-1.513-1.648-2.09-2.851
	C1.33,20.743-2.997,6.751,3.155,2.171c2.832-2.109,7.039-2.337,11.974-2.091C34.607,1.05,48.078,14.612,64.731,17.945
	 M50.096,21.366c3.868,0.106,3.742-7.137-0.949-5.892C45.769,16.371,47.423,21.292,50.096,21.366"/>
</svg>
