<?xml version="1.0" encoding="utf-8"?>
<!-- Generator: Adobe Illustrator 15.1.0, SVG Export Plug-In . SVG Version: 6.00 Build 0)  -->
<!DOCTYPE svg PUBLIC "-//W3C//DTD SVG 1.1//EN" "http://www.w3.org/Graphics/SVG/1.1/DTD/svg11.dtd">
<svg version="1.1" id="Layer_1" xmlns="http://www.w3.org/2000/svg" xmlns:xlink="http://www.w3.org/1999/xlink" x="0px" y="0px"
	 width="48.673px" height="71.119px" viewBox="0 0 48.673 71.119" enable-background="new 0 0 48.673 71.119" xml:space="preserve">
<path fill-rule="evenodd" clip-rule="evenodd" fill="#3BB54A" d="M36.772,0.058c8.857-0.988,14.343,10.84,10.823,20.666
	c-1.709,4.774-5.41,6.262-6.642,10.579c-1.376,4.819-0.246,12.716-0.246,20.173c0,3.805,0.373,10.785,0,15.253
	c-0.22,2.625-0.379,3.079-1.477,3.443c-6.419,2.132-4.674-10.698-4.674-15.744c0-8.758,1.156-18.253-0.984-24.355
	c-1.233-3.516-4.803-5.933-5.903-9.595C25.075,11.857,29.34,0.887,36.772,0.058"/>
<path fill-rule="evenodd" clip-rule="evenodd" fill="#3BB54A" d="M11.678,0.796c0.432,2.555,0.246,6.107,0.246,9.348
	c0,3.12-0.743,6.707,0.984,8.365c1.847,0.015,1.23-2.621,1.23-4.429c0-4.792-1.576-16.449,4.428-13.285
	c1.279,3.063,0.739,7.425,0.739,11.809c0,4.259,0.625,9.086-0.493,12.055c-1.27,3.372-4.433,3.762-5.904,6.149
	c-0.73,12.636,0.24,26.974-0.492,39.609C11.166,71.59,8.4,71.144,7.25,70.172c-0.871-5.287-0.493-11.655-0.493-18.204
	c0-6.351,0.905-13.516,0-18.696c-0.74-4.243-4.993-5.534-6.642-8.611c-0.319-3.692,0.114-7.808,0.245-12.055
	C0.486,8.607-0.304,4.023,1.099,0.796c0.371-0.597,2.885-0.886,3.198,0C6.95,4.623,3.759,14.292,6.019,18.51
	c2.008-0.39,1.23-5.12,1.23-9.102C7.25,3.242,6.533-1.877,11.678,0.796"/>
</svg>
