<?xml version="1.0" encoding="utf-8"?>
<!-- Generator: Adobe Illustrator 15.1.0, SVG Export Plug-In . SVG Version: 6.00 Build 0)  -->
<!DOCTYPE svg PUBLIC "-//W3C//DTD SVG 1.1//EN" "http://www.w3.org/Graphics/SVG/1.1/DTD/svg11.dtd">
<svg version="1.1" id="Layer_1" xmlns="http://www.w3.org/2000/svg" xmlns:xlink="http://www.w3.org/1999/xlink" x="0px" y="0px"
	 width="43.281px" height="64.438px" viewBox="0 0 43.281 64.438" enable-background="new 0 0 43.281 64.438" xml:space="preserve">
<path fill="#DAE0DB" d="M1.654,0C0.93,21.149,0.798,42.532,0,63.651c14.027,0.009,27.611,1.146,41.827,0.668
	c0.373-21.091,0.899-42.125,1.454-63.146C29.469,0.619,15.466,0.554,1.654,0 M17.942,56.68c-1.859-3.456,2.389-6.678,5.935-4.684
	C27.893,58.173,19.914,60.344,17.942,56.68 M3.336,46.258C3.327,33.297,3.896,20.561,4.172,7.713
	c12.081,0.002,23.902,0.66,35.971,0.702c-0.201,12.879-0.768,25.616-0.841,38.544C27.262,46.854,15.457,46.152,3.336,46.258"/>
</svg>
