<?xml version="1.0" encoding="utf-8"?>
<!-- Generator: Adobe Illustrator 15.1.0, SVG Export Plug-In . SVG Version: 6.00 Build 0)  -->
<!DOCTYPE svg PUBLIC "-//W3C//DTD SVG 1.1//EN" "http://www.w3.org/Graphics/SVG/1.1/DTD/svg11.dtd">
<svg version="1.1" id="Layer_1" xmlns="http://www.w3.org/2000/svg" xmlns:xlink="http://www.w3.org/1999/xlink" x="0px" y="0px"
	 width="35.585px" height="68.082px" viewBox="0 0 35.585 68.082" enable-background="new 0 0 35.585 68.082" xml:space="preserve">
<path fill="#DAE0DB" d="M11.277,66.065c0.444-0.452,0.602-1.161,1.55-1.331c0.758-0.139,0.777,0.703,2.077,1.039
	c0.495,0.128,2.567,0.18,3.068,0.09c1.083-0.195,2.781-1.93,3.626-0.293c1.259,2.434-3.82,2.504-4.853,2.497
	C14.292,68.055,12.765,68.419,11.277,66.065"/>
<path fill="#DAE0DB" d="M11.277,66.065c0.444-0.452,0.602-1.161,1.55-1.331c0.758-0.139,0.777,0.703,2.077,1.039
	c0.495,0.128,2.567,0.18,3.068,0.09c1.083-0.195,2.781-1.93,3.626-0.293c1.259,2.434-3.82,2.504-4.853,2.497
	C14.292,68.055,12.765,68.419,11.277,66.065z"/>
<path fill="#DAE0DB" d="M6.74,9.845c3.699-0.344,6.987-0.636,10.567-0.937c3.116-0.264,7.282,0.138,10.687-1.564
	c3.096-1.55,5.461-4.726,7.243-1.399c0.487,0.908,0.392,2.401-0.647,3.45c-3.389,3.424-9.771,3.625-13.911,4.043
	c-4.705,0.478-9.909-0.359-13.254,1.408c-2.497,1.318-5.389,4.354-7,0.958c-0.989-2.084,1.915-4.638,4.57-5.312
	C2.744,10.11,1.5,7.594,4.183,5.306c5.183-4.422,13.765-1.363,18.302-3.218c0.815-0.333,1.425-1.142,2.236-1.529
	c3.247-1.55,8.282,0.278,5.175,3.57c-2.438,2.582-6.691,2.714-9.668,3.055C15.065,7.774,11.887,6.751,6.74,9.845"/>
<path fill="#DAE0DB" d="M6.74,9.845c3.699-0.344,6.987-0.636,10.567-0.937c3.116-0.264,7.282,0.138,10.687-1.564
	c3.096-1.55,5.461-4.726,7.243-1.399c0.487,0.908,0.392,2.401-0.647,3.45c-3.389,3.424-9.771,3.625-13.911,4.043
	c-4.705,0.478-9.909-0.359-13.254,1.408c-2.497,1.318-5.389,4.354-7,0.958c-0.989-2.084,1.915-4.638,4.57-5.312
	C2.744,10.11,1.5,7.594,4.183,5.306c5.183-4.422,13.765-1.363,18.302-3.218c0.815-0.333,1.425-1.142,2.236-1.529
	c3.247-1.55,8.282,0.278,5.175,3.57c-2.438,2.582-6.691,2.714-9.668,3.055C15.065,7.774,11.887,6.751,6.74,9.845z"/>
<path fill="#DAE0DB" d="M1.775,18.98c3.769-3.643,9.944-2.814,14.736-3.24c3.881-0.344,8.521-0.388,11.185-1.633
	c3.404-1.591,5.175-4.413,7.177-1.898c4.053,5.089-10.434,7.443-11.992,7.651c-2.506,0.334-5.104,0.577-7.439,0.712
	c-2.578,0.15-5.48-0.166-7.441,0.713c-3.001,1.346-5.614,4.367-7.49,1.84C-0.565,21.676,0.607,20.108,1.775,18.98"/>
<path fill="#DAE0DB" d="M1.775,18.98c3.769-3.643,9.944-2.814,14.736-3.24c3.881-0.344,8.521-0.388,11.185-1.633
	c3.404-1.591,5.175-4.413,7.177-1.898c4.053,5.089-10.434,7.443-11.992,7.651c-2.506,0.334-5.104,0.577-7.439,0.712
	c-2.578,0.15-5.48-0.166-7.441,0.713c-3.001,1.346-5.614,4.367-7.49,1.84C-0.565,21.676,0.607,20.108,1.775,18.98z"/>
<path fill="#DAE0DB" d="M26.457,25.89c-1.015,2.407,0.184,5.229-0.787,7.646c-1.037-1.939-0.297-4.917-0.271-7.195
	c-1.563-0.328-3.346,0.524-4.939,0.37c-0.474,2.186,0.488,4.64-0.61,6.705c-0.813-1.63-0.083-4.334-0.263-6.381
	c-1.737-0.26-3.62,0.251-5.382,0.126c-0.759,1.967,0.365,4.289-0.678,6.205c-0.845-1.476-0.29-4.047-0.194-5.882
	c-1.562-0.327-3.28,0.176-4.939,0.37c-0.611,1.632,0.514,4.406-0.689,5.391C6.998,32.166,7.6,30,7.459,28.492
	C3.168,33.24-3.4,28.975,2.099,25.048c6.062-4.329,19.152-1.488,25.302-4.176c2.656-1.161,5.246-4.301,7.235-2.213
	C38.151,22.348,29.93,25.589,26.457,25.89"/>
<path fill="#DAE0DB" d="M26.457,25.89c-1.015,2.407,0.184,5.229-0.787,7.646c-1.037-1.939-0.297-4.917-0.271-7.195
	c-1.563-0.328-3.346,0.524-4.939,0.37c-0.474,2.186,0.488,4.64-0.61,6.705c-0.813-1.63-0.083-4.334-0.263-6.381
	c-1.737-0.26-3.62,0.251-5.382,0.126c-0.759,1.967,0.365,4.289-0.678,6.205c-0.845-1.476-0.29-4.047-0.194-5.882
	c-1.562-0.327-3.28,0.176-4.939,0.37c-0.611,1.632,0.514,4.406-0.689,5.391C6.998,32.166,7.6,30,7.459,28.492
	C3.168,33.24-3.4,28.975,2.099,25.048c6.062-4.329,19.152-1.488,25.302-4.176c2.656-1.161,5.246-4.301,7.235-2.213
	C38.151,22.348,29.93,25.589,26.457,25.89z"/>
<path fill="#DAE0DB" d="M3.812,53.946c-4.745-6.521-2.535-11.731-2.895-17.43c2.751-3.834,5.964-2.966,9.479-2.928
	c6.171,0.068,12.762,0.058,18.471,0.223c3.766,2.522,3.413,4.666,3.356,8.912c-0.024,1.907,0.259,4.444-0.119,5.823
	c-0.222,0.808-2.522,5.27-3.188,5.732c-1.209,0.842-4.631,0.291-6.381,0.264C16.279,54.44,9.449,54.498,3.812,53.946"/>
<path fill="#DAE0DB" d="M3.812,53.946c-4.745-6.521-2.535-11.731-2.895-17.43c2.751-3.834,5.964-2.966,9.479-2.928
	c6.171,0.068,12.762,0.058,18.471,0.223c3.766,2.522,3.413,4.666,3.356,8.912c-0.024,1.907,0.259,4.444-0.119,5.823
	c-0.222,0.808-2.522,5.27-3.188,5.732c-1.209,0.842-4.631,0.291-6.381,0.264C16.279,54.44,9.449,54.498,3.812,53.946z"/>
<path fill="#DAE0DB" d="M25.671,55.132c-1.791,1.888-5.524,1.755-9.176,2.172c-2.674,0.307-8.617,1.805-9.46-0.641
	c1.634-1.639,6.933-1.603,9.746-1.742C20.175,54.755,23.15,54.646,25.671,55.132"/>
<path fill="#DAE0DB" d="M25.671,55.132c-1.791,1.888-5.524,1.755-9.176,2.172c-2.674,0.307-8.617,1.805-9.46-0.641
	c1.634-1.639,6.933-1.603,9.746-1.742C20.175,54.755,23.15,54.646,25.671,55.132z"/>
<path fill="#DAE0DB" d="M25.522,58.514c-2.192,2.144-6.215,1.94-9.361,2.3c-1.457,0.167-3.18,0.352-4.815,0.559
	c-1.486,0.187-3.708,0.717-4.517-1.013c0.126-0.14,0.058-0.315,0.246-0.442c2.033-1.265,6.052-1.351,9.744-1.74
	C19.833,57.858,23.652,56.548,25.522,58.514"/>
<path fill="#DAE0DB" d="M25.522,58.514c-2.192,2.144-6.215,1.94-9.361,2.3c-1.457,0.167-3.18,0.352-4.815,0.559
	c-1.486,0.187-3.708,0.717-4.517-1.013c0.126-0.14,0.058-0.315,0.246-0.442c2.033-1.265,6.052-1.351,9.744-1.74
	C19.833,57.858,23.652,56.548,25.522,58.514z"/>
<path fill="#DAE0DB" d="M25.501,62.082c-1.725,1.853-5.313,1.713-9.175,2.174c-2.682,0.318-9.536,1.996-9.215-1.082
	c3.873-1.205,9.851-1.551,14.188-2.045C22.769,60.962,24.785,60.262,25.501,62.082"/>
<path fill="#DAE0DB" d="M25.501,62.082c-1.725,1.853-5.313,1.713-9.175,2.174c-2.682,0.318-9.536,1.996-9.215-1.082
	c3.873-1.205,9.851-1.551,14.188-2.045C22.769,60.962,24.785,60.262,25.501,62.082z"/>
</svg>
