<?xml version="1.0" encoding="utf-8"?>
<!-- Generator: Adobe Illustrator 15.1.0, SVG Export Plug-In . SVG Version: 6.00 Build 0)  -->
<!DOCTYPE svg PUBLIC "-//W3C//DTD SVG 1.1//EN" "http://www.w3.org/Graphics/SVG/1.1/DTD/svg11.dtd">
<svg version="1.1" id="Layer_1" xmlns="http://www.w3.org/2000/svg" xmlns:xlink="http://www.w3.org/1999/xlink" x="0px" y="0px"
	 width="66.3px" height="42.086px" viewBox="0 0 66.3 42.086" enable-background="new 0 0 66.3 42.086" xml:space="preserve">
<path fill="#DAE0DB" d="M57.552,6.898c5.517,5.129,9.376,13.803,8.662,21.263c-0.307,3.211-1.938,10.127-5.36,12.63
	c-3.06,2.234-8.912,0.206-12.167-3.139c-1.521-1.563-2.354-4.398-4.027-5.829c-2.479-2.123-9.414-2.771-12.589-2.765
	c-3.712,0.004-9.254,0.467-13.003,3.986c-2.794,2.624-1.218,4.834-4.036,7.326C7.795,46.773,0.768,33.661,0.11,26.896
	C-0.709,18.503,2.985,4.501,13.818,1.626c5.751-1.528,12.853,1.788,18.902,0.56c1.917-0.388,3.586-1.514,5.498-1.855
	C44.427-0.779,50.97,0.78,57.552,6.898 M46.859,12.222c-2.928,2.666,1.924,6.778,4.521,4.265c1.16-1.121,1.398-2.764-0.735-4.233
	C49.319,11.344,48.117,11.077,46.859,12.222 M38.105,8.696c-2.531,2.568,1.662,6.762,4.546,3.868
	c1.144-1.148,0.433-2.183,0.828-3.738C41.096,8.364,39.757,7.019,38.105,8.696 M39.382,20.337c2.347,3.651,8.416-0.711,4.006-3.542
	C40.748,15.098,37.742,17.779,39.382,20.337 M20.409,11.199c-0.186-0.874-0.381-1.751-0.836-2.642
	c-2.003-0.546-2.86,0.004-4.839,0.899c-0.66,0.956-0.049,1.991-0.38,2.966c-5.422-0.257-2.886,7.44,1.458,5.473
	c1.134,2.569,4.011,3.608,6.097,1.37c0.506-0.766-0.362-1.617,0.146-2.382C26.13,15.597,23.347,10.831,20.409,11.199"/>
</svg>
