<?xml version="1.0" encoding="utf-8"?>
<!-- Generator: Adobe Illustrator 15.1.0, SVG Export Plug-In . SVG Version: 6.00 Build 0)  -->
<!DOCTYPE svg PUBLIC "-//W3C//DTD SVG 1.1//EN" "http://www.w3.org/Graphics/SVG/1.1/DTD/svg11.dtd">
<svg version="1.1" id="Layer_1" xmlns="http://www.w3.org/2000/svg" xmlns:xlink="http://www.w3.org/1999/xlink" x="0px" y="0px"
	 width="66.254px" height="69.252px" viewBox="0 0 66.254 69.252" enable-background="new 0 0 66.254 69.252" xml:space="preserve">
<path fill="#DAE0DB" d="M64.73,17.945c0.554,1.03,0.924,2.244,1.521,3.231c0.082,0.841-1.106,0.412-1.142,1.139
	c-2.994,16.229-13.354,27.172-18.623,40.861c-0.823,2.138-3.961,3.911-5.702,5.702c-1.494-0.195-3.144,1.066-3.99-0.189
	c2.865-1.51,5.812-2.932,7.791-5.32c0.572-12.123-8.569-16.121-13.303-23.567c-4.631,2.655-2.128,12.441-8.932,12.925
	c3.589-8.535-1.904-19.708-8.743-22.238c5.938-0.045,8.566,4.865,15.205,4.751c-0.344-1.26-1.302-1.979-1.71-3.23
	c-1.693-5.19,2.198-10.072,0.76-15.964C26.337,9.797,20.72,4.168,14.748,3.5C7.669,2.709,1.751,7.127,1.444,15.285
	c-0.219,5.814,2.265,9.408,4.371,13.302c-0.832-0.413-1.513-1.648-2.09-2.851C1.33,20.743-2.997,6.751,3.155,2.171
	c2.832-2.109,7.039-2.337,11.974-2.091C34.607,1.05,48.078,14.612,64.73,17.945 M50.096,21.366c3.868,0.106,3.742-7.137-0.949-5.892
	C45.77,16.371,47.423,21.292,50.096,21.366"/>
</svg>
