<?xml version="1.0" encoding="utf-8"?>
<!-- Generator: Adobe Illustrator 15.1.0, SVG Export Plug-In . SVG Version: 6.00 Build 0)  -->
<!DOCTYPE svg PUBLIC "-//W3C//DTD SVG 1.1//EN" "http://www.w3.org/Graphics/SVG/1.1/DTD/svg11.dtd">
<svg version="1.1" id="Layer_1" xmlns="http://www.w3.org/2000/svg" xmlns:xlink="http://www.w3.org/1999/xlink" x="0px" y="0px"
	 width="56.078px" height="71.625px" viewBox="0 0 56.078 71.625" enable-background="new 0 0 56.078 71.625" xml:space="preserve">
<path fill="#DAE0DB" d="M49.521,5.583L46.91,3.57c-6.396-3.729-12.513-5.292-17.854-0.933L28.05,3.942
	c-2.762,5.816-0.017,10.917,4.142,15.836l-1.703,2.211c-1.241-0.667-1.765,0.99-2.05,1.624c-0.695,0.396-1.996,0-2.878,0.826
	c-0.637,0.596-0.69,1.744-1.302,2.522c-0.247,0.315-0.745,0.372-0.998,0.672c-0.222,0.265-0.202,0.883-0.472,1.238
	c-0.457,0.6-0.96,0.46-1.152,0.873c-0.455,0.994,0.737,2.369,0.417,3.202L0,61.6c1.115,1.091,2.746,2.113,3.766,3.22l8.847,6.808
	l5.493-7.139c-2.209-2.033-5.964-3.863-7.027-6.053l16.482-21.412c0.91-0.32,2.341,0.331,3.125-0.314
	c0.367-0.301,0.144-0.853,0.625-1.438c0.339-0.411,0.853-0.438,1.073-0.772c0.252-0.374,0.209-0.897,0.475-1.237
	c2.271-0.707,2.238-3.145,1.912-4.774c1.096-0.358,1.795-1.419,1.221-2.419c0.563-0.676,1.385-1.867,1.704-2.212
	c5.827,3.072,11.388,4.087,16.289,0.051l1.009-1.307C57.851,16.32,54.725,10.817,49.521,5.583 M50.699,20.896
	c-1.078,1.117-2.929,1.604-4.308,1.648c-5.476,0.167-13.677-5.563-15.081-11.609c-0.38-1.631-0.463-3.808,1.266-5.592
	c1.26-1.302,3.397-1.619,4.305-1.647c2.858-0.087,5.897,1.097,8.943,3.362c2.936,2.179,5.553,5.719,6.141,8.246
	C52.309,16.801,52.421,19.118,50.699,20.896"/>
</svg>
