<?xml version="1.0" encoding="utf-8"?>
<!-- Generator: Adobe Illustrator 15.1.0, SVG Export Plug-In . SVG Version: 6.00 Build 0)  -->
<!DOCTYPE svg PUBLIC "-//W3C//DTD SVG 1.1//EN" "http://www.w3.org/Graphics/SVG/1.1/DTD/svg11.dtd">
<svg version="1.1" id="Layer_1" xmlns="http://www.w3.org/2000/svg" xmlns:xlink="http://www.w3.org/1999/xlink" x="0px" y="0px"
	 width="63.334px" height="69.945px" viewBox="0 0 63.334 69.945" enable-background="new 0 0 63.334 69.945" xml:space="preserve">
<path fill="#DAE0DB" d="M39.979,24.36c7.178,0.794,14.787-0.402,22.51,0c-1.612,4.833,4.729,18.843-5.346,16.603
	c-1.824-0.405-1.942-2.059-3.377-2.813c-5.576-2.937-14.043,1.211-12.943,8.16c0.619,3.914,4.852,6.133,8.723,6.19
	c4.829,0.07,7.046-4.776,12.943-2.533c1.365,5.296-0.038,13.359,0.845,19.136c-20.468-0.021-40.116,0.778-60.499,0.844
	c-3.132-3.465-3.301-12.609-0.281-16.32c4.3,2.736,12.631,5.72,17.165,1.689c5.098-4.533,0.997-12.529-5.628-12.664
	c-5.166-0.104-7.61,3.58-13.789,3.096c0.461-7.19-1.912-16.355,1.97-20.542c7.668,0.164,14.806-0.202,22.23-0.282
	c1.727-6.197-4.339-6.285-5.065-10.411c-0.29-1.646,0.588-2.699,1.126-4.783c0.833-3.227,0.626-4.957,2.251-6.753
	c5.207-5.758,16.13-2.617,18.291,4.782C42.733,13.339,39.513,17.411,39.979,24.36"/>
</svg>
