<?xml version="1.0" encoding="utf-8"?>
<!-- Generator: Adobe Illustrator 15.1.0, SVG Export Plug-In . SVG Version: 6.00 Build 0)  -->
<!DOCTYPE svg PUBLIC "-//W3C//DTD SVG 1.1//EN" "http://www.w3.org/Graphics/SVG/1.1/DTD/svg11.dtd">
<svg version="1.1" id="Layer_1" xmlns="http://www.w3.org/2000/svg" xmlns:xlink="http://www.w3.org/1999/xlink" x="0px" y="0px"
	 width="63.889px" height="72.91px" viewBox="0 0 63.889 72.91" enable-background="new 0 0 63.889 72.91" xml:space="preserve">
<path fill="#DAE0DB" d="M7.775,71.205l2.031,0.082c8.805-0.65,9.625-10.48,13.714-16.557c2.54-3.775,5.424-6.049,9.204-8.604
	c5.049,3.24,8.788,8.924,10.981,15.403c0.976,2.878,1.679,6.022,3.507,8.039c1.721,1.902,4.648,3.535,8.122,3.322
	c4.638-0.287,7.477-3.459,8.468-8.156l0.086-2.146c-0.413-6.771-6.763-11.995-13.52-8.926c-0.95,0.434-2.001,2.186-3.076,2.029
	c-0.929-0.135-1.783-2.407-2.364-3.566c-2.17-4.3-4.019-8.057-6.35-11.745c5.053-6.295,10.927-14.236,16.169-21.004
	c1.838-2.375,3.862-4.694,4.738-7.708c1.097-3.766,0.148-7.314-1.4-9.749L57.85,1.908C49.569,12.05,41.634,22.573,33.155,32.502
	c-7.222-10.861-14.511-21.66-21.779-32.475L10.656,0c-3.936,4.852-1.568,11.84,1.146,16.081c5.174,8.09,10.836,16.354,15.545,23.964
	c-2.814,3.43-4.977,7.193-7.398,11.311c-0.654,1.109-1.914,3.363-2.888,3.353c-0.877-0.013-1.866-1.759-2.781-2.269
	c-6.574-3.647-13.466,1.453-14.197,7.803L0,62.273C0.534,67.148,3.041,70.205,7.775,71.205 M48.785,60.298
	c1.74-4.616,8.482-3.25,10.184-0.305c2.192,3.793,0.069,8.073-3.58,8.59C51.21,69.178,47.147,64.643,48.785,60.298 M10.2,55.628
	c2.746,0.09,5.508,2.103,5.276,5.597c-0.212,3.271-2.707,5.463-5.735,5.752c-3.507,0.334-5.75-2.26-5.646-5.375
	C4.219,57.92,7.176,55.525,10.2,55.628"/>
</svg>
