<?xml version="1.0" encoding="utf-8"?>
<!-- Generator: Adobe Illustrator 15.1.0, SVG Export Plug-In . SVG Version: 6.00 Build 0)  -->
<!DOCTYPE svg PUBLIC "-//W3C//DTD SVG 1.1//EN" "http://www.w3.org/Graphics/SVG/1.1/DTD/svg11.dtd">
<svg version="1.1" id="Layer_1" xmlns="http://www.w3.org/2000/svg" xmlns:xlink="http://www.w3.org/1999/xlink" x="0px" y="0px"
	 width="67.445px" height="67.797px" viewBox="0 0 67.445 67.797" enable-background="new 0 0 67.445 67.797" xml:space="preserve">
<path fill="#DAE0DB" d="M26.414,19.029l-10.152-2.598c0,0,4.1-0.464,7.182-2.229c0,0,3.412-3.476,4.972-5.126l4.069-6.894
	c0,0,1.314-2.857,6.584-2.032l12.848,1.78c0,0,12.284,2.437,12.435,14.523c0,0-3.704,17.741,3.096,22.584l-9.05-4.213
	c0,0-0.565,4.637-5.009,6.659c0,0,4.029,2.604,7.32,13.688c0,0-1.242,1.779-0.883,4.507l2.697,7.3c0,0-20.614-9.307-36.999,0.82
	l-8.537-1.496c0,0,7.853-5.496,10.081-8.424l3.595-11.146c0,0-13.036-0.235-11.721-5.084c0,0,1.257-3.616,2.569-4.481
	c0,0-0.279-1.664-2.517-0.883c0,0-2.25,0.631-3.542,5.784c0,0-1.87,7.644-6.556,8.46c0,0-8.269,0.018-8.896-4.224
	c0,0,1.212-6.218,1.763-7.026l6.733,1.938c0,0-1.667,4.264-0.72,4.648c0,0,1.708,2.322,4.959-5.275c0,0,2.715-8.628,7.211-7.899
	l2.482,0.424l0.553-2.799l-4.051-0.917l5.875-7.338C24.806,22.061,26.529,20.552,26.414,19.029"/>
</svg>
