<?xml version="1.0" encoding="utf-8"?>
<!-- Generator: Adobe Illustrator 15.1.0, SVG Export Plug-In . SVG Version: 6.00 Build 0)  -->
<!DOCTYPE svg PUBLIC "-//W3C//DTD SVG 1.1//EN" "http://www.w3.org/Graphics/SVG/1.1/DTD/svg11.dtd">
<svg version="1.1" id="Layer_1" xmlns="http://www.w3.org/2000/svg" xmlns:xlink="http://www.w3.org/1999/xlink" x="0px" y="0px"
	 width="62.035px" height="71.099px" viewBox="0 0 62.035 71.099" enable-background="new 0 0 62.035 71.099" xml:space="preserve">
<path fill="#006838" d="M47.371,16.706c0.014-0.183,0.029-0.366,0.015-0.553c-0.043-0.331-0.284-4.003-2.709-8.018
	c-2.34-4.04-7.559-8.229-15.579-8.133c-0.395,0-0.79,0.012-1.193,0.031c-8.432,0.27-13.663,4.719-15.884,8.994
	c-2.297,4.245-2.269,8.027-2.288,8.372L9.41,36.8c-0.028,7.389-1.938,10.188-3.221,11.377c-0.668,0.609-1.286,0.884-1.755,1.025
	C4.2,49.275,4.008,49.31,3.891,49.325c-0.104,0.011-0.104,0.003-0.104,0.011c-0.174,0-0.324,0.011-0.454,0.026
	c-2.057,0.229-3.54,2.079-3.31,4.137c0.212,1.913,1.837,3.332,3.719,3.332c0.074,0,0.147-0.003,0.222-0.006
	c1.077-0.027,4.239-0.359,7.277-3.121c3.239-2.942,5.684-8.25,5.656-16.841l0.325-19.403c0.002-0.063,0.002-0.07,0.002-0.07
	c-0.002-0.349,0.217-2.991,1.626-5.215c1.462-2.193,3.603-4.32,9.394-4.664c0.299-0.012,0.579-0.021,0.854-0.021
	c5.602,0.099,7.658,2.249,9.188,4.546c0.717,1.166,1.144,2.403,1.376,3.323c0.114,0.459,0.181,0.835,0.219,1.076
	c0.018,0.121,0.026,0.206,0.032,0.252l0.003,0.009c0.008,0.117,0.04,0.226,0.06,0.339c-7.588,2.068-13.193,9.282-13.193,17.894
	v17.66c0,10.222,7.892,18.508,17.627,18.508c9.734,0,17.626-8.286,17.626-18.508v-17.66C62.035,25.771,55.692,18.187,47.371,16.706
	 M47.543,35.651c0,1.703-1.38,3.082-3.08,3.082c-1.705,0-3.084-1.379-3.084-3.082v-9.407c0-1.703,1.379-3.083,3.084-3.083
	c1.7,0,3.08,1.38,3.08,3.083V35.651z"/>
</svg>
