<?xml version="1.0" encoding="utf-8"?>
<!-- Generator: Adobe Illustrator 15.1.0, SVG Export Plug-In . SVG Version: 6.00 Build 0)  -->
<!DOCTYPE svg PUBLIC "-//W3C//DTD SVG 1.1//EN" "http://www.w3.org/Graphics/SVG/1.1/DTD/svg11.dtd">
<svg version="1.1" id="Layer_1" xmlns="http://www.w3.org/2000/svg" xmlns:xlink="http://www.w3.org/1999/xlink" x="0px" y="0px"
	 width="35.242px" height="58.337px" viewBox="0 0 35.242 58.337" enable-background="new 0 0 35.242 58.337" xml:space="preserve">
<path fill="#006838" d="M30.691,4.179c2.825,2.987,3.474,6.16,3.551,6.447l0.057,0.269l0.927,34.443
	c0.027,0.439,0.062,1.593-0.25,3.114c-0.363,1.779-1.251,4.141-3.331,6.137c-2.428,2.349-6.317,3.88-11.715,3.739
	c-6.108-0.1-10.437-2.391-13.05-5.159c-3.746-3.962-4.193-8.34-4.247-8.666L2.628,44.47L0.01,12.303v-0.002
	c-0.135-1.65,1.094-3.098,2.747-3.232c1.651-0.135,3.099,1.095,3.232,2.747l2.606,32.032c0.001,0.009,0.003,0.02,0.006,0.032
	c0.008,0.06,0.025,0.166,0.058,0.31c0.059,0.289,0.171,0.729,0.359,1.247c0.374,1.046,1.049,2.391,2.193,3.582
	c1.62,1.647,4.083,3.181,8.844,3.313c4.326,0.069,6.317-1.024,7.437-2.075c1.682-1.533,1.786-4.053,1.748-4.507l-0.001-0.015
	l-0.009-0.104L28.319,11.68c-0.002-0.003-0.002-0.006-0.003-0.008c-0.061-0.192-0.161-0.493-0.319-0.853
	c-0.314-0.722-0.845-1.663-1.638-2.488c-1.183-1.19-2.771-2.231-5.781-2.324c-2.326-0.02-3.388,0.604-4.212,1.354
	c-1.38,1.213-1.819,3.7-1.869,4.343l1.94,29.192c0.003,0.01,0.006,0.02,0.009,0.03c0.035,0.098,0.104,0.228,0.204,0.333
	c0.187,0.136,0.432,0.526,2.183,0.449c0.342-0.022,0.6-0.066,0.784-0.109l-0.149-0.314l-1.393-25.136
	c-0.093-1.655,1.175-3.07,2.829-3.162c1.654-0.089,3.069,1.176,3.16,2.83L25.4,39.906c0.116,0.354,0.238,0.834,0.302,1.434
	c0.142,1.122-0.078,3.058-1.595,4.499c-1.241,1.179-2.917,1.721-4.856,1.854c-3.046,0.259-5.548-0.783-6.934-2.284
	c-1.622-1.737-1.795-3.479-1.845-3.822l-0.006-0.052l-1.975-29.7l0.003-0.13c0.066-0.298-0.029-4.933,3.719-8.677
	c1.884-1.845,4.845-3.128,8.49-3.021c4.49,0.07,7.852,1.944,9.905,4.088C30.637,4.123,30.665,4.151,30.691,4.179"/>
</svg>
