<?xml version="1.0" encoding="utf-8"?>
<!-- Generator: Adobe Illustrator 15.1.0, SVG Export Plug-In . SVG Version: 6.00 Build 0)  -->
<!DOCTYPE svg PUBLIC "-//W3C//DTD SVG 1.1//EN" "http://www.w3.org/Graphics/SVG/1.1/DTD/svg11.dtd">
<svg version="1.1" id="Layer_1" xmlns="http://www.w3.org/2000/svg" xmlns:xlink="http://www.w3.org/1999/xlink" x="0px" y="0px"
	 width="71.588px" height="48.407px" viewBox="0 0 71.588 48.407" enable-background="new 0 0 71.588 48.407" xml:space="preserve">
<path fill="#DAE0DB" d="M1.367,19.596c3.503-0.743,4.555-3.158,6.948-4.513c2.415-1.368,5.121-0.74,7.609-1.979
	c5.491-2.731,6.581-7.611,11.055-10.404c10.448-6.52,18.176,0.025,27.729,6.365c5.521,3.667,12.227,4.057,15.548,9.31
	c5.953,9.398-9.344,18.604-20.063,24.245c-9.517,5.006-17.243,8.385-24.769,3.176c-3.566-2.469-6.663-7.104-11.479-9.922
	c-4.915-2.875-10.609-3.227-13.136-8.01C-0.713,24.989,0.166,22.427,1.367,19.596 M9.4,27.818c1.743,2.868,8.221,3.621,12.097,3.866
	c13.729,0.865,30.65,3.17,43.094-8.572c-1.492-2.383-3.197-3.55-4.962-4.385c-1.038,2.937-1.95,5.825-6.262,8.154
	c-7.897,4.271-21.609,2.435-30.17,1.354c-3.353-0.422-8.396-0.373-9.755-2.136c-1.44-1.87,0.212-3.966-1.244-5.5
	C8.619,21.007,8.089,25.659,9.4,27.818"/>
</svg>
