<?xml version="1.0" encoding="utf-8"?>
<!-- Generator: Adobe Illustrator 15.1.0, SVG Export Plug-In . SVG Version: 6.00 Build 0)  -->
<!DOCTYPE svg PUBLIC "-//W3C//DTD SVG 1.1//EN" "http://www.w3.org/Graphics/SVG/1.1/DTD/svg11.dtd">
<svg version="1.1" id="Layer_1" xmlns="http://www.w3.org/2000/svg" xmlns:xlink="http://www.w3.org/1999/xlink" x="0px" y="0px"
	 width="63.334px" height="69.945px" viewBox="0 0 63.334 69.945" enable-background="new 0 0 63.334 69.945" xml:space="preserve">
<path fill-rule="evenodd" clip-rule="evenodd" fill="#3BB54A" d="M39.979,24.36c7.178,0.794,14.787-0.402,22.51,0
	c-1.612,4.833,4.73,18.843-5.346,16.603c-1.824-0.406-1.942-2.059-3.377-2.814c-5.576-2.936-14.043,1.211-12.943,8.16
	c0.619,3.914,4.852,6.133,8.723,6.191c4.829,0.07,7.046-4.777,12.943-2.533c1.365,5.295-0.038,13.359,0.845,19.135
	c-20.468-0.02-40.116,0.779-60.499,0.844c-3.132-3.465-3.301-12.609-0.281-16.32c4.3,2.736,12.631,5.719,17.165,1.689
	c5.098-4.533,0.997-12.529-5.628-12.664c-5.166-0.104-7.61,3.58-13.789,3.096c0.461-7.191-1.912-16.356,1.97-20.542
	c7.668,0.164,14.806-0.202,22.23-0.282c1.727-6.198-4.339-6.286-5.065-10.412c-0.29-1.646,0.588-2.699,1.126-4.783
	c0.833-3.226,0.626-4.957,2.251-6.753c5.207-5.757,16.13-2.617,18.291,4.783C42.733,13.339,39.513,17.411,39.979,24.36"/>
</svg>
