<?xml version="1.0" encoding="utf-8"?>
<!-- Generator: Adobe Illustrator 15.1.0, SVG Export Plug-In . SVG Version: 6.00 Build 0)  -->
<!DOCTYPE svg PUBLIC "-//W3C//DTD SVG 1.1//EN" "http://www.w3.org/Graphics/SVG/1.1/DTD/svg11.dtd">
<svg version="1.1" id="Layer_1" xmlns="http://www.w3.org/2000/svg" xmlns:xlink="http://www.w3.org/1999/xlink" x="0px" y="0px"
	 width="32.607px" height="71.133px" viewBox="0 0 32.607 71.133" enable-background="new 0 0 32.607 71.133" xml:space="preserve">
<path fill="#DAE0DB" d="M7.261,45.248c0.669,7.512,1.109,15.094,1.402,22.08c-1.163,1.033-2.322,2.07-3.655,3.025
	c-1.249-1.293-1.229-3.305-1.5-5.061c-0.79-5.121-1.493-10.912-2.508-16.242C3.283,47.875,4.889,46.383,7.261,45.248"/>
<path fill="#DAE0DB" d="M18.633,45.697c0.192,7.648-0.244,16.08-0.875,23.758c-0.763,0.391-1.325,0.352-1.813,0.15
	c-0.222-7.992,0.521-15.535,0.685-23.35C16.796,45.568,18.208,45.35,18.633,45.697"/>
<path fill="#DAE0DB" d="M27.581,46.014c2.115,1.248,3.979,3.037,6.026,4.436c-1.665,6.9-3.378,13.783-5.047,20.686
	c-2.016-1.57-4.12-2.43-3.94-5.697c0.147-2.715,1.018-5.928,1.516-9.385C26.688,52.186,26.924,48.693,27.581,46.014"/>
<path fill="#DAE0DB" d="M27.896,16.516c-2.682-4.264-5.102-8.28-7.703-12.316c-0.106-1.309,0.599-2.858-0.313-4.132
	c-0.404-0.122-1.129-0.132-1.198,0.437c0.211,3.369-1.101,4.635-2.987,7.2c-1.937,2.633-3.753,4.763-5.661,7.324
	c-0.899,1.206-2.262,2.607-2.728,3.708c-0.563,1.33,0.064,4.491,0.176,6.559c0.752,13.83,1.881,27.328,2.464,40.886
	c1.819,0.021,3.559,0.209,5.36,0.262c0.329-7.237,0.528-14.534,0.93-21.737c1.213,0.067,2.49,0.004,3.642,0.205
	c0.066,7.463-0.978,14.407-0.465,22.08c1.377-0.193,2.504,0.147,3.887-0.056c2.18-12.623,4.065-27.252,6.031-40.409
	c0.271-1.808,1.014-4.578,0.75-5.878C29.795,19.251,28.747,17.863,27.896,16.516 M18.864,36.906
	c-1.474,0.535-3.102-0.227-3.638-1.698c-0.535-1.473,0.226-3.1,1.698-3.636c1.472-0.535,3.102,0.224,3.637,1.696
	C21.097,34.741,20.337,36.371,18.864,36.906 M19.473,29.092c-1.474,0.535-3.101-0.225-3.636-1.699
	c-0.535-1.472,0.225-3.1,1.698-3.635c1.473-0.535,3.102,0.224,3.635,1.697C21.708,26.929,20.946,28.557,19.473,29.092 M19.575,21.55
	c-1.474,0.536-3.103-0.225-3.637-1.697c-0.535-1.472,0.226-3.101,1.698-3.636c1.471-0.536,3.1,0.224,3.636,1.697
	C21.806,19.387,21.047,21.015,19.575,21.55"/>
</svg>
