<?xml version="1.0" encoding="utf-8"?>
<!-- Generator: Adobe Illustrator 15.1.0, SVG Export Plug-In . SVG Version: 6.00 Build 0)  -->
<!DOCTYPE svg PUBLIC "-//W3C//DTD SVG 1.1//EN" "http://www.w3.org/Graphics/SVG/1.1/DTD/svg11.dtd">
<svg version="1.1" id="Layer_1" xmlns="http://www.w3.org/2000/svg" xmlns:xlink="http://www.w3.org/1999/xlink" x="0px" y="0px"
	 width="51.546px" height="44.111px" viewBox="0 0 51.546 44.111" enable-background="new 0 0 51.546 44.111" xml:space="preserve">
<path fill-rule="evenodd" clip-rule="evenodd" fill="#006838" d="M11.831,9.297l0.181-1.615l25.537-0.03l0.316,1.67
	c0,0-2.412,10.295,8.066,8.829c10.479-1.467,3.075-10.599,3.075-10.599s-3.349-6.036-10.83-6.623c0,0-15.968-2.294-26.324,0.318
	c0,0-5.439,0.271-8.729,4.933c0,0-8.817,10.206,3.176,13.186C6.299,19.369,17.439,18.731,11.831,9.297"/>
<path fill-rule="evenodd" clip-rule="evenodd" fill="#006838" d="M48.474,30.261L33.44,16.249l0.196-2.871
	c0,0-0.012-2.14-2.013-2.238c-2.002-0.099-2.956,1.681-2.956,1.681l-0.403,3.603l-5.894-0.158l-0.355-3.562
	c0,0-0.564-1.699-2.193-1.755c-1.629-0.057-2.279,1.254-2.279,1.254l-0.404,3.602L2.479,29.883L2.418,36.04
	c-0.1,3.134,1.239,3.535,1.239,3.535l3.12,0.225l0.175,4.045l4.638,0.143c-0.382-4.445,2.075-3.919,2.075-3.919l23.411-0.142
	c3.893,0.059,2.55,4.185,2.55,4.185l4.293-0.147l0.197-4.003l1.726,0.319c2.264,0.002,2.473-1.861,2.473-1.861L48.474,30.261z
	 M24.503,36.787c-4.734-0.53-8.141-4.798-7.61-9.532c0.531-4.734,4.798-8.142,9.532-7.611c4.734,0.531,8.142,4.8,7.61,9.533
	C33.505,33.911,29.237,37.318,24.503,36.787 M25.944,23.93c-2.367-0.266-4.501,1.438-4.767,3.805
	c-0.265,2.367,1.439,4.501,3.806,4.767c2.367,0.265,4.501-1.438,4.767-3.806C30.015,26.329,28.312,24.195,25.944,23.93"/>
</svg>
