<?xml version="1.0" encoding="utf-8"?>
<!-- Generator: Adobe Illustrator 15.1.0, SVG Export Plug-In . SVG Version: 6.00 Build 0)  -->
<!DOCTYPE svg PUBLIC "-//W3C//DTD SVG 1.1//EN" "http://www.w3.org/Graphics/SVG/1.1/DTD/svg11.dtd">
<svg version="1.1" id="Layer_1" xmlns="http://www.w3.org/2000/svg" xmlns:xlink="http://www.w3.org/1999/xlink" x="0px" y="0px"
	 width="53.189px" height="69.18px" viewBox="0 0 53.189 69.18" enable-background="new 0 0 53.189 69.18" xml:space="preserve">
<path fill="#DAE0DB" d="M27.215,7.5c-0.412-0.436-0.605-1.244-0.605-1.244s-0.004,0.001-0.013,0L26.563,0.35
	c0,0,0.011-0.354-0.444-0.351c-0.457,0.002-0.469,0.355-0.469,0.355l0.034,5.895c0.005,0.878-0.556,1.249-0.598,1.276
	C11.543,8.273,0.728,19.133,0,32.647c0.667-1.59,2.233-2.711,4.066-2.724c2.405-0.013,4.371,1.893,4.454,4.28h0.015
	c0.056-2.389,1.999-4.316,4.403-4.331c2.407-0.014,4.372,1.893,4.455,4.279l0.015,0.001c0.055-2.39,1.998-4.317,4.404-4.331
	c1.772-0.011,3.303,1.021,4.021,2.52l0.129,22.433c-0.085,0.056-0.414,0.293-0.311,0.497c0.118,0.233,0.275,0.136,0.313,0.058
	l0.001,0.392c0,0-0.819,0.181-0.681,0.531c0.139,0.353,0.197,0.487,0.687,0.369l0.006,0.971l-0.352,0.004l0.04,7.234l-0.009,0.472
	c0,0-0.004,0-0.01,0.001c-0.078,1.28-1.13,2.297-2.43,2.309c-1.354,0.005-2.456-1.084-2.466-2.438
	c-0.001-0.533,0.169-1.028,0.458-1.434c-0.299-0.804-0.862-0.916-1.321-0.846c-0.445,0.65-0.707,1.438-0.703,2.289
	c0.014,2.219,1.822,4.005,4.041,3.994c2.219-0.015,4.007-1.821,3.994-4.042c0-0.029-0.005-0.061-0.007-0.091h0.014l-0.043-7.459
	l-0.293,0.001l-0.144-25.353c0.72-1.45,2.207-2.453,3.937-2.462c2.407-0.015,4.372,1.893,4.455,4.278l0.013,0.001
	c0.059-2.39,1.999-4.316,4.405-4.33c2.406-0.016,4.372,1.891,4.454,4.279h0.014c0.057-2.39,1.998-4.316,4.404-4.331
	c2.407-0.013,4.37,1.894,4.454,4.28h0.308C53.107,19.517,41.549,7.839,27.215,7.5"/>
</svg>
