<?xml version="1.0" encoding="utf-8"?>
<!-- Generator: Adobe Illustrator 15.1.0, SVG Export Plug-In . SVG Version: 6.00 Build 0)  -->
<!DOCTYPE svg PUBLIC "-//W3C//DTD SVG 1.1//EN" "http://www.w3.org/Graphics/SVG/1.1/DTD/svg11.dtd">
<svg version="1.1" id="Layer_1" xmlns="http://www.w3.org/2000/svg" xmlns:xlink="http://www.w3.org/1999/xlink" x="0px" y="0px"
	 width="37.815px" height="38.921px" viewBox="0 0 37.815 38.921" enable-background="new 0 0 37.815 38.921" xml:space="preserve">
<path fill-rule="evenodd" clip-rule="evenodd" fill="#3BB54A" d="M24.45,22.469l-0.975-6.299c0,0,0.729-2.921-1.942-3.063
	c-2.672-0.143-1.935,3.593-1.935,3.593l-0.312,5.967c-4.772-1.886-15.36-0.099-15.36-0.099C-4.324,25.785,2.99,37.592,2.99,37.592
	l34.825,1.329l-2.279-14.188L24.45,22.469z M8.43,32.814c-0.599,0.409-1.636-0.067-2.318-1.065
	c-0.682-0.998-0.749-2.138-0.151-2.547c0.598-0.408,1.636,0.067,2.318,1.065C8.961,31.265,9.028,32.405,8.43,32.814 M14.707,32.915
	c-0.598,0.409-1.636-0.067-2.318-1.065s-0.749-2.138-0.151-2.547c0.598-0.408,1.636,0.067,2.318,1.065S15.305,32.505,14.707,32.915"
	/>
<path fill-rule="evenodd" clip-rule="evenodd" fill="#016938" d="M16.883,15.831c0,0,0.214-5.446,4.438-5.911
	c4.225-0.465,5.177,6.909,5.177,6.909s1.242,2.482,2.521-0.965c0,0,0.98-8.09-7.663-8.995c0,0-4.875-1.816-7.57,1.995
	c0,0-1.594,6.086,0.746,7.515C14.532,16.378,16.383,17.536,16.883,15.831"/>
<path fill-rule="evenodd" clip-rule="evenodd" fill="#3BB54A" d="M10.629,14.655c0,0-2.521,3.843-3.312-1.521
	c0,0-1.174-8.585,3.165-11.097c0,0,9.521-7.114,22.667,5.25c0,0,4.086,5.535,1.527,9.101c0,0-2.255,2.904-3.264-0.343
	c0,0-0.377-5.647-2.51-7.217c0,0-7.144-6.019-11.639-5.065C12.767,4.715,12.016,8.71,10.629,14.655"/>
</svg>
