<?xml version="1.0" encoding="UTF-8" standalone="no"?>
<!-- Created with Inkscape (http://www.inkscape.org/) -->
<svg id="svg3715" xmlns:rdf="http://www.w3.org/1999/02/22-rdf-syntax-ns#" xmlns="http://www.w3.org/2000/svg" height="736.23" width="311.72" version="1.1" xmlns:cc="http://creativecommons.org/ns#" xmlns:dc="http://purl.org/dc/elements/1.1/">
<defs id="defs3717">
<clipPath id="clipPath506" clipPathUnits="userSpaceOnUse">
<path id="path508" d="M0,800,1700,800,1700,0,0,0,0,800z"/>
</clipPath>
</defs>
<metadata id="metadata3720">
<rdf:RDF>
<cc:Work rdf:about="">
<dc:format>image/svg+xml</dc:format>
<dc:type rdf:resource="http://purl.org/dc/dcmitype/StillImage"/>
<dc:title/>
</cc:Work>
</rdf:RDF>
</metadata>
<g id="layer1" transform="translate(-1.9991857,-4.246676)">
<g id="g502" transform="matrix(1.25,0,0,-1.25,-1725.9287,877.2867)">
<g id="g504" fill-rule="nonzero" clip-path="url(#clipPath506)">
<path id="path510" d="m1533.7,139.73c0.191-2.742,20-12.667,30.667-12.667,0,0,22.667-6.666,36.667-9.333s25.334-1.333,28,4,2.667,17.332-4,22.666-21.334,12.001-30.667,13.334-18.667,8.667-20.667,12-42-1.333-40-30" fill="#5e3823"/>
<path id="path512" d="m1540.5,143s9-8,20.5-9.5c0,0,4.5-0.5,10.5-3.5s39.5-11,58.5-5.5c0,0,3.5-4,0.5-6s-17-7.5-35.5-2-25.5,8.5-29,9-12,0-16,2-22.5,10-18,15,7,1,8.5,0.5" fill="#8c7054"/>
<path id="path514" d="m1469.8,314.75s63.976,38.983,73.309,37.65,27.333-24,31.333-39.333,13.333-60.667,14-68.667-5.333-58-1.333-61.333,3.332-1.999,2.666-5.333-2.666-2.667-2.666-2.667,6-0.666,6-3.333-1.334-6.667-1.334-6.667l2.2-7.32s-8.726-0.984-21.334-2.416c0,0-13.716-3.598-25.666-12.334-8.642-6.317-11-0.5-15-0.5s-4.275,2.567-1.608,10.567,17.999,58.666,17.333,67.333-3.333,8.666-3.333,12,3.333,11.334,4,15.334-6-0.666-4,4,2,2.666,2,9.333-10.667,34.667-10.667,34.667-23.334-2.666-30-6-10-6.667-10-6.667,2.333-20.001,2.333-26.501-3.5-20.5-3-27.5,8-25.5,8-31-43,53-43,53l5,44s-1.058,11.434,1.442,12.934,0.584,4.084,3.25,6.75" fill="#9b8875"/>
<path id="path516" d="m1561.5,323.5s-14.5-1-21,2.5-6-2.5,6-6,5-7,5-7l-12.5-3s-7.5-3,0.5-5.5,0.5-5,0.5-7,3-1,10,3,18,13.5,11.5,23" fill="#917d6b"/>
<path id="path518" d="m1432.6,555.57s5.5-30,30-52l3.5-1.5,0.5,29.5,1.5,8.5s0-36,2-40.5l5-4-1.5,27s3.5-24.5,6-28.5,55.5-4,71.5,4l10,6.5s10,28,10.5,34c0,0-3.5-26.5-5.5-29,0,0,14,11.5,19,20.5l1.5,25s2.5-21.5,1.5-23.5c0,0,15,22,14,36l1,16s-173.5-4-172-4-0.5-17.5,1.5-24" fill="#bfa57b"/>
<path id="path520" d="m1589.7,169.33s-2-4.666-0.333-7.333-19.334-5-20.667-4,11,11,21,11.333" fill="#917d6b"/>
<path id="path522" d="m1582,176.67s7.333-1.333,3.333-3c-4-1.666-17-9.666-23-11,0,0,11.001,11.667,19.667,14" fill="#917d6b"/>
<path id="path524" d="m1497,291c6.5,1,14.5,3.5,13.5,5s-12-2-15.5,3.5-0.5,12,1,14-25.5-1.5-24.5-7c0,0-5.049-7.076-3.555-13.041l-3.279-32.126c-5-21.333,32.667-58.333,32.667-58.333s0.333,7.333-2.333,13.666c-2.666,6.334-3,26.334,0,34.334s-2.334,27.666-2,30.666c0.104,0.928-0.209,1.886-0.736,2.777,0.84,3.17,2.076,6.148,4.736,6.557" fill="#917d6b"/>
<path id="path526" d="m1523.1,504.4-27.333-7.334s-14.666-2-21.333-15.333-0.666-87.334-4-102.67c-3.334-15.333-8.642-63.317-2.642-67.317s10.641-8.017,25.308-0.683,34,29.334,40,30.667,14.667-2,14.667-2,2.001,150.67-9.333,159.33l-15.334,5.334z" fill="#a8b5a0"/>
<path id="path528" d="m1541.5,346.5s-8.5,2.5-14-2-29.5-31.5-42.5-31-14.5,4.5-14.5,4.5-0.5,1.5,8.5,0.5,19,1.5,25.5,7.5,21,20.5,27,22,15,0.5,10-1.5" fill="#96a58c"/>
<path id="path530" d="m1543.5,349.5s-8.5,2-16.5-1.5-17-15-26.5-18.5-20.5-2.5-20.5-2.5-3.5,4.5,14,9.5,25,11,33,13.5,22.5,3,16.5-0.5" fill="#96a58c"/>
<path id="path532" d="m1482.4,485.07c-2.841-6.628-4.001-14.666-3.334-21.333s-0.667-7.999-2-17.333,1.333-22.668,2-31.334,0.668-40-2.666-53.333-4.667-20.001-4.667-26.667,2-9.333-4-13.333-12.667,22-12.667,22l1.334,112s7.483,18.641,13.333,26.667c0,0,8.275,14.349,18.667,18,11.338,3.984,24,6.666,24,6.666s23.333,6.001,37.333-2.666-0.667-15.334-4.667-12.667-17.333,11.333-23.333,11.333-24-6-24-6-13.333-7.334-15.333-12" fill="#7a5f47"/>
<path id="path534" d="m1498.4,527.07,1.333-31.333s-5.334-1.999-8.667-7.333-1.332-15.334,7.334-13.334,31.999,12.667,32.666,16.667-4,7.333-6,9.333-0.666,28-0.666,28l-26-2z" fill="#eacdb9"/>
<path id="path536" d="m1495.1,481.07l20,6c10,6,14.668,7.334,13.334,10.667s7.999,1.334,6.666-5.333-24.666-30.667-36.666-28.667-25.767,19.266-8.517,29.016c9.176,5.187,7.183,1.651,7.183,1.651s-9.334-12.001-2-13.334" fill="#a8b5a0"/>
<path id="path538" d="m1489,486s-8-19.5,13-12,29.058,17.734,29.058,17.734-16.058-19.234-33.058-20.734-12.5,7-9,15" fill="#96a58c"/>
<path id="path540" d="m1533.7,501.07s4.667-8,4-14-1.334-8-1.334-19.333,4.668-28.667,1.334-38.667-7.333-48-8-56,1.333-16,5.333-18,34.667-27.334,36-34,0-15.334,4-18,10,3.333,14,8,10,14.001,8,17.334-10,7.332-8,10.666,4,6,2,10.667-8,9.999-6,15.333-10.666,54-7.333,70.667,1.999,34.666-1.334,41.333-19.338,24.001-26.669,27.334-17.33,3.999-15.997-3.334" fill="#7a5f47"/>
<path id="path542" d="m1535.7,336.4s7.333-11.333,23.333-10l8.667,8.667s-18.666,21.999-22,20.666-10-19.333-10-19.333" fill="#f4dac6"/>
<path id="path544" d="m1553.1,488.4c-2.368-1.227-5.999-8-5.333-14s-1.334-6.667-3.334-14-0.667-27.999,2-35.333,6.666-14.667,4-16.667-4.667-4.001-4-8.667,3.334-8.666,0.667-14.666-10.666-24-9.333-28,10.666,0,14.666-8,12.668-22,13.334-24.667,5.999,1.333,10.666,8,4,20.667,8,28,6,13.334,4.667,20.667-6.667,35.332-4.667,48.666-13.333,68-31.333,58.667" fill="#8c7054"/>
<path id="path546" d="m1451.1,278.4s-26.668,3.999-36.668-8.668-7.334-22.667-4.667-32,0.666-19.334-4.667-25.334-45.331-50.664-4.664-85.998c40.666-35.334,94-6.667,102,7.333s23.331,43.999-5.336,76.665c0,0-10,14-4.666,21.334,8.159,11.219,8,23.332,0,24.666s-15.334-6-21.334-2.666-8,14-8,24l-11.998,0.668z" fill="#bfab86"/>
<path id="path548" d="m1500.5,136.5c-7.575-13.257-59.825-40.292-98.333-6.834-38.508,33.459,0.122,76.087,5.172,81.769,5.05,5.681,7.519,15.727,4.994,24.565s-6.136,19.839,3.333,31.834c9.47,11.994,35,7.332,35,7.332l11.834-0.332c0-9.47,1.484-20.011,7.166-23.168,5.682-3.156,13.272,3.685,20.834,2.334,9.333-1.667,6.559-12.877-1.167-23.5-5.051-6.944,5.122-20.959,5.122-20.959,27.146-30.932,13.62-59.784,6.045-73.041m-3.442,73.899s-10,14-4.666,21.334c8.159,11.219,8,23.332,0,24.666s-15.334-6-21.334-2.666-8,14-8,24l-11.998,0.668s-26.668,3.999-36.668-8.668-7.334-22.667-4.667-32,0.666-19.334-4.667-25.334-45.331-50.664-4.664-85.998c40.666-35.334,94-6.667,102,7.333s23.331,43.999-5.336,76.665" fill="#eae0d0"/>
<path id="path550" d="m1437,253.75,25-2.5-3.606,146.48-18-0.667s0.606-103.32-3.394-143.32" fill="#3a2814"/>
<path id="path552" d="m1451.3,237.34c-10.109,0-17.107-4.663-18.661-13.217-1.555-8.554,5.443-18.661,14.773-18.661,9.331,0,19.44,5.443,19.44,13.995,0,8.553-5.444,17.883-15.552,17.883" fill="#000"/>
<path id="path554" d="m1421.6,188.4,55.334,0,0-6s-14-9.333-24.667-9.333-31.333,8.666-31.333,8.666l0.666,6.667z" fill="#3a2814"/>
<path id="path556" d="m1434.6,209.56c-3.669,4.396-5.377,10.272-4.456,15.336,1.774,9.763,9.714,15.364,21.782,15.364,11.733,0,18.063-10.739,18.063-20.845,0-9.693-11.74-16.205-22.703-16.205-4.764,0-9.269,2.255-12.686,6.35m-5.44,15.513c-0.987-5.427,0.759-11.467,4.671-16.154,3.559-4.264,8.462-6.709,13.455-6.709,11.399,0,23.703,6.578,23.703,17.205,0,10.59-6.681,21.845-19.063,21.845-12.598,0-20.897-5.9-22.766-16.187" fill="#000"/>
<path id="path558" d="m1440,182.99,1-0.014,2.09,214.37-1,0.014-2.09-214.37z" fill="#eae0d0"/>
<path id="path560" d="m1443.5,182.48,1-0.009,1.3,214.38-1,0.009-1.3-214.38z" fill="#eae0d0"/>
<path id="path562" d="m1446.5,181.98,1-0.009,0.988,214.88-1,0.009-0.988-214.88z" fill="#eae0d0"/>
<path id="path564" d="m1458.9,182.48,0.999,0.017-2.996,214.52-0.999-0.017,2.996-214.52z" fill="#eae0d0"/>
<path id="path566" d="m1455,181.98,0.999,0.013-2.1,215.04-0.999-0.013,2.1-215.04z" fill="#eae0d0"/>
<path id="path568" d="m1450.5,182.47,0.999-0.001-0.097,215.06-0.999,0.001,0.097-215.06z" fill="#eae0d0"/>
<path id="path570" d="m1427.1,440.57c-4.032,0-4-2.5-4-6.5s2-4.5,4-4.5,2,3.5,2.5,6,1,5-2.5,5" fill="#9b8875"/>
<path id="path572" d="m1426.1,427.07c-4.032,0-4-2.5-4-6.5s2-4.5,4-4.5,2,3.5,2.5,6,1,5-2.5,5" fill="#9b8875"/>
<path id="path574" d="m1426.1,414.07c-4.032,0-4-2.5-4-6.5s2-4.5,4-4.5,2,3.5,2.5,6,1,5-2.5,5" fill="#9b8875"/>
<path id="path576" d="m1474.6,436.53c3.99-0.575,3.601-3.045,3.031-7.004-0.571-3.959-2.622-4.169-4.602-3.882-1.979,0.285-1.479,3.749-1.618,6.295-0.138,2.545-0.275,5.091,3.189,4.591" fill="#9b8875"/>
<path id="path578" d="m1473.7,423.02c3.99-0.576,3.603-3.045,3.031-7.004-0.571-3.959-2.622-4.168-4.601-3.883-1.98,0.285-1.48,3.75-1.617,6.295-0.139,2.546-0.277,5.091,3.187,4.592" fill="#9b8875"/>
<path id="path580" d="m1471.8,410.16c3.99-0.575,3.602-3.045,3.031-7.005-0.571-3.959-2.622-4.168-4.602-3.882-1.979,0.286-1.479,3.75-1.618,6.295-0.138,2.546-0.275,5.092,3.189,4.592" fill="#9b8875"/>
<path id="path582" d="m1440.5,396.82,18,0.667s5.539,8.582,6.039,12.082,3.5,28.5,3.5,28.5-23.5,9-35.5,1l1.5-32,6.461-10.249z" fill="#68331b"/>
<path id="path584" d="m1459.8,431.71c0-1.312-1.063-2.375-2.375-2.375s-2.375,1.063-2.375,2.375,1.063,2.375,2.375,2.375,2.375-1.063,2.375-2.375" fill="#9b8875"/>
<path id="path586" d="m1459,431.71c0-0.897-0.728-1.625-1.625-1.625s-1.625,0.728-1.625,1.625,0.728,1.625,1.625,1.625,1.625-0.728,1.625-1.625" fill="#cebdae"/>
<path id="path588" d="m1444,421.04c0-1.312-1.063-2.375-2.375-2.375s-2.375,1.063-2.375,2.375c0,1.311,1.063,2.375,2.375,2.375s2.375-1.064,2.375-2.375" fill="#9b8875"/>
<path id="path590" d="m1443.3,421.04c0-0.898-0.728-1.625-1.625-1.625s-1.625,0.727-1.625,1.625c0,0.897,0.728,1.625,1.625,1.625s1.625-0.728,1.625-1.625" fill="#cebdae"/>
<path id="path592" d="m1458.8,419.88c0-1.312-1.064-2.375-2.375-2.375-1.312,0-2.375,1.063-2.375,2.375,0,1.311,1.063,2.375,2.375,2.375,1.311,0,2.375-1.064,2.375-2.375" fill="#9b8875"/>
<path id="path594" d="m1458,419.88c0-0.898-0.728-1.625-1.625-1.625-0.898,0-1.625,0.727-1.625,1.625,0,0.897,0.727,1.625,1.625,1.625,0.897,0,1.625-0.728,1.625-1.625" fill="#cebdae"/>
<path id="path596" d="m1444.4,408.54c0-1.312-1.064-2.375-2.375-2.375-1.312,0-2.375,1.063-2.375,2.375s1.063,2.375,2.375,2.375c1.311,0,2.375-1.063,2.375-2.375" fill="#9b8875"/>
<path id="path598" d="m1443.7,408.54c0-0.897-0.728-1.625-1.625-1.625s-1.625,0.728-1.625,1.625,0.728,1.625,1.625,1.625,1.625-0.728,1.625-1.625" fill="#cebdae"/>
<path id="path600" d="m1457.5,408.04c0-1.312-1.063-2.375-2.375-2.375s-2.375,1.063-2.375,2.375,1.063,2.375,2.375,2.375,2.375-1.063,2.375-2.375" fill="#9b8875"/>
<path id="path602" d="m1456.8,408.04c0-0.897-0.728-1.625-1.625-1.625s-1.625,0.728-1.625,1.625,0.728,1.625,1.625,1.625,1.625-0.728,1.625-1.625" fill="#cebdae"/>
<path id="path604" d="m1444.2,432.88c0-1.312-1.064-2.375-2.375-2.375-1.312,0-2.375,1.063-2.375,2.375,0,1.311,1.063,2.375,2.375,2.375,1.311,0,2.375-1.064,2.375-2.375" fill="#9b8875"/>
<path id="path606" d="m1443.4,432.88c0-0.898-0.728-1.625-1.625-1.625s-1.625,0.727-1.625,1.625c0,0.897,0.728,1.625,1.625,1.625s1.625-0.728,1.625-1.625" fill="#cebdae"/>
<path id="path608" d="m1437.5,184c-0.553,0-1-0.447-1-1s0.447-1,1-1h24c0.553,0,1,0.447,1,1s-0.447,1-1,1h-24z" fill="#eae0d0"/>
<path id="path610" d="m1440.7,398c-0.394,0-0.712-0.447-0.712-1s0.318-1,0.712-1h17.076c0.394,0,0.712,0.447,0.712,1s-0.318,1-0.712,1h-17.076z" fill="#eae0d0"/>
<path id="path612" d="m1439.6,384.07s-6.5-3.5-9-7,0-9.5-1-11.5-1.5-9-1-10.5,0-10.5,3-13,26.942-8.316,31.5-4c2.89,2.739,4.5,7,3,10.5s2.942,4.684,3.5,11c0.31,3.522-4.672,8.933-4.5,12,0.192,3.434,4,6.5,1.5,9s-6,6.5-27,3.5" fill="#f4dac6"/>
<path id="path614" d="m1434.6,640.07s-13-60.5-5.5-88c0,0,0,14.5,2,17.5,0,0,3.5-19.5,8-23.5,0,0-2,17.5,1,25,0,0,2.5-18.5,8.5-25,0,0-4,28-1,34s16,59,16,59-19.5,21.5-29,1" fill="#d1ba8c"/>
<path id="path616" d="m1582.1,662.57s14-16.5,18.5-37.5,11-53.5,7.5-71.5c0,0-1,31-3.5,37.5,0,0,0.942-22.191-3.558-31.691l-4.942-8.309s5,18,3,25-9.5-20.5-9.5-20.5,0,18-5,21.5-12,3.5-12,3.5l9.5,82z" fill="#d1ba8c"/>
<path id="path618" d="m1454.1,587.07s-14.5,8.5-18-6,13-27.5,27.5-28.5h6l-15.5,34.5z" fill="#f4dac6"/>
<path id="path620" d="m1557.1,551.57,13,37s12,6,17.5-0.5,3-18.5-6.5-24.5-24-12-24-12" fill="#f4dac6"/>
<path id="path622" d="m1457.7,579.33s-10.999,7.834-14.666,3c-3.667-4.833,2.167-24.5,21.5-25.833l-6.834,22.833z" fill="#eacdb9"/>
<path id="path624" d="m1568.8,582.33s10.999,7.834,14.666,3c3.667-4.833-2.167-24.5-21.5-25.833l6.834,22.833z" fill="#eacdb9"/>
<path id="path626" d="m1512.1,521.57c10.046,0.28,40.5,16.5,46,25s20.5,47.5,20.5,47.5-2,55-17,66.5-83.5,2.5-102.5-16.5-3-79-3-79,5-7.5,10-14.5,28-29.5,46-29" fill="#f4dac6"/>
<path id="path628" d="m1477.7,602.33s30.666,35.334,38.666,33.334,11.166-19.667-2.084-29.417c0,0-0.469-9.45,3.808-29.184,0,0,0.942-5.399-2.724-7.399s-5.333-1.667-5.333-1.667-0.333-5.667,0.667-6.667,5.999-4,3.666-5.666c-2.333-1.667-3.666-2-3.666-2l6.666-7.334,2.334-4c-3.667-4-8-4-8-4s5.666-3.667,3.666-7-9.333-3.666-9.333-3.666,2.333-5.001,6.333-4.334,39.333,16.333,45,25,15.333,47.333,16,49,3.666,51.667-6,59c-9.666,7.334-47.999,10.667-61.666,3.667s-28-43.334-28-57.667" fill="#eacfbe"/>
<path id="path630" d="m1494.6,555.07s19.5-4.5,42,2.5c0,0-11.5-12-16.5-12s-11.91,5.698-15,7c-2.808,1.184-10.5,2.5-10.5,2.5" fill="#842109"/>
<path id="path632" d="m1501.2,571s7.5-2.833,13.5,1.167c0,0,2.891,2.899,3.391,4.899,0,0,3.652-6.523-1.558-10.066-8.333-5.667-15.333,4-15.333,4" fill="#e2c3af"/>
<path id="path634" d="m1542.1,604.57c3.945,0.658,4-6,3.5-9.5s-2-8-4.5-7.5-4,4-3.5,9,1.5,7.5,4.5,8" fill="#000"/>
<path id="path636" d="m1483.6,604.07c3.945,0.658,4-6,3.5-9.5s-2-8-4.5-7.5-4,4-3.5,9,1.5,7.5,4.5,8" fill="#000"/>
<path id="path638" d="m1535.1,615.57s9.5,3.5,18-3.5c0,0-9.5,11-18,3.5" fill="#5b472f"/>
<path id="path640" d="m1492.6,620.07s-24-7-28.5-13c0,0,19,16,28.5,13" fill="#5b472f"/>
<path id="path642" d="m1484.5,598c0-1.243-1.008-2.25-2.25-2.25s-2.25,1.007-2.25,2.25,1.008,2.25,2.25,2.25,2.25-1.007,2.25-2.25" fill="#FFF"/>
<path id="path644" d="m1543.1,598.88c0-1.243-1.008-2.25-2.25-2.25s-2.25,1.007-2.25,2.25,1.008,2.25,2.25,2.25,2.25-1.007,2.25-2.25" fill="#FFF"/>
<path id="path646" d="m1566.2,661.25c1.239-1.601-0.168-18.397,0.085-20.25,0,0-9.18,14.472-12,14.666-9.576,0.661-33.259,5.035-46.777,0.4,0,0,10,19.5,18.5,20,7.068,0.416,34.075-6.915,40.192-14.816" fill="#c6ac7d"/>
<path id="path648" d="m1480.1,690.07s-38.5-24.5-42.5-33-7-66-7-66,16.942,42.934,20.442,44.934-10.442-58.434,1.558-95.934l2-10.5s-9,48-2,58.5c0,0-4-35,3.5-52,0,0,24.5,84,41,104.5s22.5,31,29.5,32,28.5-6.5,30.5-13.5c0,0,6.5-1,7-5.5s4-63.5-1-87.5l-5-24s10.5,30,12.5,38.5-2.808-28.316-14-50c0,0,16.5,31,19.5,44s4.5,21,4.5,21,3.5,7.5,4.5,9,5,40,2,50.5-7,16.5-17,16.5c0,0-4,10.5-15,18s-70,17-109-3.5c0,0,27.5,6.5,34,4" fill="#d1ba8c"/>
<path id="path650" d="m1463.5,670.75s-21-4.75-24.25-42.25l-1-10.25s7,23.75,11.25,27,7.25-8.25,5-19.75-1.75-24.5-1.75-24.5,7.25,53.25,17.25,47.75c0,0-6.75-13.25-8.75-31.25,0,0,6.75,17,10.25,16.25s-7.75-30.75-7.75-30.75,26.75,49.75,27,44.75-9.75-24-9.75-24,17.75,37,20,39.5c0,0-20.75-25.75-22.75-25.5s5,14.5,5,14.5-10-13-11.25-10.75,2.25,18.75,6.5,24.5c0,0-17.25-21.75-19-20s2.5,12.25,2.5,12.25-9.75-8-11.75-6.25,13.25,18.75,13.25,18.75" fill="#e2ceaa"/>
<path id="path652" d="m1568,635.5,0.25-46s3.25,26.75,5.5,23.5-1.25-33.75-1.25-33.75,5.75,43,8.25,39.25,2.625-27.125,2.625-27.125,3.625,10.625,5.375,7.875,2.625-29.875,2.625-29.875,4.375,27.875,6.875,24.625,4.5-18.75,4.5-18.75-1.25,46.25-7,58.25,1.5-18.25-1.5-17.25-3.75,13.5-3.75,13.5-0.25-18.75-2.5-18.75-1.75,23-4.5,24-5.25-14.75-7-14.5-2.25,17-2.25,17-2-16-3-15.75-3.25,13.75-3.25,13.75" fill="#c6ac7d"/>
</g>
</g>
</g>
</svg>
