<?xml version="1.0" encoding="utf-8"?>
<!-- Generator: Adobe Illustrator 15.1.0, SVG Export Plug-In . SVG Version: 6.00 Build 0)  -->
<!DOCTYPE svg PUBLIC "-//W3C//DTD SVG 1.1//EN" "http://www.w3.org/Graphics/SVG/1.1/DTD/svg11.dtd">
<svg version="1.1" id="Layer_1" xmlns="http://www.w3.org/2000/svg" xmlns:xlink="http://www.w3.org/1999/xlink" x="0px" y="0px"
	 width="50.588px" height="71.469px" viewBox="0 0 50.588 71.469" enable-background="new 0 0 50.588 71.469" xml:space="preserve">
<path fill-rule="evenodd" clip-rule="evenodd" fill="#39B54A" d="M3.432,0.762c0,0-3.49-0.037-3.431,3.822l1.697,59.821
	c0,0,1.054,4.945,5.442,5.697l9.8-0.028l0.021-5.065c0,0,0.883-0.863,1.639,0.521c0,0,4.772,5.556,16.415,5.917
	c0,0,13.146,0.68,15.496-5.47c0,0,1.404-5.822-7.68-6.693c0,0-11.721,0.845-15.649-14.5L26,2.384c0,0,0.697-2.475-2.995-2.381
	L3.432,0.762z"/>
</svg>
