<?xml version="1.0" encoding="utf-8"?>
<!-- Generator: Adobe Illustrator 15.1.0, SVG Export Plug-In . SVG Version: 6.00 Build 0)  -->
<!DOCTYPE svg PUBLIC "-//W3C//DTD SVG 1.1//EN" "http://www.w3.org/Graphics/SVG/1.1/DTD/svg11.dtd">
<svg version="1.1" id="Layer_1" xmlns="http://www.w3.org/2000/svg" xmlns:xlink="http://www.w3.org/1999/xlink" x="0px" y="0px"
	 width="53.947px" height="71.136px" viewBox="0 0 53.947 71.136" enable-background="new 0 0 53.947 71.136" xml:space="preserve">
<path fill-rule="evenodd" clip-rule="evenodd" fill="#016938" d="M18.712,0.501c1.047-0.004,2.254,0.148,2.762-0.395
	c3.083-0.714,3.514,2.26,5.522,5.522c3.56,5.783,8.962,12.363,12.622,16.961c5.949,7.475,15.549,16.509,14.2,28.797
	C52.528,63.176,37.495,71.64,23.051,71.112c-7.771-0.288-16.287-4.677-19.723-9.076c-2.814-3.604-3.756-8.34-3.155-14.2
	C2.029,29.724,15.691,17.137,18.712,0.501 M40.802,46.653c-1.081,7.6-9.834,7.522-11.44,14.596
	c9.966,1.521,16.069-4.158,16.566-13.413C43.852,47.811,43.034,46.524,40.802,46.653"/>
</svg>
