<?xml version="1.0" encoding="utf-8"?>
<!-- Generator: Adobe Illustrator 15.1.0, SVG Export Plug-In . SVG Version: 6.00 Build 0)  -->
<!DOCTYPE svg PUBLIC "-//W3C//DTD SVG 1.1//EN" "http://www.w3.org/Graphics/SVG/1.1/DTD/svg11.dtd">
<svg version="1.1" id="Layer_1" xmlns="http://www.w3.org/2000/svg" xmlns:xlink="http://www.w3.org/1999/xlink" x="0px" y="0px"
	 width="43.281px" height="64.437px" viewBox="0 0 43.281 64.437" enable-background="new 0 0 43.281 64.437" xml:space="preserve">
<path fill-rule="evenodd" clip-rule="evenodd" fill="#3BB54A" d="M1.654,0C0.93,21.149,0.798,42.532,0,63.651
	c14.027,0.009,27.612,1.146,41.827,0.668c0.373-21.091,0.9-42.125,1.454-63.146C29.469,0.619,15.466,0.554,1.654,0 M17.942,56.68
	c-1.859-3.456,2.389-6.677,5.935-4.683C27.893,58.173,19.914,60.344,17.942,56.68 M3.336,46.258
	C3.327,33.297,3.896,20.561,4.172,7.713c12.081,0.002,23.902,0.66,35.97,0.702c-0.201,12.879-0.767,25.616-0.84,38.544
	C27.261,46.854,15.457,46.152,3.336,46.258"/>
</svg>
