<?xml version="1.0" encoding="utf-8"?>
<!-- Generator: Adobe Illustrator 15.1.0, SVG Export Plug-In . SVG Version: 6.00 Build 0)  -->
<!DOCTYPE svg PUBLIC "-//W3C//DTD SVG 1.1//EN" "http://www.w3.org/Graphics/SVG/1.1/DTD/svg11.dtd">
<svg version="1.1" id="Layer_1" xmlns="http://www.w3.org/2000/svg" xmlns:xlink="http://www.w3.org/1999/xlink" x="0px" y="0px"
	 width="35.585px" height="68.081px" viewBox="0 0 35.585 68.081" enable-background="new 0 0 35.585 68.081" xml:space="preserve">
<path fill="#FFFFFF" d="M11.277,66.065c0.444-0.452,0.602-1.161,1.55-1.331c0.758-0.139,0.777,0.703,2.077,1.039
	c0.495,0.128,2.567,0.18,3.068,0.09c1.083-0.195,2.781-1.93,3.626-0.293c1.259,2.433-3.82,2.504-4.853,2.497
	C14.292,68.055,12.765,68.419,11.277,66.065"/>
<path fill="#016938" d="M11.277,66.065c0.444-0.452,0.602-1.161,1.55-1.331c0.758-0.139,0.777,0.703,2.077,1.039
	c0.495,0.128,2.567,0.18,3.068,0.09c1.083-0.195,2.781-1.93,3.626-0.293c1.259,2.433-3.82,2.504-4.853,2.497
	C14.292,68.055,12.765,68.419,11.277,66.065z"/>
<path fill="#FFFFFF" d="M6.74,9.845c3.699-0.344,6.987-0.636,10.567-0.937c3.117-0.264,7.282,0.138,10.687-1.564
	c3.096-1.55,5.46-4.726,7.243-1.399c0.487,0.908,0.392,2.401-0.648,3.45c-3.388,3.424-9.771,3.625-13.911,4.043
	c-4.705,0.478-9.909-0.359-13.254,1.408c-2.497,1.318-5.389,4.354-7,0.958c-0.989-2.084,1.915-4.638,4.57-5.312
	C2.744,10.11,1.5,7.594,4.183,5.306c5.183-4.422,13.765-1.363,18.302-3.218c0.816-0.333,1.425-1.142,2.236-1.529
	c3.247-1.55,8.283,0.278,5.175,3.57c-2.438,2.582-6.691,2.714-9.668,3.055C15.065,7.774,11.887,6.751,6.74,9.845"/>
<path fill="#016938" d="M6.74,9.845c3.699-0.344,6.987-0.636,10.567-0.937c3.117-0.264,7.282,0.138,10.687-1.564
	c3.096-1.55,5.46-4.726,7.243-1.399c0.487,0.908,0.392,2.401-0.648,3.45c-3.388,3.424-9.771,3.625-13.911,4.043
	c-4.705,0.478-9.909-0.359-13.254,1.408c-2.497,1.318-5.389,4.354-7,0.958c-0.989-2.084,1.915-4.638,4.57-5.312
	C2.744,10.11,1.5,7.594,4.183,5.306c5.183-4.422,13.765-1.363,18.302-3.218c0.816-0.333,1.425-1.142,2.236-1.529
	c3.247-1.55,8.283,0.278,5.175,3.57c-2.438,2.582-6.691,2.714-9.668,3.055C15.065,7.774,11.887,6.751,6.74,9.845z"/>
<path fill="#FFFFFF" d="M1.775,18.98c3.769-3.643,9.944-2.814,14.736-3.24c3.881-0.344,8.522-0.388,11.185-1.633
	c3.404-1.591,5.174-4.413,7.177-1.898c4.052,5.089-10.434,7.443-11.992,7.651c-2.507,0.334-5.104,0.577-7.44,0.712
	c-2.578,0.15-5.48-0.166-7.441,0.713c-3.001,1.346-5.614,4.367-7.49,1.84C-0.565,21.676,0.607,20.108,1.775,18.98"/>
<path fill="#016938" d="M1.775,18.98c3.769-3.643,9.944-2.814,14.736-3.24c3.881-0.344,8.522-0.388,11.185-1.633
	c3.404-1.591,5.174-4.413,7.177-1.898c4.052,5.089-10.434,7.443-11.992,7.651c-2.507,0.334-5.104,0.577-7.44,0.712
	c-2.578,0.15-5.48-0.166-7.441,0.713c-3.001,1.346-5.614,4.367-7.49,1.84C-0.565,21.676,0.607,20.108,1.775,18.98z"/>
<path fill="#FFFFFF" d="M26.456,25.89c-1.014,2.407,0.184,5.229-0.787,7.646c-1.037-1.939-0.297-4.917-0.271-7.195
	c-1.562-0.328-3.346,0.524-4.94,0.37c-0.473,2.186,0.489,4.64-0.61,6.705c-0.814-1.63-0.083-4.334-0.262-6.381
	c-1.738-0.26-3.62,0.251-5.383,0.126c-0.759,1.967,0.365,4.289-0.678,6.205c-0.845-1.476-0.29-4.047-0.194-5.882
	c-1.562-0.327-3.28,0.176-4.939,0.37c-0.611,1.632,0.514,4.406-0.689,5.391c-0.705-1.079-0.103-3.245-0.244-4.753
	c-4.291,4.748-10.859,0.483-5.36-3.444c6.062-4.329,19.153-1.488,25.302-4.176c2.656-1.161,5.246-4.301,7.235-2.213
	C38.151,22.348,29.93,25.589,26.456,25.89"/>
<path fill="#016938" d="M26.456,25.89c-1.014,2.407,0.184,5.229-0.787,7.646c-1.037-1.939-0.297-4.917-0.271-7.195
	c-1.562-0.328-3.346,0.524-4.94,0.37c-0.473,2.186,0.489,4.64-0.61,6.705c-0.814-1.63-0.083-4.334-0.262-6.381
	c-1.738-0.26-3.62,0.251-5.383,0.126c-0.759,1.967,0.365,4.289-0.678,6.205c-0.845-1.476-0.29-4.047-0.194-5.882
	c-1.562-0.327-3.28,0.176-4.939,0.37c-0.611,1.632,0.514,4.406-0.689,5.391c-0.705-1.079-0.103-3.245-0.244-4.753
	c-4.291,4.748-10.859,0.483-5.36-3.444c6.062-4.329,19.153-1.488,25.302-4.176c2.656-1.161,5.246-4.301,7.235-2.213
	C38.151,22.348,29.93,25.589,26.456,25.89z"/>
<path fill="#016938" d="M3.812,53.946c-4.745-6.52-2.535-11.732-2.895-17.43c2.751-3.834,5.964-2.966,9.479-2.928
	c6.171,0.068,12.762,0.058,18.47,0.223c3.766,2.523,3.414,4.666,3.357,8.912c-0.024,1.907,0.259,4.444-0.119,5.823
	c-0.222,0.808-2.522,5.27-3.188,5.733c-1.209,0.842-4.631,0.291-6.382,0.263C16.279,54.44,9.449,54.498,3.812,53.946"/>
<path fill="#016938" d="M3.812,53.946c-4.745-6.52-2.535-11.732-2.895-17.43c2.751-3.834,5.964-2.966,9.479-2.928
	c6.171,0.068,12.762,0.058,18.47,0.223c3.766,2.523,3.414,4.666,3.357,8.912c-0.024,1.907,0.259,4.444-0.119,5.823
	c-0.222,0.808-2.522,5.27-3.188,5.733c-1.209,0.842-4.631,0.291-6.382,0.263C16.279,54.44,9.449,54.498,3.812,53.946z"/>
<path fill="#FFFFFF" d="M25.671,55.132c-1.791,1.888-5.524,1.755-9.176,2.172c-2.674,0.307-8.617,1.805-9.46-0.64
	c1.634-1.639,6.933-1.603,9.746-1.742C20.176,54.756,23.15,54.646,25.671,55.132"/>
<path fill="#016938" d="M25.671,55.132c-1.791,1.888-5.524,1.755-9.176,2.172c-2.674,0.307-8.617,1.805-9.46-0.64
	c1.634-1.639,6.933-1.603,9.746-1.742C20.176,54.756,23.15,54.646,25.671,55.132z"/>
<path fill="#FFFFFF" d="M25.522,58.514c-2.192,2.143-6.215,1.94-9.361,2.3c-1.457,0.167-3.18,0.351-4.815,0.558
	C9.86,61.559,7.638,62.09,6.829,60.36c0.126-0.14,0.058-0.315,0.246-0.442c2.033-1.265,6.052-1.351,9.744-1.741
	C19.834,57.858,23.652,56.548,25.522,58.514"/>
<path fill="#016938" d="M25.522,58.514c-2.192,2.143-6.215,1.94-9.361,2.3c-1.457,0.167-3.18,0.351-4.815,0.558
	C9.86,61.559,7.638,62.09,6.829,60.36c0.126-0.14,0.058-0.315,0.246-0.442c2.033-1.265,6.052-1.351,9.744-1.741
	C19.834,57.858,23.652,56.548,25.522,58.514z"/>
<path fill="#FFFFFF" d="M25.502,62.082c-1.725,1.852-5.313,1.712-9.176,2.173c-2.682,0.318-9.536,1.997-9.215-1.082
	c3.873-1.204,9.851-1.551,14.187-2.044C22.769,60.962,24.785,60.262,25.502,62.082"/>
<path fill="#016938" d="M25.502,62.082c-1.725,1.852-5.313,1.712-9.176,2.173c-2.682,0.318-9.536,1.997-9.215-1.082
	c3.873-1.204,9.851-1.551,14.187-2.044C22.769,60.962,24.785,60.262,25.502,62.082z"/>
</svg>
