<?xml version="1.0" encoding="utf-8"?>
<!-- Generator: Adobe Illustrator 15.1.0, SVG Export Plug-In . SVG Version: 6.00 Build 0)  -->
<!DOCTYPE svg PUBLIC "-//W3C//DTD SVG 1.1//EN" "http://www.w3.org/Graphics/SVG/1.1/DTD/svg11.dtd">
<svg version="1.1" id="Layer_1" xmlns="http://www.w3.org/2000/svg" xmlns:xlink="http://www.w3.org/1999/xlink" x="0px" y="0px"
	 width="72px" height="72px" viewBox="0 0 72 72" enable-background="new 0 0 72 72" xml:space="preserve">
<path fill-rule="evenodd" clip-rule="evenodd" fill="#3BB54A" d="M61.234,5.031c1.342,11.84,0.812,25.126,1.097,37.983
	c0.155,6.95,0.532,14.392-7.809,18.229c-4.834,2.223-10.229,1.005-13.21-1.59c-10.967-9.542-0.636-27.078,12.64-22.521
	c-0.05-4.663,0.452-9.153-0.25-14.019c-6.862-1.328-14.479-0.25-21.739-0.313c-0.533,4.788-0.37,10.115-0.282,15.71
	c0.127,8.191,3.091,17.906-6.188,22.687C19.576,64.246,12.042,61.621,9.152,57c-2.811-4.497-3.086-11.457-0.274-15.419
	c3.033-4.271,9.91-5.292,13.944-4.455c0.098-10.503-0.08-21.09-0.283-31.687C35.458,5.242,48.433,4.85,61.234,5.031"/>
</svg>
