<?xml version="1.0" encoding="utf-8"?>
<!-- Generator: Adobe Illustrator 15.1.0, SVG Export Plug-In . SVG Version: 6.00 Build 0)  -->
<!DOCTYPE svg PUBLIC "-//W3C//DTD SVG 1.1//EN" "http://www.w3.org/Graphics/SVG/1.1/DTD/svg11.dtd">
<svg version="1.1" id="Layer_1" xmlns="http://www.w3.org/2000/svg" xmlns:xlink="http://www.w3.org/1999/xlink" x="0px" y="0px"
	 width="40.898px" height="68.943px" viewBox="0 0 40.898 68.943" enable-background="new 0 0 40.898 68.943" xml:space="preserve">
<path fill-rule="evenodd" clip-rule="evenodd" fill="#016938" d="M7.076,24.458c-0.713,3.559-2.548,7.01-3.578,10.727
	c-0.332,1.197-0.852,2.559-0.956,3.83c-0.129,1.565,0.314,4.3-1.202,4.528c-2.114,0.318-1.141-3.003-0.961-4.395
	c0.205-1.57,0.103-2.632,0.263-3.903c0.304-2.402,1.157-5.438,1.896-8.44c0.706-2.87,1.18-5.843,2.163-8.099
	c0.18-0.416,0.904-1.414,1.176-1.67c1.674-1.586,5.893-1.698,6.502-3.604c0.646-2.02-0.382-3.609-0.799-4.918
	c-0.764-2.396-0.575-6.079,1.311-7.475c1.538-1.14,4.288-1.489,5.882-0.3c0.545,0.407,1.307,1.292,1.43,2.046
	c0.091,0.579-0.234,1.176-0.307,1.912c-0.268,2.752,0.27,5.923-2.285,6.457c0.027,1.088-0.351,2.095-0.021,3.03
	c0.503,1.434,3.49,1.683,4.657,3.19c1.408,1.817,1.609,6.017,2.108,9.392c0.459,3.112,0.757,6.235,1.393,8.369
	c0.285,0.952,1.094,1.8,1.274,2.917c0.226,1.383-0.292,2.996,0.343,3.803c0.422,0.539,2.542,1.223,3.489,1.224
	c0.619-0.001,1.271-0.202,1.282-0.808c0.014-0.851-1.179-1.016-1.425-1.788c-0.212-0.667,0.149-1.241,0.135-1.819
	c-0.02-0.704-0.371-1.242-0.302-1.899c0.098-0.918,0.741-1.806,1.513-2.198c1.944-0.985,5.098-0.35,5.326,2.137
	c0.154,1.672-0.589,3.078-1.208,4.182c-0.295,0.528-0.85,1.211-0.825,1.836c0.022,0.602,0.579,0.993,0.985,1.538
	c1.682,2.262,2.631,6.044,3.656,8.927c0.422,1.186,1.219,2.504,0.772,3.706c-1.156,0.366-1.614-0.644-1.513-1.873
	c-0.857-1.406-1.621-2.909-2.516-4.274c0.01,2.229,0.282,4.189,0.819,5.87c-0.394,0.528-1.096,0.759-1.533,1.244
	c0.284,2.006,0.421,4.164,0.738,6.134c0.127,0.196,0.976-0.003,1.05,0.495c-0.379,0.655-0.92,2.479-1.943,2.206
	c-0.49-0.129-1.362-3.283-1.555-3.861c-0.569-1.7-0.891-2.952-1.3-4.041c-0.376,0.007-0.751,0.015-1.126,0.022
	c-0.219,1.7-0.206,3.047-0.321,5.116c-0.148,2.632,0.1,5.635-2.601,3.953c-0.401-0.251-1.077-0.493-1.062-1.103
	c0.019-0.7,0.932-0.937,1.548-0.467c-0.486-2.619-0.841-5.374-1.3-8.023c-0.729-0.391-1.652-0.575-2.188-1.167
	c0.534-1.573,1.107-3.104,1.63-4.71c0.606-1.86,1.532-4.207,0.911-5.907c-0.533-1.463-2.396-2.275-2.938-3.746
	c-0.342-0.932-0.014-2.158-0.152-3.028c-0.134-0.844-0.805-1.609-0.661-2.582c-2.345-2.411-3.247-6.19-4.291-10.211
	c-0.091,4.319,0.012,8.825,0.115,13.331c-0.254,0.493-1.021,0.491-1.367,0.896c0.036,2.845,0.688,5.563,0.611,8.212
	c-0.097,3.38-1.043,6.557-1.263,9.725c0.272,0.001,1.077-0.241,1.389,0.144c0.644,1.521-0.514,2.381-1.313,3.32
	c-0.765,0.896-3.123,3.767-3.62,0.77c-0.246-1.474,0.055-3.293,0.151-5.025c0.188-3.391-0.165-6.947-0.563-10.031
	c-0.327-2.53-0.425-4.991-1.525-6.462c-0.5,5.895-0.789,14.106-1.192,20.979c-0.116,1.965-0.098,5.747-1.599,6.097
	c-1.354,0.313-2.099-0.94-2.729-2.021c-0.544-0.933-1.521-2.293-1.371-3.348c0.098-0.672,0.954-1.396,1.8-0.817
	c-0.326-5.761-0.731-12.916-1.109-19.285c-0.098-1.649,0.146-2.842-1.104-3.093C6.107,34.943,6.589,29.698,7.076,24.458"/>
</svg>
