<?xml version="1.0" encoding="utf-8"?>
<!-- Generator: Adobe Illustrator 15.1.0, SVG Export Plug-In . SVG Version: 6.00 Build 0)  -->
<!DOCTYPE svg PUBLIC "-//W3C//DTD SVG 1.1//EN" "http://www.w3.org/Graphics/SVG/1.1/DTD/svg11.dtd">
<svg version="1.1" id="Layer_1" xmlns="http://www.w3.org/2000/svg" xmlns:xlink="http://www.w3.org/1999/xlink" x="0px" y="0px"
	 width="69.189px" height="65.545px" viewBox="0 0 69.189 65.545" enable-background="new 0 0 69.189 65.545" xml:space="preserve">
<path fill-rule="evenodd" clip-rule="evenodd" fill="#3BB54A" d="M67.383,8.346c-6.473,4.743-16.178,8.074-16.391,20.025
	c6.941,2.81,15.73-0.191,17.605,8.333c1.604,7.295-0.674,19.604,0.361,26.897c-4.313,2.082-9.693,1.378-14.816,1.47
	c-4.992,0.093-10.381,0.6-15.57-0.375c-0.703-6.37-0.418-13.82-0.521-21.58c-0.1-7.328-1.615-15.535-0.033-21.862
	c1.959-7.841,8.805-11.727,12.674-16.875c1.943-0.042,4.283-1.069,4.1-3.047c3.498-0.437,7.629-3.192,10.924,0.806
	C67.043,3.751,66.656,5.933,67.383,8.346"/>
<path fill-rule="evenodd" clip-rule="evenodd" fill="#3BB54A" d="M28.098,0.921c1.623,1.885,1.807,4.607,2.238,7.184
	c-6.426,4.958-18.624,9.02-16.695,21.183c3.925,2.058,8.588,0.655,13.337,1.028c5.915,3.703,4.504,11.815,4.601,20.173
	c0.056,4.842,0.934,9.974-0.741,13.824c-9.017,1.711-19.308,1.243-29.515,0.913c-0.823-5.923-0.527-13.284-0.625-21.192
	c-0.082-6.899-1.369-14.739-0.234-21.092c2.011-11.26,14.116-19.36,22.03-22.667C23.851-0.292,25.902,0.521,28.098,0.921"/>
</svg>
