<?xml version="1.0" encoding="utf-8"?>
<!-- Generator: Adobe Illustrator 15.1.0, SVG Export Plug-In . SVG Version: 6.00 Build 0)  -->
<!DOCTYPE svg PUBLIC "-//W3C//DTD SVG 1.1//EN" "http://www.w3.org/Graphics/SVG/1.1/DTD/svg11.dtd">
<svg version="1.1" id="Layer_1" xmlns="http://www.w3.org/2000/svg" xmlns:xlink="http://www.w3.org/1999/xlink" x="0px" y="0px"
	 width="71.151px" height="70.655px" viewBox="0 0 71.151 70.655" enable-background="new 0 0 71.151 70.655" xml:space="preserve">
<path fill-rule="evenodd" clip-rule="evenodd" fill="#016938" d="M34.249,24.009c1.802-0.2,5.141,0.014,6.956,0.907
	c10.615,5.218,5.1,27.194-10.282,21.171c-6.956-2.724-8.187-14.405-3.328-19.356C29.327,24.965,31.538,24.309,34.249,24.009
	 M35.458,39.735c5.499,0.23,6.012-10.183-0.907-8.468C29.835,32.435,31.118,39.554,35.458,39.735"/>
<path fill-rule="evenodd" clip-rule="evenodd" fill="#016938" d="M59.957,9.492C53.925,3.79,44.143-0.796,33.039,0.116
	c-5.389,0.442-7.093,0.841-10.283,2.117C6.655,8.674-6.446,29.38,3.399,50.32c6.761,14.376,23.523,23.429,40.528,19.356
	c13.835-3.314,27.487-15.227,27.22-35.082C70.992,23.122,65.483,14.715,59.957,9.492 M23.058,38.223
	c-1.292-8.227,3.126-14.553,10.284-15.727c9.073-1.49,15.07,4.851,15.122,12.703C48.573,51.898,25.279,52.368,23.058,38.223"/>
</svg>
