<?xml version="1.0" encoding="utf-8"?>
<!-- Generator: Adobe Illustrator 15.1.0, SVG Export Plug-In . SVG Version: 6.00 Build 0)  -->
<!DOCTYPE svg PUBLIC "-//W3C//DTD SVG 1.1//EN" "http://www.w3.org/Graphics/SVG/1.1/DTD/svg11.dtd">
<svg version="1.1" id="Layer_1" xmlns="http://www.w3.org/2000/svg" xmlns:xlink="http://www.w3.org/1999/xlink" x="0px" y="0px"
	 width="69.123px" height="48.734px" viewBox="0 0 69.123 48.734" enable-background="new 0 0 69.123 48.734" xml:space="preserve">
<path fill-rule="evenodd" clip-rule="evenodd" fill="#3BB54A" d="M68.614,8.279c-2.104-0.062-1.068-2.56-3.53-2.516
	c-0.199-0.735,0.513-1.742-0.289-2.295c-3.073,1.957-5.268,2.657-8.363,1.904c-4.514-1.1-8.662-5.848-12.707-5.332
	c-2.867,0.365-7.579,5.825-9.915,5.345c-2.162-0.445-3.734-3.007-5.533-3.904c-9.491-4.729-14.292,9.658-24.391,2.725
	C2.97,4.624,3.854,5.831,3.444,6.719c-1.689-0.258-1.705,0.622-1.75,2.11C1.046,8.652,0.367,8.375,0,9.137
	c0.318,12.409,0.504,24.856,0.271,37.43c11.954,7.828,20.129-9.409,31.567-1.297c1.278,0.907,1.931,2.115,3.018,3.464
	c7.321-14.688,24.906,4.969,34.266-2.896C68.999,33.305,68.77,20.803,68.614,8.279 M6.143,39.653
	C6.346,28.74,5.799,18.056,5.958,7.158c3.516,0.572,6.301,0.946,9.527-0.665c2.867-1.432,4.47-4.264,7.364-4.582
	c3.397-0.374,6.47,2.236,10.193,4.892c0.249,9.319,0.152,18.744,0.444,28.05C22.001,28.519,15.962,40.412,6.143,39.653
	 M36.127,35.058c-0.451-9.458-0.408-19.064-0.425-28.652c2.972-1.226,4.271-3.658,6.999-4.473c4.305-1.286,7.049,2.544,11.416,4.328
	c3.112,1.272,5.669,0.868,8.415,0.264c0.474,10.775,0.556,21.667,0.422,32.622C54.199,39.015,42.836,27.809,36.127,35.058"/>
</svg>
