<?xml version="1.0" encoding="utf-8"?>
<!-- Generator: Adobe Illustrator 15.1.0, SVG Export Plug-In . SVG Version: 6.00 Build 0)  -->
<!DOCTYPE svg PUBLIC "-//W3C//DTD SVG 1.1//EN" "http://www.w3.org/Graphics/SVG/1.1/DTD/svg11.dtd">
<svg version="1.1" id="Layer_1" xmlns="http://www.w3.org/2000/svg" xmlns:xlink="http://www.w3.org/1999/xlink" x="0px" y="0px"
	 width="69.763px" height="51.09px" viewBox="0 0 69.763 51.09" enable-background="new 0 0 69.763 51.09" xml:space="preserve">
<path fill-rule="evenodd" clip-rule="evenodd" fill="#006838" d="M53.749,27.071c-1.033-2.311-2.303-4.388-4.047-5.989
	c-2.939-0.134-5.349,0.263-8.095,0.323c-1.923,2.175,0.17,6.705-1.943,8.58c-1.687,1.498-5.288,0.404-7.608,0
	c0.241-1.485,2.505-0.948,3.398-1.781c-0.199-1.299-0.028-4.256-0.322-5.99c-1.225,0.671-1.043,2.333-1.62,3.399
	c-0.984,1.821-2.525,2.739-5.99,2.43c0.438-1.41,2.627-2.437,2.104-5.344c-0.825-0.336-1.951,0.421-3.237,0.163
	c-0.078,3.674-3.928,7.801-8.419,5.504c0.491-2.719,5.877-2,3.886-6.152c-2.164-0.965-4.136-2.206-5.99-3.563
	c-1.832-1.339-3.885-2.373-5.504-3.885C7.69,12.272,6.275,8.681,3.237,6.511C2.056,6.462,1.258,6.797,0,6.673
	c0.535-3.814,5.054-3.282,6.961-2.429c3.716,1.663,7.422,9.112,12.628,9.228c2.269,0.05,4.756-1.721,6.8-3.076
	c5.802-3.848,10.12-9.816,19.265-10.361c7.541-0.449,12.886,3.572,16.514,7.124c4.612,4.515,8.399,10.053,7.447,19.103
	c-0.723,6.856-5.123,10.964-10.848,12.79c-10.855,3.465-25.938-2.478-36.75,1.295c-2.121,0.74-5.217,1.905-5.343,3.4
	c-0.226,2.681,5.027,3.543,7.286,4.209c3.142,0.928,5.855,1.839,8.257,3.076c-5.343,0.333-12.766-0.808-16.352-2.752
	c-2.47-1.34-4.55-4.802-2.105-7.934c8.107-10.381,34.869-0.21,45.979-6.961c5.721-3.476,2.424-11.956-3.724-12.789
	c-0.138,0.029-0.153-0.064-0.162-0.163c1.501,2.329,4.854,8.941-0.971,9.714c-1.188,0.158-3.389,0.085-3.562-0.81
	C51.034,27.853,53.436,28.332,53.749,27.071"/>
</svg>
