<?xml version="1.0" encoding="utf-8"?>
<!-- Generator: Adobe Illustrator 15.1.0, SVG Export Plug-In . SVG Version: 6.00 Build 0)  -->
<!DOCTYPE svg PUBLIC "-//W3C//DTD SVG 1.1//EN" "http://www.w3.org/Graphics/SVG/1.1/DTD/svg11.dtd">
<svg version="1.1" id="Layer_1" xmlns="http://www.w3.org/2000/svg" xmlns:xlink="http://www.w3.org/1999/xlink" x="0px" y="0px"
	 width="27.668px" height="70.305px" viewBox="0 0 27.668 70.305" enable-background="new 0 0 27.668 70.305" xml:space="preserve">
<path fill-rule="evenodd" clip-rule="evenodd" fill="#3BB54A" d="M13.351,44.893c3.5-0.035,4.628-2.439,4.632-5.971
	c4.283,0.813,2.112,5.029,2.56,9.383c0.428,4.186,4.875,7.588,6.337,10.969c0.498,1.154,0.952,2.887,0.731,4.145
	c-0.457,2.604-4.345,4.258-6.582,5.117c-3.341,1.287-6.029,1.992-9.993,1.707c-4.111-0.295-6.081-2.189-6.459-6.215
	c-0.339-3.607,1.272-7.793,0.608-11.213c-0.994-5.129-7.028-7.729-4.021-13.648c2.83-0.152,2.031,4.324,4.388,4.508
	c1.919,0.15,2.607-2.5,2.438-4.875C7.68,34.486,5.372,30.063,4.21,24.906c-0.806-3.577-1.299-7.325-2.56-10.603
	c-0.409-1.065-1.43-2.004-1.584-2.804c-0.268-1.39,0.355-3.588,0.365-5.484c0.013-2.17-0.007-4.129-0.121-5.728
	c1.053-0.453,2.777-0.481,3.29,0.731c0.474,1.116-0.281,3.366,0.121,4.875C4.085,7.25,5.301,7.461,5.429,8.087
	c0.21,1.029-1.371,2.067-1.463,2.925c-0.113,1.077,0.656,3.145,0.976,4.51C7.247,25.361,11.08,35.554,13.351,44.893"/>
</svg>
