<?xml version="1.0" encoding="utf-8"?>
<!-- Generator: Adobe Illustrator 15.1.0, SVG Export Plug-In . SVG Version: 6.00 Build 0)  -->
<!DOCTYPE svg PUBLIC "-//W3C//DTD SVG 1.1//EN" "http://www.w3.org/Graphics/SVG/1.1/DTD/svg11.dtd">
<svg version="1.1" id="Layer_1" xmlns="http://www.w3.org/2000/svg" xmlns:xlink="http://www.w3.org/1999/xlink" x="0px" y="0px"
	 width="52.418px" height="53.633px" viewBox="0 0 52.418 53.633" enable-background="new 0 0 52.418 53.633" xml:space="preserve">
<path fill-rule="evenodd" clip-rule="evenodd" fill="#016938" d="M8.977,34.621l-3.455,0.111l-0.378-14.19
	c0,0-0.187-14.536,20.916-15.138C47.16,4.801,46.708,19.344,46.708,19.344l0.672,13.991l-3.749,0.312c0,0,0.245-6.696-8.064-6.48
	c-8.308,0.215-6.663,7.012-6.663,7.012l0.364,12.917c0,0-0.145,6.841,7.695,6.411c7.841-0.432,6.704-7.896,6.704-7.896l3.601-0.213
	l0.596,2.911c0,0,0.039,1.151,2.242,0.932c2.204-0.221,2.313-1.473,2.313-1.473l-0.595-29.241c0,0-1.363-19.082-26.021-18.515
	C1.146,0.581,0,18.809,0,18.809l0.534,28.212c0,0,0.012,3.31,2.462,3.135c2.449-0.175,2.721-2.284,2.721-2.284l-0.022-1.913
	l3.456-0.111c0,0-1.236,7.907,7.564,7.785c8.8-0.124,7.118-8.07,7.118-8.07L23.43,33.527c0,0-0.247-6.786-7.036-6.539
	C9.606,27.235,8.977,34.621,8.977,34.621"/>
</svg>
