<svg xmlns="http://www.w3.org/2000/svg" xmlns:xlink="http://www.w3.org/1999/xlink" version="1.1" id="Layer_1" x="0px" y="0px" width="69.123px" height="48.734px" viewBox="0 0 69.123 48.734" enable-background="new 0 0 69.123 48.734" xml:space="preserve">
<path fill-rule="evenodd" clip-rule="evenodd" fill="#3BB54A" d="M68.614 8.279c-2.104-0.062-1.068-2.56-3.53-2.516 c-0.199-0.735 0.513-1.742-0.289-2.295c-3.073 1.957-5.268 2.657-8.363 1.904c-4.514-1.1-8.662-5.848-12.707-5.332 c-2.867 0.365-7.579 5.825-9.915 5.345c-2.162-0.445-3.734-3.007-5.533-3.904c-9.491-4.729-14.292 9.658-24.391 2.7 C2.97 4.6 3.9 5.8 3.4 6.719c-1.689-0.258-1.705 0.622-1.75 2.11C1.046 8.7 0.4 8.4 0 9.1 c0.318 12.4 0.5 24.9 0.3 37.43c11.954 7.8 20.129-9.409 31.567-1.297c1.278 0.9 1.9 2.1 3 3.5 c7.321-14.688 24.9 5 34.266-2.896C68.999 33.3 68.8 20.8 68.6 8.3 M6.143 39.7 C6.346 28.7 5.8 18.1 6 7.158c3.516 0.6 6.3 0.9 9.527-0.665c2.867-1.432 4.47-4.264 7.364-4.582 c3.397-0.374 6.5 2.2 10.2 4.892c0.249 9.3 0.2 18.7 0.4 28.05C22.001 28.5 16 40.4 6.1 39.7 M36.127 35.058c-0.451-9.458-0.408-19.064-0.425-28.652c2.972-1.226 4.271-3.658 6.999-4.473c4.305-1.286 7 2.5 11.4 4.3 c3.112 1.3 5.7 0.9 8.4 0.264c0.474 10.8 0.6 21.7 0.4 32.622C54.199 39 42.8 27.8 36.1 35.1"/>
</svg>
