<?xml version="1.0" encoding="utf-8"?>
<!-- Generator: Adobe Illustrator 15.1.0, SVG Export Plug-In . SVG Version: 6.00 Build 0)  -->
<!DOCTYPE svg PUBLIC "-//W3C//DTD SVG 1.1//EN" "http://www.w3.org/Graphics/SVG/1.1/DTD/svg11.dtd">
<svg version="1.1" id="Layer_1" xmlns="http://www.w3.org/2000/svg" xmlns:xlink="http://www.w3.org/1999/xlink" x="0px" y="0px"
	 width="32.607px" height="71.133px" viewBox="20.227 0 32.607 71.133" enable-background="new 20.227 0 32.607 71.133"
	 xml:space="preserve">
<path fill="#016938" d="M26.488,45.248c0.669,7.512,1.109,15.094,1.402,22.08c-1.163,1.033-2.322,2.07-3.655,3.025
	c-1.249-1.293-1.229-3.304-1.5-5.06c-0.79-5.121-1.493-10.912-2.508-16.242C22.51,47.875,24.116,46.383,26.488,45.248"/>
<path fill="#016938" d="M37.859,45.697c0.193,7.648-0.244,16.08-0.875,23.758c-0.763,0.391-1.325,0.352-1.813,0.15
	c-0.222-7.992,0.521-15.535,0.684-23.349C36.022,45.568,37.434,45.35,37.859,45.697"/>
<path fill="#016938" d="M46.807,46.014c2.116,1.248,3.979,3.037,6.027,4.435c-1.665,6.901-3.378,13.784-5.047,20.686
	c-2.016-1.571-4.12-2.43-3.941-5.698c0.148-2.715,1.018-5.927,1.516-9.384C45.915,52.186,46.15,48.693,46.807,46.014"/>
<path fill="#39B54A" d="M47.123,16.516c-2.682-4.264-5.102-8.28-7.703-12.316c-0.107-1.309,0.598-2.858-0.314-4.132
	c-0.404-0.122-1.129-0.132-1.198,0.437c0.211,3.369-1.101,4.635-2.987,7.2c-1.937,2.633-3.753,4.763-5.661,7.324
	c-0.9,1.206-2.262,2.607-2.728,3.708c-0.563,1.33,0.064,4.491,0.176,6.559c0.752,13.83,1.881,27.328,2.464,40.886
	c1.819,0.02,3.558,0.209,5.36,0.262c0.329-7.238,0.528-14.535,0.93-21.738c1.213,0.068,2.49,0.004,3.641,0.205
	c0.067,7.463-0.977,14.408-0.465,22.08c1.377-0.193,2.504,0.148,3.887-0.055c2.18-12.623,4.066-27.252,6.031-40.409
	c0.271-1.808,1.014-4.578,0.75-5.878C49.021,19.251,47.973,17.863,47.123,16.516 M38.091,36.906
	c-1.474,0.535-3.102-0.227-3.638-1.698c-0.535-1.473,0.225-3.1,1.698-3.636c1.472-0.535,3.102,0.224,3.637,1.696
	C40.324,34.741,39.563,36.371,38.091,36.906 M38.7,29.092c-1.474,0.535-3.101-0.225-3.636-1.699c-0.535-1.472,0.225-3.1,1.698-3.635
	c1.473-0.535,3.102,0.224,3.635,1.697C40.934,26.929,40.173,28.557,38.7,29.092 M38.802,21.55c-1.474,0.536-3.103-0.225-3.637-1.697
	c-0.535-1.472,0.225-3.101,1.698-3.636c1.471-0.536,3.1,0.224,3.636,1.697C41.033,19.387,40.273,21.015,38.802,21.55"/>
</svg>
