<?xml version="1.0" encoding="utf-8"?>
<!-- Generator: Adobe Illustrator 15.1.0, SVG Export Plug-In . SVG Version: 6.00 Build 0)  -->
<!DOCTYPE svg PUBLIC "-//W3C//DTD SVG 1.1//EN" "http://www.w3.org/Graphics/SVG/1.1/DTD/svg11.dtd">
<svg version="1.1" id="Layer_1" xmlns="http://www.w3.org/2000/svg" xmlns:xlink="http://www.w3.org/1999/xlink" x="0px" y="0px"
	 width="63.889px" height="72.91px" viewBox="0 0 63.889 72.91" enable-background="new 0 0 63.889 72.91" xml:space="preserve">
<path fill-rule="evenodd" clip-rule="evenodd" fill="#006838" d="M7.775,71.205l2.031,0.082c8.805-0.65,9.625-10.481,13.714-16.557
	c2.54-3.775,5.424-6.049,9.204-8.604c5.049,3.24,8.788,8.924,10.981,15.404c0.976,2.877,1.679,6.022,3.507,8.038
	c1.721,1.903,4.649,3.536,8.122,3.323c4.638-0.288,7.477-3.46,8.468-8.156l0.086-2.147c-0.413-6.771-6.763-11.995-13.52-8.926
	c-0.95,0.434-2.001,2.185-3.076,2.029c-0.928-0.134-1.783-2.407-2.364-3.566c-2.17-4.3-4.019-8.056-6.35-11.745
	c5.053-6.295,10.927-14.236,16.169-21.004c1.838-2.375,3.863-4.694,4.739-7.708c1.096-3.766,0.148-7.314-1.401-9.749L57.85,1.908
	C49.569,12.05,41.634,22.573,33.155,32.502c-7.222-10.861-14.511-21.66-21.78-32.475L10.656,0
	c-3.935,4.852-1.568,11.84,1.146,16.081c5.174,8.09,10.836,16.354,15.545,23.964c-2.815,3.429-4.977,7.193-7.399,11.311
	c-0.654,1.109-1.914,3.363-2.887,3.352c-0.877-0.013-1.866-1.759-2.781-2.268c-6.575-3.648-13.466,1.452-14.198,7.802L0,62.274
	C0.534,67.148,3.041,70.205,7.775,71.205 M48.785,60.298c1.741-4.616,8.483-3.25,10.184-0.305c2.192,3.793,0.069,8.073-3.58,8.59
	C51.21,69.178,47.147,64.643,48.785,60.298 M10.2,55.628c2.747,0.09,5.508,2.102,5.277,5.597c-0.212,3.271-2.707,5.462-5.736,5.752
	c-3.506,0.334-5.75-2.26-5.646-5.376C4.219,57.92,7.176,55.525,10.2,55.628"/>
</svg>
