<?xml version="1.0" encoding="utf-8"?>
<!-- Generator: Adobe Illustrator 15.1.0, SVG Export Plug-In . SVG Version: 6.00 Build 0)  -->
<!DOCTYPE svg PUBLIC "-//W3C//DTD SVG 1.1//EN" "http://www.w3.org/Graphics/SVG/1.1/DTD/svg11.dtd">
<svg version="1.1" id="Layer_1" xmlns="http://www.w3.org/2000/svg" xmlns:xlink="http://www.w3.org/1999/xlink" x="0px" y="0px"
	 width="53.19px" height="69.179px" viewBox="0 0 53.19 69.179" enable-background="new 0 0 53.19 69.179" xml:space="preserve">
<path fill="#3BB54A" d="M27.215,7.5c-0.412-0.436-0.605-1.244-0.605-1.244s-0.004,0.001-0.013,0L26.563,0.35
	c0,0,0.01-0.353-0.445-0.35c-0.457,0.002-0.468,0.355-0.468,0.355l0.034,5.895c0.005,0.878-0.556,1.249-0.598,1.276
	C11.543,8.273,0.728,19.133,0,32.647c0.667-1.59,2.234-2.711,4.067-2.723c2.405-0.013,4.371,1.892,4.454,4.28h0.014
	c0.056-2.389,1.999-4.317,4.404-4.331c2.407-0.014,4.372,1.892,4.455,4.279l0.014,0.001c0.055-2.39,1.998-4.317,4.405-4.331
	c1.772-0.011,3.302,1.022,4.02,2.52l0.129,22.432c-0.085,0.056-0.414,0.293-0.31,0.497c0.118,0.234,0.275,0.136,0.313,0.058
	l0.001,0.391c0,0-0.819,0.181-0.681,0.532c0.139,0.352,0.198,0.487,0.687,0.369l0.006,0.971l-0.352,0.003l0.04,7.235l-0.009,0.472
	c0,0-0.003,0-0.009,0.001c-0.078,1.28-1.13,2.296-2.43,2.308c-1.354,0.005-2.456-1.084-2.466-2.438
	c-0.001-0.534,0.169-1.029,0.458-1.434c-0.299-0.804-0.862-0.916-1.321-0.846c-0.445,0.651-0.707,1.439-0.703,2.289
	c0.013,2.219,1.822,4.005,4.041,3.995c2.219-0.015,4.007-1.822,3.994-4.042c0-0.03-0.005-0.061-0.007-0.091h0.014l-0.043-7.459
	l-0.293,0.001l-0.144-25.353c0.72-1.45,2.207-2.453,3.937-2.462c2.407-0.014,4.372,1.893,4.455,4.279l0.013,0.001
	c0.058-2.39,1.999-4.317,4.405-4.331c2.406-0.015,4.372,1.891,4.454,4.28h0.014c0.056-2.39,1.998-4.317,4.404-4.331
	c2.407-0.013,4.37,1.893,4.454,4.28l0.308,0C53.107,19.517,41.549,7.839,27.215,7.5"/>
</svg>
